<?xml version="1.0" encoding="UTF-8"?>
<svg width="760px" height="400px" viewBox="0 0 760 400" version="1.1" xmlns="http://www.w3.org/2000/svg" xmlns:xlink="http://www.w3.org/1999/xlink">
    <!-- Generator: Sketch 51.1 (57501) - http://www.bohemiancoding.com/sketch -->
    <title>Artboard</title>
    <desc>Created with Sketch.</desc>
    <defs></defs>
    <g id="Artboard" stroke="none" stroke-width="1" fill="none" fill-rule="evenodd">
        <g id="Group-4" transform="translate(109.000000, 50.000000)">
            <g id="Group-2">
                <g id="Glyph/002.Object/083.Nodes/Black-">
                    <g id="Group-2" transform="translate(7.500000, 7.500000)">
                        <path d="M2.27091073e-16,6.869375 C2.27091073e-16,5.838125 0.9,5 2.04954545,5 L42.9504545,5 C44.0795455,5 45,5.849375 45,6.869375 L45,18.130625 C45,19.161875 44.1,20 42.9504545,20 L2.04954545,20 C0.922517183,19.9979671 0.00785560011,19.1637112 0,18.130625 L2.27091073e-16,6.869375 Z M10,7.5 L10,12.5 L15,12.5 L15,7.5 L10,7.5 Z M2.5,7.5 L2.5,12.5 L7.5,12.5 L7.5,7.5 L2.5,7.5 Z" id="Combined-Shape" fill="#324558" fill-rule="nonzero"></path>
                        <path d="M2.27091073e-16,26.869375 C2.27091073e-16,25.838125 0.9,25 2.04954545,25 L42.9504545,25 C44.0795455,25 45,25.849375 45,26.869375 L45,38.130625 C45,39.161875 44.1,40 42.9504545,40 L2.04954545,40 C0.922517183,39.9979671 0.00785560011,39.1637112 0,38.130625 L2.27091073e-16,26.869375 Z M10,27.5 L10,32.5 L15,32.5 L15,27.5 L10,27.5 Z M2.5,27.5 L2.5,32.5 L7.5,32.5 L7.5,27.5 L2.5,27.5 Z" id="Combined-Shape-Copy" fill="#324558" fill-rule="nonzero"></path>
                        <rect id="Rectangle-43" fill="#B6C2CD" x="20" y="0" width="5" height="5"></rect>
                        <rect id="Rectangle-43-Copy" fill="#B6C2CD" x="20" y="20" width="5" height="5"></rect>
                        <rect id="Rectangle-43-Copy-4" fill="#B6C2CD" x="20" y="40" width="5" height="5"></rect>
                    </g>
                </g>
                <text id="192.168.0.10" font-family="ProximaNova-Regular, Proxima Nova" font-size="16" font-weight="normal" line-spacing="32" fill="#919AA3">
                    <tspan x="75" y="16">192.168.0.10</tspan>
                </text>
                <g id="Group" transform="translate(75.000000, 36.000000)">
                    <rect id="Rectangle-11" fill="#F5A623" fill-rule="nonzero" x="0" y="0" width="80" height="24" rx="4"></rect>
                    <text id="Master" font-family="ProximaNova-Semibold, Proxima Nova" font-size="14" font-weight="500" line-spacing="20" fill="#FFFFFF">
                        <tspan x="19" y="16">Master</tspan>
                    </text>
                </g>
                <g id="Group-Copy" transform="translate(163.000000, 36.000000)">
                    <rect id="Rectangle-11" fill="#F5A623" fill-rule="nonzero" x="0" y="0" width="80" height="24" rx="4"></rect>
                    <text id="Etcd" font-family="ProximaNova-Semibold, Proxima Nova" font-size="14" font-weight="500" line-spacing="20" fill="#FFFFFF">
                        <tspan x="26" y="16">Etcd</tspan>
                    </text>
                </g>
                <g id="Group-Copy-2" transform="translate(251.000000, 36.000000)">
                    <rect id="Rectangle-11" fill="#7E95AD" fill-rule="nonzero" x="0" y="0" width="80" height="24" rx="4"></rect>
                    <text id="Node" font-family="ProximaNova-Semibold, Proxima Nova" font-size="14" font-weight="500" line-spacing="20" fill="#FFFFFF">
                        <tspan x="23" y="16">Node</tspan>
                    </text>
                </g>
            </g>
            <text id="Start-to-deploy-a-3-" font-family="PingFangSC-Regular, PingFang SC" font-size="14" font-weight="normal" line-spacing="32" fill="#55BC8A">
                <tspan x="50" y="190">Start to deploy a 3-node cluster from taskbox</tspan>
            </text>
            <g id="Group-3" transform="translate(0.000000, 207.000000)">
                <g id="Glyph/002.Object/083.Nodes/Black-">
                    <g id="Group-2" transform="translate(7.500000, 7.500000)">
                        <path d="M2.27091073e-16,6.869375 C2.27091073e-16,5.838125 0.9,5 2.04954545,5 L42.9504545,5 C44.0795455,5 45,5.849375 45,6.869375 L45,18.130625 C45,19.161875 44.1,20 42.9504545,20 L2.04954545,20 C0.922517183,19.9979671 0.00785560011,19.1637112 0,18.130625 L2.27091073e-16,6.869375 Z M10,7.5 L10,12.5 L15,12.5 L15,7.5 L10,7.5 Z M2.5,7.5 L2.5,12.5 L7.5,12.5 L7.5,7.5 L2.5,7.5 Z" id="Combined-Shape" fill="#324558" fill-rule="nonzero"></path>
                        <path d="M2.27091073e-16,26.869375 C2.27091073e-16,25.838125 0.9,25 2.04954545,25 L42.9504545,25 C44.0795455,25 45,25.849375 45,26.869375 L45,38.130625 C45,39.161875 44.1,40 42.9504545,40 L2.04954545,40 C0.922517183,39.9979671 0.00785560011,39.1637112 0,38.130625 L2.27091073e-16,26.869375 Z M10,27.5 L10,32.5 L15,32.5 L15,27.5 L10,27.5 Z M2.5,27.5 L2.5,32.5 L7.5,32.5 L7.5,27.5 L2.5,27.5 Z" id="Combined-Shape-Copy" fill="#324558" fill-rule="nonzero"></path>
                        <rect id="Rectangle-43" fill="#B6C2CD" x="20" y="0" width="5" height="5"></rect>
                        <rect id="Rectangle-43-Copy" fill="#B6C2CD" x="20" y="20" width="5" height="5"></rect>
                        <rect id="Rectangle-43-Copy-4" fill="#B6C2CD" x="20" y="40" width="5" height="5"></rect>
                    </g>
                </g>
                <text id="192.168.0.20" font-family="ProximaNova-Regular, Proxima Nova" font-size="16" font-weight="normal" line-spacing="32" fill="#919AA3">
                    <tspan x="75" y="16">192.168.0.20</tspan>
                </text>
                <g id="Group-Copy-2" transform="translate(77.000000, 36.000000)">
                    <rect id="Rectangle-11" fill="#7E95AD" fill-rule="nonzero" x="0" y="0" width="80" height="24" rx="4"></rect>
                    <text id="Node1" font-family="ProximaNova-Semibold, Proxima Nova" font-size="14" font-weight="500" line-spacing="20" fill="#FFFFFF">
                        <tspan x="20" y="16">Node1</tspan>
                    </text>
                </g>
            </g>
            <g id="Group-3-Copy" transform="translate(381.000000, 207.000000)">
                <g id="Glyph/002.Object/083.Nodes/Black-">
                    <g id="Group-2" transform="translate(7.500000, 7.500000)">
                        <path d="M2.27091073e-16,6.869375 C2.27091073e-16,5.838125 0.9,5 2.04954545,5 L42.9504545,5 C44.0795455,5 45,5.849375 45,6.869375 L45,18.130625 C45,19.161875 44.1,20 42.9504545,20 L2.04954545,20 C0.922517183,19.9979671 0.00785560011,19.1637112 0,18.130625 L2.27091073e-16,6.869375 Z M10,7.5 L10,12.5 L15,12.5 L15,7.5 L10,7.5 Z M2.5,7.5 L2.5,12.5 L7.5,12.5 L7.5,7.5 L2.5,7.5 Z" id="Combined-Shape" fill="#324558" fill-rule="nonzero"></path>
                        <path d="M2.27091073e-16,26.869375 C2.27091073e-16,25.838125 0.9,25 2.04954545,25 L42.9504545,25 C44.0795455,25 45,25.849375 45,26.869375 L45,38.130625 C45,39.161875 44.1,40 42.9504545,40 L2.04954545,40 C0.922517183,39.9979671 0.00785560011,39.1637112 0,38.130625 L2.27091073e-16,26.869375 Z M10,27.5 L10,32.5 L15,32.5 L15,27.5 L10,27.5 Z M2.5,27.5 L2.5,32.5 L7.5,32.5 L7.5,27.5 L2.5,27.5 Z" id="Combined-Shape-Copy" fill="#324558" fill-rule="nonzero"></path>
                        <rect id="Rectangle-43" fill="#B6C2CD" x="20" y="0" width="5" height="5"></rect>
                        <rect id="Rectangle-43-Copy" fill="#B6C2CD" x="20" y="20" width="5" height="5"></rect>
                        <rect id="Rectangle-43-Copy-4" fill="#B6C2CD" x="20" y="40" width="5" height="5"></rect>
                    </g>
                </g>
                <text id="192.168.0.30" font-family="ProximaNova-Regular, Proxima Nova" font-size="16" font-weight="normal" line-spacing="32" fill="#919AA3">
                    <tspan x="75" y="16">192.168.0.30</tspan>
                </text>
                <g id="Group-Copy-2" transform="translate(77.000000, 36.000000)">
                    <rect id="Rectangle-11" fill="#7E95AD" fill-rule="nonzero" x="0" y="0" width="80" height="24" rx="4"></rect>
                    <text id="Node2" font-family="ProximaNova-Semibold, Proxima Nova" font-size="14" font-weight="500" line-spacing="20" fill="#FFFFFF">
                        <tspan x="19" y="16">Node2</tspan>
                    </text>
                </g>
            </g>
            <path id="Line-3" d="M30.5,200 L40,181 L21,181 L30.5,200 Z M29,65.5 L29,182.5 L29,184 L32,184 L32,182.5 L32,65.5 L32,64 L29,64 L29,65.5 Z" fill="#55BC8A" fill-rule="nonzero"></path>
            <path id="Line-3-Copy" d="M411.721506,199.666379 L396.965477,184.385358 L390.643072,202.30259 L411.721506,199.666379 Z M30.275875,66.6573483 L394.834055,195.297998 L396.248573,195.797135 L397.246847,192.968098 L395.832329,192.468961 L31.2741494,63.8283117 L29.8596311,63.3291745 L28.8613567,66.1582111 L30.275875,66.6573483 Z" fill="#55BC8A" fill-rule="nonzero"></path>
        </g>
        <text id="Taskbox-can-be-any-n" font-family="PingFangSC-Regular, PingFang SC" font-size="16" font-weight="normal" line-spacing="32" fill="#919AA3">
            <tspan x="233.836" y="354">Taskbox can be any node in the cluster</tspan>
        </text>
    </g>
</svg>