<?xml version="1.0" encoding="UTF-8"?>
<svg width="1160px" height="599px" viewBox="0 0 1160 599" version="1.1" xmlns="http://www.w3.org/2000/svg" xmlns:xlink="http://www.w3.org/1999/xlink">
    <!-- Generator: Sketch 54 (76480) - https://sketchapp.com -->
    <title>ks架构图复制</title>
    <desc>Created with Sketch.</desc>
    <defs>
        <linearGradient x1="51.0127571%" y1="61.5145234%" x2="37.9691982%" y2="35.2829729%" id="linearGradient-1">
            <stop stop-color="#283B4B" offset="0%"></stop>
            <stop stop-color="#121C25" offset="100%"></stop>
        </linearGradient>
        <rect id="path-2" x="0" y="0" width="1160" height="462"></rect>
        <rect id="path-4" x="784" y="340" width="360" height="100"></rect>
        <mask id="mask-5" maskContentUnits="userSpaceOnUse" maskUnits="objectBoundingBox" x="0" y="0" width="360" height="100" fill="white">
            <use xlink:href="#path-4"></use>
        </mask>
        <rect id="path-6" x="16" y="340" width="360" height="100"></rect>
        <mask id="mask-7" maskContentUnits="userSpaceOnUse" maskUnits="objectBoundingBox" x="0" y="0" width="360" height="100" fill="white">
            <use xlink:href="#path-6"></use>
        </mask>
        <rect id="path-8" x="400" y="340" width="360" height="100"></rect>
        <mask id="mask-9" maskContentUnits="userSpaceOnUse" maskUnits="objectBoundingBox" x="0" y="0" width="360" height="100" fill="white">
            <use xlink:href="#path-8"></use>
        </mask>
    </defs>
    <g id="ks架构图复制" stroke="none" stroke-width="1" fill="none" fill-rule="evenodd">
        <g id="Combined-Shape">
            <mask id="mask-3" fill="white">
                <use xlink:href="#path-2"></use>
            </mask>
            <use id="Mask" fill="url(#linearGradient-1)" xlink:href="#path-2"></use>
            <path d="M349.42961,477.00235 L249.035745,412.014801 L249.035745,541.995603 L349.42961,477.00235 Z M349.42961,154.608209 L249.035745,89.6178077 L249.035745,219.59861 L349.42961,154.608209 Z M198.328596,57.9217333 L0.5,186.61025 L0.5,445.401338 L198.328596,574.078312 L198.328596,378.507225 L102.240558,316.0029 L198.328596,253.498576 L198.328596,57.9217333 Z M200.08948,316 L397.5,444.192576 L397.5,187.807424 L200.08948,316 Z" stroke-opacity="0.181102808" stroke="#FFFFFF" opacity="0.6" mask="url(#mask-3)"></path>
        </g>
        <g id="Rectangle-4" stroke-dasharray="4" fill="#B5C2C9" fill-opacity="0.1" stroke="#68747F" stroke-width="2">
            <use mask="url(#mask-5)" xlink:href="#path-4"></use>
        </g>
        <g id="Glyph/002.Object/064.Group/White" transform="translate(816.000000, 370.000000)" fill="#FFFFFF">
            <path d="M20,22.8675091 C20.361676,22.6147084 20.7633734,22.4105479 21.1972363,22.2659269 L25.0047488,20.996756 L29.6695159,20.996756 L33.4770284,22.2659269 C35.3818494,22.9008672 36.6666667,24.6834559 36.6666667,26.6913136 L36.6666667,31.7913638 C33.8730301,32.3455867 30.7005567,32.6586739 27.3371324,32.6586739 C24.7499324,32.6586739 22.2757168,32.4734223 20,32.1356671 C20.6827717,32.0343321 21.3476755,31.9192695 21.9924019,31.7913638 L21.9924019,26.6913136 C21.9924019,25.1407876 21.226217,23.7245981 20,22.8675091 L20,22.8675091 Z" id="Combined-Shape" opacity="0.400000006"></path>
            <path d="M27.3372596,7.34132608 C29.8867128,7.34132608 31.9534529,9.40806623 31.9534529,11.9575194 C31.9534529,12.1269018 31.9441302,12.2961557 31.925527,12.4645134 L31.6276125,15.1606231 C31.3859382,17.3477619 29.5377102,19.0030136 27.3372596,19.0030136 C25.136809,19.0030136 23.288581,17.3477619 23.0469067,15.1606231 L22.7489922,12.4645134 C22.4689871,9.9304833 24.2962354,7.64925705 26.8302656,7.36925199 C26.9986232,7.35064881 27.1678772,7.34132608 27.3372596,7.34132608 Z" id="Path" opacity="0.400000006"></path>
            <path d="M3.33333333,31.7913638 L3.33333333,26.6913136 C3.33333333,24.6834559 4.61815059,22.9008672 6.52297159,22.2659269 L10.3304841,20.996756 L14.9952512,20.996756 L18.8027637,22.2659269 C20.7075847,22.9008672 21.9924019,24.6834559 21.9924019,26.6913136 L21.9924019,31.7913638 C19.1987653,32.3455867 16.026292,32.6586739 12.6628676,32.6586739 C9.29944328,32.6586739 6.12696993,32.3455867 3.33333333,31.7913638 L3.33333333,31.7913638 Z" id="Combined-Shape" opacity="0.900000036"></path>
            <path d="M12.6629949,7.34132608 C15.212448,7.34132608 17.2791882,9.40806623 17.2791882,11.9575194 C17.2791882,12.1269018 17.2698654,12.2961557 17.2512623,12.4645134 L16.9533478,15.1606231 C16.7116735,17.3477619 14.8634454,19.0030136 12.6629949,19.0030136 C10.4625443,19.0030136 8.61431625,17.3477619 8.37264195,15.1606231 L8.07472744,12.4645134 C7.79472237,9.9304833 9.62197071,7.64925705 12.1560008,7.36925199 C12.3243585,7.35064881 12.4936125,7.34132608 12.6629949,7.34132608 Z" id="Path" opacity="0.900000036"></path>
        </g>
        <text id="支持跨集群资源编排/多级组织机构管理" font-family="PingFangSC-Regular, PingFang SC" font-size="14" font-weight="normal" line-spacing="24" fill="#A1A6AB">
            <tspan x="880" y="407">支持跨集群资源编排/多级组织机构管理</tspan>
        </text>
        <text id="多租户" font-family="PingFangSC-Medium, PingFang SC" font-size="16" font-weight="400" fill="#FFFFFF">
            <tspan x="880" y="383">多租户</tspan>
        </text>
        <g id="Rectangle-4-Copy" stroke-dasharray="4" fill="#B5C2C9" fill-opacity="0.1" stroke="#68747F" stroke-width="2">
            <use mask="url(#mask-7)" xlink:href="#path-6"></use>
        </g>
        <g id="Glyph/002.Object/018.Earth/White" transform="translate(48.000000, 370.000000)" fill="#FFFFFF">
            <path d="M5.58627778,15.8333333 L13.1842364,15.8333333 C13.0648012,17.1692044 13.0028489,18.564815 13.0028489,20 C13.0028489,21.435185 13.0648012,22.8307956 13.1842364,24.1666667 L5.58627778,24.1666667 C5.20454593,22.8437921 5,21.4457832 5,20 C5,18.5542168 5.20454593,17.1562079 5.58627778,15.8333333 L5.58627778,15.8333333 Z" id="Path" opacity="0.900000036"></path>
            <path d="M6.55919942,13.3333333 C8.42375899,9.5813845 11.813073,6.72088024 15.9163905,5.56257149 C14.8045418,7.46921005 13.9699747,10.1684074 13.4851298,13.3333333 L6.55919942,13.3333333 L6.55919942,13.3333333 Z" id="Path" opacity="0.400000006"></path>
            <path d="M34.4137222,15.8333333 C34.7954541,17.1562079 35,18.5542168 35,20 C35,21.4457832 34.7954541,22.8437921 34.4137222,24.1666667 L26.8157636,24.1666667 C26.9351988,22.8307956 26.9971511,21.435185 26.9971511,20 C26.9971511,18.564815 26.9351988,17.1692044 26.8157636,15.8333333 L34.4137222,15.8333333 L34.4137222,15.8333333 Z" id="Path" opacity="0.900000036"></path>
            <path d="M33.4408006,13.3333333 L26.5148702,13.3333333 C26.0300253,10.1684074 25.1954582,7.46921005 24.0836095,5.56257149 C28.186927,6.72088024 31.576241,9.5813845 33.4408006,13.3333333 L33.4408006,13.3333333 Z" id="Path" opacity="0.400000006"></path>
            <path d="M15.7056342,15.8333333 L24.2943658,15.8333333 C24.4249331,17.1550159 24.4971511,18.5528954 24.4971511,20 C24.4971511,21.4471046 24.4249331,22.8449841 24.2943658,24.1666667 L15.7056342,24.1666667 C15.5750669,22.8449841 15.5028489,21.4471046 15.5028489,20 C15.5028489,18.5528954 15.5750669,17.1550159 15.7056342,15.8333333 L15.7056342,15.8333333 Z" id="Path" opacity="0.900000036"></path>
            <path d="M16.0348222,13.3333333 C16.8533169,8.41370121 18.4858687,5.04714334 20,5.04714334 C21.5141313,5.04714334 23.1466831,8.41370121 23.9651778,13.3333333 L16.0348222,13.3333333 L16.0348222,13.3333333 Z" id="Path" opacity="0.400000006"></path>
            <path d="M6.55919942,26.6666667 L13.4851298,26.6666667 C13.9699747,29.8315926 14.8045418,32.5307899 15.9163905,34.4374285 C11.813073,33.2791198 8.42375899,30.4186155 6.55919942,26.6666667 L6.55919942,26.6666667 Z" id="Path" opacity="0.400000006"></path>
            <path d="M33.4408006,26.6666667 C31.576241,30.4186155 28.186927,33.2791198 24.0836095,34.4374285 C25.1954582,32.5307899 26.0300253,29.8315926 26.5148702,26.6666667 L33.4408006,26.6666667 L33.4408006,26.6666667 Z" id="Path" opacity="0.400000006"></path>
            <path d="M16.0348222,26.6666667 L23.9651778,26.6666667 C23.1466831,31.5862988 21.5141313,34.9528567 20,34.9528567 C18.4858687,34.9528567 16.8533169,31.5862988 16.0348222,26.6666667 L16.0348222,26.6666667 Z" id="Path" opacity="0.400000006"></path>
        </g>
        <text id="QingCloud-CNI/Calico" font-family="Roboto-Regular, Roboto" font-size="14" font-weight="normal" line-spacing="24" fill="#A1A6AB">
            <tspan x="112" y="405">QingCloud CNI/Calico/Flannel</tspan>
        </text>
        <text id="网络" font-family="PingFangSC-Medium, PingFang SC" font-size="16" font-weight="400" fill="#FFFFFF">
            <tspan x="112" y="383">网络</tspan>
        </text>
        <g id="Rectangle-4" stroke-dasharray="4" fill="#B5C2C9" fill-opacity="0.1" stroke="#68747F" stroke-width="2">
            <use mask="url(#mask-9)" xlink:href="#path-8"></use>
        </g>
        <g id="Group-4" opacity="0.6" transform="translate(491.500000, 363.000000)" fill="#FFFFFF">
            <g id="Glyph/004.Company/004.Kubernets/White">
                <g id="kubernetes-UI" transform="translate(3.333333, 3.333333)">
                    <path d="M28.6189093,28.2854684 L16.9011509,33.3333333 L5.04786491,28.6189093 L0,16.9011509 L4.714424,5.04786491 L16.4321824,0 L28.2854684,4.714424 L33.3333333,16.4321824 L28.6189093,28.2854684 Z M28.0058083,15.9373992 C27.8390879,15.9373992 25.8954501,15.9944068 23.7141013,16.0901366 C23.5915157,14.6026466 23.0011149,13.1921612 22.0275358,12.0608799 C23.0866608,11.0954017 24.1361552,10.1194113 25.1758632,9.13305366 C25.3090049,9.00044498 25.3838481,8.82026879 25.3838481,8.63235451 C25.3838481,8.44444023 25.3090049,8.26426405 25.1758632,8.13165536 C25.0432545,7.99851366 24.8630783,7.92367046 24.675164,7.92367046 C24.4872497,7.92367046 24.3070736,7.99851366 24.1744649,8.13165536 L21.2509412,11.282134 C20.1142666,10.3134706 18.6999345,9.72981381 17.2109283,9.61492953 C17.3066581,7.43358072 17.3647413,5.48994297 17.3647413,5.32322254 C17.3647413,4.930558 17.0464238,4.6122405 16.6537593,4.6122405 C16.2610947,4.6122405 15.9427772,4.930558 15.9427772,5.32322254 C15.9427772,5.48994297 16.0008605,7.43358072 16.0922878,9.61492953 C14.6017375,9.7316157 13.1869008,10.3192476 12.0522749,11.2928902 C11.0883094,10.2393068 10.1151989,9.19412731 9.13305366,8.15747016 C9.00044498,8.02432846 8.82026879,7.94948526 8.63235451,7.94948526 C8.44444023,7.94948526 8.26426405,8.02432846 8.13165536,8.15747016 C7.99851366,8.29007885 7.92367046,8.47025503 7.92367046,8.65816931 C7.92367046,8.84608359 7.99851366,9.02625978 8.13165536,9.15886846 C8.2510487,9.27395937 9.66225663,10.6055717 11.2713779,12.071636 C10.2961205,13.2086264 9.70838945,14.626716 9.59341724,16.1202538 C8.17054986,16.0557208 6.74708297,16.0051644 5.32322254,15.968592 C4.930558,15.968592 4.6122405,16.2869095 4.6122405,16.6795741 C4.6122405,17.0722386 4.930558,17.3905561 5.32322254,17.3905561 C5.48886736,17.3905561 7.42067334,17.3324729 9.59341724,17.2388943 C9.71058663,18.7319055 10.298046,20.1493397 11.2713779,21.2875121 C10.2203767,22.2471643 9.17877246,23.2170574 8.14671401,24.1970528 C8.01337102,24.3293355 7.93836993,24.5093869 7.93836993,24.6972142 C7.93836993,24.8850414 8.01337102,25.0650928 8.14671401,25.1973755 C8.27899671,25.3307185 8.45904812,25.4057196 8.64687534,25.4057196 C8.83470256,25.4057196 9.01475396,25.3307185 9.14703667,25.1973755 C9.26535439,25.0801334 10.5883618,23.6732279 12.0565774,22.0705604 C13.1976731,23.0429638 14.6186833,23.626889 16.1138001,23.7377649 C16.049325,25.1599172 15.9987686,26.5826665 15.9621383,28.0058083 C15.9621383,28.3984729 16.2804558,28.7167904 16.6731204,28.7167904 C17.0657849,28.7167904 17.3841024,28.3984729 17.3841024,28.0058083 C17.3841024,27.8401635 17.3281704,25.9062063 17.2324406,23.7356136 C18.7256565,23.614144 20.1414196,23.0204126 21.2746047,22.0404432 C22.2382617,23.0943112 23.2113748,24.1394934 24.193826,25.1758632 C24.3264346,25.3090049 24.5066108,25.3838481 24.6945251,25.3838481 C24.8824394,25.3838481 25.0626156,25.3090049 25.1952243,25.1758632 C25.3285673,25.0435805 25.4035684,24.8635291 25.4035684,24.6757018 C25.4035684,24.4878746 25.3285673,24.3078232 25.1952243,24.1755405 C25.0779822,24.0582984 23.664623,22.7234592 22.057653,21.2530924 C23.0260375,20.1136902 23.6069057,18.6957993 23.7162526,17.2044746 C25.8954501,17.3002044 27.8390879,17.3582876 28.0058083,17.3582876 C28.3874269,17.3434362 28.689142,17.0297508 28.689142,16.6478434 C28.689142,16.265936 28.3874269,15.9522506 28.0058083,15.9373992 L28.0058083,15.9373992 Z M18.3435517,17.9606325 C18.5792257,17.6559308 18.7269117,17.2924818 18.7705711,16.9097558 C19.7827256,17.0065612 21.2208239,17.0893837 22.6621491,17.1603743 C22.5629375,18.4034704 22.0795279,19.5849295 21.2789072,20.5410347 C20.31761,19.6615803 19.3389657,18.8012771 18.3435517,17.9606325 L18.3435517,17.9606325 Z M18.3252662,15.3479617 C19.3180251,14.5131381 20.2927573,13.6571095 21.2487899,12.7804668 C22.0568276,13.728845 22.5499943,14.9050025 22.6599978,16.1460686 C21.3612246,16.2024316 20.063755,16.2856303 18.7684199,16.3956115 C18.7180535,16.0127746 18.5649111,15.6507342 18.3252662,15.3479617 L18.3252662,15.3479617 Z M16.9076046,14.5627622 C17.0033344,13.5549102 17.0872325,12.1168119 17.1571475,10.6754867 C18.3991194,10.7778253 19.578423,11.2642833 20.5313542,12.0673335 C19.6545952,13.0247837 18.7964515,13.9991156 17.9574056,14.9897816 C17.6541974,14.7522302 17.2905404,14.6043082 16.9076046,14.5627622 L16.9076046,14.5627622 Z M18.1004625,15.5340432 L18.4801549,16.4235775 C18.499516,16.5752393 18.5016672,16.7269012 18.4823061,16.8807142 L18.1176724,17.7767022 L17.7992901,18.1036894 L16.9097559,18.4812305 C16.758094,18.5005916 16.6064322,18.5027428 16.4526191,18.4833817 L15.5566312,18.1176724 L15.2317952,17.8003657 L14.8542541,16.9097558 C14.8341629,16.7584443 14.83344,16.605189 14.8521028,16.4536948 L15.215661,15.5566312 L15.5329676,15.2328708 L16.4235775,14.8553297 C16.5741637,14.8359686 16.7258256,14.8338173 16.8796386,14.8531784 L17.7767022,15.215661 L18.1004625,15.5340432 L18.1004625,15.5340432 Z M12.7718619,12.0759385 C13.7236726,11.2697177 14.9031001,10.7802008 16.1460686,10.6754867 C16.2159837,12.1189631 16.2998817,13.5570614 16.3956115,14.5649134 C16.0132702,14.6147086 15.6517763,14.7679345 15.3501129,15.0080671 C14.5104323,14.0135116 13.6508416,13.0359378 12.7718619,12.0759385 L12.7718619,12.0759385 Z M14.5616866,16.4257287 C13.260993,16.3148642 11.9581429,16.2309482 10.6539744,16.1740346 C10.757306,14.9287947 11.2469093,13.7469027 12.0544261,12.7933742 C13.0158976,13.6722275 13.9941716,14.5325204 14.988706,15.3737765 C14.7535198,15.6791666 14.6059026,16.042818 14.5616866,16.4257287 L14.5616866,16.4257287 Z M15.0102183,17.9832204 C14.2250188,18.6350436 13.1386469,19.5977197 12.0651823,20.5722276 C11.2524311,19.6200482 10.758856,18.4368974 10.6539744,17.1894159 C11.9588587,17.1324945 13.2624255,17.0485786 14.5638378,16.9377219 C14.6133161,17.3109605 14.7606755,17.6702162 15.0102183,17.9832204 L15.0102183,17.9832204 Z M16.42788,18.7694955 C16.3310745,19.7848768 16.2461009,21.2337313 16.1751103,22.6815102 C14.9276751,22.5817479 13.7424684,22.0951814 12.7847693,21.2896633 C13.7592772,20.2140475 14.7219533,19.1276756 15.3770033,18.3424761 C15.6889319,18.5855652 16.0514145,18.7264709 16.42788,18.7694955 L16.42788,18.7694955 Z M20.5636227,21.2616973 C19.6144881,22.0752894 18.4347014,22.571725 17.189416,22.6815102 C17.132558,21.3759062 17.048642,20.0716212 16.9377219,18.7694955 C17.3109605,18.7200172 17.6691406,18.5726578 17.9832204,18.3252662 C18.8234084,19.3214259 19.6837195,20.3004376 20.5636227,21.2616973 L20.5636227,21.2616973 Z" id="Shape" fill-rule="nonzero"></path>
                </g>
            </g>
        </g>
        <g id="Group-4" opacity="0.4" transform="translate(423.000000, 363.000000)" fill="#FFFFFF">
            <g id="Glyph/004.Company/004.Kubernets/White">
                <g id="kubernetes-UI" transform="translate(3.333333, 3.333333)">
                    <path d="M28.6189093,28.2854684 L16.9011509,33.3333333 L5.04786491,28.6189093 L0,16.9011509 L4.714424,5.04786491 L16.4321824,0 L28.2854684,4.714424 L33.3333333,16.4321824 L28.6189093,28.2854684 Z M28.0058083,15.9373992 C27.8390879,15.9373992 25.8954501,15.9944068 23.7141013,16.0901366 C23.5915157,14.6026466 23.0011149,13.1921612 22.0275358,12.0608799 C23.0866608,11.0954017 24.1361552,10.1194113 25.1758632,9.13305366 C25.3090049,9.00044498 25.3838481,8.82026879 25.3838481,8.63235451 C25.3838481,8.44444023 25.3090049,8.26426405 25.1758632,8.13165536 C25.0432545,7.99851366 24.8630783,7.92367046 24.675164,7.92367046 C24.4872497,7.92367046 24.3070736,7.99851366 24.1744649,8.13165536 L21.2509412,11.282134 C20.1142666,10.3134706 18.6999345,9.72981381 17.2109283,9.61492953 C17.3066581,7.43358072 17.3647413,5.48994297 17.3647413,5.32322254 C17.3647413,4.930558 17.0464238,4.6122405 16.6537593,4.6122405 C16.2610947,4.6122405 15.9427772,4.930558 15.9427772,5.32322254 C15.9427772,5.48994297 16.0008605,7.43358072 16.0922878,9.61492953 C14.6017375,9.7316157 13.1869008,10.3192476 12.0522749,11.2928902 C11.0883094,10.2393068 10.1151989,9.19412731 9.13305366,8.15747016 C9.00044498,8.02432846 8.82026879,7.94948526 8.63235451,7.94948526 C8.44444023,7.94948526 8.26426405,8.02432846 8.13165536,8.15747016 C7.99851366,8.29007885 7.92367046,8.47025503 7.92367046,8.65816931 C7.92367046,8.84608359 7.99851366,9.02625978 8.13165536,9.15886846 C8.2510487,9.27395937 9.66225663,10.6055717 11.2713779,12.071636 C10.2961205,13.2086264 9.70838945,14.626716 9.59341724,16.1202538 C8.17054986,16.0557208 6.74708297,16.0051644 5.32322254,15.968592 C4.930558,15.968592 4.6122405,16.2869095 4.6122405,16.6795741 C4.6122405,17.0722386 4.930558,17.3905561 5.32322254,17.3905561 C5.48886736,17.3905561 7.42067334,17.3324729 9.59341724,17.2388943 C9.71058663,18.7319055 10.298046,20.1493397 11.2713779,21.2875121 C10.2203767,22.2471643 9.17877246,23.2170574 8.14671401,24.1970528 C8.01337102,24.3293355 7.93836993,24.5093869 7.93836993,24.6972142 C7.93836993,24.8850414 8.01337102,25.0650928 8.14671401,25.1973755 C8.27899671,25.3307185 8.45904812,25.4057196 8.64687534,25.4057196 C8.83470256,25.4057196 9.01475396,25.3307185 9.14703667,25.1973755 C9.26535439,25.0801334 10.5883618,23.6732279 12.0565774,22.0705604 C13.1976731,23.0429638 14.6186833,23.626889 16.1138001,23.7377649 C16.049325,25.1599172 15.9987686,26.5826665 15.9621383,28.0058083 C15.9621383,28.3984729 16.2804558,28.7167904 16.6731204,28.7167904 C17.0657849,28.7167904 17.3841024,28.3984729 17.3841024,28.0058083 C17.3841024,27.8401635 17.3281704,25.9062063 17.2324406,23.7356136 C18.7256565,23.614144 20.1414196,23.0204126 21.2746047,22.0404432 C22.2382617,23.0943112 23.2113748,24.1394934 24.193826,25.1758632 C24.3264346,25.3090049 24.5066108,25.3838481 24.6945251,25.3838481 C24.8824394,25.3838481 25.0626156,25.3090049 25.1952243,25.1758632 C25.3285673,25.0435805 25.4035684,24.8635291 25.4035684,24.6757018 C25.4035684,24.4878746 25.3285673,24.3078232 25.1952243,24.1755405 C25.0779822,24.0582984 23.664623,22.7234592 22.057653,21.2530924 C23.0260375,20.1136902 23.6069057,18.6957993 23.7162526,17.2044746 C25.8954501,17.3002044 27.8390879,17.3582876 28.0058083,17.3582876 C28.3874269,17.3434362 28.689142,17.0297508 28.689142,16.6478434 C28.689142,16.265936 28.3874269,15.9522506 28.0058083,15.9373992 L28.0058083,15.9373992 Z M18.3435517,17.9606325 C18.5792257,17.6559308 18.7269117,17.2924818 18.7705711,16.9097558 C19.7827256,17.0065612 21.2208239,17.0893837 22.6621491,17.1603743 C22.5629375,18.4034704 22.0795279,19.5849295 21.2789072,20.5410347 C20.31761,19.6615803 19.3389657,18.8012771 18.3435517,17.9606325 L18.3435517,17.9606325 Z M18.3252662,15.3479617 C19.3180251,14.5131381 20.2927573,13.6571095 21.2487899,12.7804668 C22.0568276,13.728845 22.5499943,14.9050025 22.6599978,16.1460686 C21.3612246,16.2024316 20.063755,16.2856303 18.7684199,16.3956115 C18.7180535,16.0127746 18.5649111,15.6507342 18.3252662,15.3479617 L18.3252662,15.3479617 Z M16.9076046,14.5627622 C17.0033344,13.5549102 17.0872325,12.1168119 17.1571475,10.6754867 C18.3991194,10.7778253 19.578423,11.2642833 20.5313542,12.0673335 C19.6545952,13.0247837 18.7964515,13.9991156 17.9574056,14.9897816 C17.6541974,14.7522302 17.2905404,14.6043082 16.9076046,14.5627622 L16.9076046,14.5627622 Z M18.1004625,15.5340432 L18.4801549,16.4235775 C18.499516,16.5752393 18.5016672,16.7269012 18.4823061,16.8807142 L18.1176724,17.7767022 L17.7992901,18.1036894 L16.9097559,18.4812305 C16.758094,18.5005916 16.6064322,18.5027428 16.4526191,18.4833817 L15.5566312,18.1176724 L15.2317952,17.8003657 L14.8542541,16.9097558 C14.8341629,16.7584443 14.83344,16.605189 14.8521028,16.4536948 L15.215661,15.5566312 L15.5329676,15.2328708 L16.4235775,14.8553297 C16.5741637,14.8359686 16.7258256,14.8338173 16.8796386,14.8531784 L17.7767022,15.215661 L18.1004625,15.5340432 L18.1004625,15.5340432 Z M12.7718619,12.0759385 C13.7236726,11.2697177 14.9031001,10.7802008 16.1460686,10.6754867 C16.2159837,12.1189631 16.2998817,13.5570614 16.3956115,14.5649134 C16.0132702,14.6147086 15.6517763,14.7679345 15.3501129,15.0080671 C14.5104323,14.0135116 13.6508416,13.0359378 12.7718619,12.0759385 L12.7718619,12.0759385 Z M14.5616866,16.4257287 C13.260993,16.3148642 11.9581429,16.2309482 10.6539744,16.1740346 C10.757306,14.9287947 11.2469093,13.7469027 12.0544261,12.7933742 C13.0158976,13.6722275 13.9941716,14.5325204 14.988706,15.3737765 C14.7535198,15.6791666 14.6059026,16.042818 14.5616866,16.4257287 L14.5616866,16.4257287 Z M15.0102183,17.9832204 C14.2250188,18.6350436 13.1386469,19.5977197 12.0651823,20.5722276 C11.2524311,19.6200482 10.758856,18.4368974 10.6539744,17.1894159 C11.9588587,17.1324945 13.2624255,17.0485786 14.5638378,16.9377219 C14.6133161,17.3109605 14.7606755,17.6702162 15.0102183,17.9832204 L15.0102183,17.9832204 Z M16.42788,18.7694955 C16.3310745,19.7848768 16.2461009,21.2337313 16.1751103,22.6815102 C14.9276751,22.5817479 13.7424684,22.0951814 12.7847693,21.2896633 C13.7592772,20.2140475 14.7219533,19.1276756 15.3770033,18.3424761 C15.6889319,18.5855652 16.0514145,18.7264709 16.42788,18.7694955 L16.42788,18.7694955 Z M20.5636227,21.2616973 C19.6144881,22.0752894 18.4347014,22.571725 17.189416,22.6815102 C17.132558,21.3759062 17.048642,20.0716212 16.9377219,18.7694955 C17.3109605,18.7200172 17.6691406,18.5726578 17.9832204,18.3252662 C18.8234084,19.3214259 19.6837195,20.3004376 20.5636227,21.2616973 L20.5636227,21.2616973 Z" id="Shape" fill-rule="nonzero"></path>
                </g>
            </g>
        </g>
        <g id="Group-4" opacity="0.4" transform="translate(697.000000, 363.000000)" fill="#FFFFFF">
            <g id="Glyph/004.Company/004.Kubernets/White">
                <g id="kubernetes-UI" transform="translate(3.333333, 3.333333)">
                    <path d="M28.6189093,28.2854684 L16.9011509,33.3333333 L5.04786491,28.6189093 L0,16.9011509 L4.714424,5.04786491 L16.4321824,0 L28.2854684,4.714424 L33.3333333,16.4321824 L28.6189093,28.2854684 Z M28.0058083,15.9373992 C27.8390879,15.9373992 25.8954501,15.9944068 23.7141013,16.0901366 C23.5915157,14.6026466 23.0011149,13.1921612 22.0275358,12.0608799 C23.0866608,11.0954017 24.1361552,10.1194113 25.1758632,9.13305366 C25.3090049,9.00044498 25.3838481,8.82026879 25.3838481,8.63235451 C25.3838481,8.44444023 25.3090049,8.26426405 25.1758632,8.13165536 C25.0432545,7.99851366 24.8630783,7.92367046 24.675164,7.92367046 C24.4872497,7.92367046 24.3070736,7.99851366 24.1744649,8.13165536 L21.2509412,11.282134 C20.1142666,10.3134706 18.6999345,9.72981381 17.2109283,9.61492953 C17.3066581,7.43358072 17.3647413,5.48994297 17.3647413,5.32322254 C17.3647413,4.930558 17.0464238,4.6122405 16.6537593,4.6122405 C16.2610947,4.6122405 15.9427772,4.930558 15.9427772,5.32322254 C15.9427772,5.48994297 16.0008605,7.43358072 16.0922878,9.61492953 C14.6017375,9.7316157 13.1869008,10.3192476 12.0522749,11.2928902 C11.0883094,10.2393068 10.1151989,9.19412731 9.13305366,8.15747016 C9.00044498,8.02432846 8.82026879,7.94948526 8.63235451,7.94948526 C8.44444023,7.94948526 8.26426405,8.02432846 8.13165536,8.15747016 C7.99851366,8.29007885 7.92367046,8.47025503 7.92367046,8.65816931 C7.92367046,8.84608359 7.99851366,9.02625978 8.13165536,9.15886846 C8.2510487,9.27395937 9.66225663,10.6055717 11.2713779,12.071636 C10.2961205,13.2086264 9.70838945,14.626716 9.59341724,16.1202538 C8.17054986,16.0557208 6.74708297,16.0051644 5.32322254,15.968592 C4.930558,15.968592 4.6122405,16.2869095 4.6122405,16.6795741 C4.6122405,17.0722386 4.930558,17.3905561 5.32322254,17.3905561 C5.48886736,17.3905561 7.42067334,17.3324729 9.59341724,17.2388943 C9.71058663,18.7319055 10.298046,20.1493397 11.2713779,21.2875121 C10.2203767,22.2471643 9.17877246,23.2170574 8.14671401,24.1970528 C8.01337102,24.3293355 7.93836993,24.5093869 7.93836993,24.6972142 C7.93836993,24.8850414 8.01337102,25.0650928 8.14671401,25.1973755 C8.27899671,25.3307185 8.45904812,25.4057196 8.64687534,25.4057196 C8.83470256,25.4057196 9.01475396,25.3307185 9.14703667,25.1973755 C9.26535439,25.0801334 10.5883618,23.6732279 12.0565774,22.0705604 C13.1976731,23.0429638 14.6186833,23.626889 16.1138001,23.7377649 C16.049325,25.1599172 15.9987686,26.5826665 15.9621383,28.0058083 C15.9621383,28.3984729 16.2804558,28.7167904 16.6731204,28.7167904 C17.0657849,28.7167904 17.3841024,28.3984729 17.3841024,28.0058083 C17.3841024,27.8401635 17.3281704,25.9062063 17.2324406,23.7356136 C18.7256565,23.614144 20.1414196,23.0204126 21.2746047,22.0404432 C22.2382617,23.0943112 23.2113748,24.1394934 24.193826,25.1758632 C24.3264346,25.3090049 24.5066108,25.3838481 24.6945251,25.3838481 C24.8824394,25.3838481 25.0626156,25.3090049 25.1952243,25.1758632 C25.3285673,25.0435805 25.4035684,24.8635291 25.4035684,24.6757018 C25.4035684,24.4878746 25.3285673,24.3078232 25.1952243,24.1755405 C25.0779822,24.0582984 23.664623,22.7234592 22.057653,21.2530924 C23.0260375,20.1136902 23.6069057,18.6957993 23.7162526,17.2044746 C25.8954501,17.3002044 27.8390879,17.3582876 28.0058083,17.3582876 C28.3874269,17.3434362 28.689142,17.0297508 28.689142,16.6478434 C28.689142,16.265936 28.3874269,15.9522506 28.0058083,15.9373992 L28.0058083,15.9373992 Z M18.3435517,17.9606325 C18.5792257,17.6559308 18.7269117,17.2924818 18.7705711,16.9097558 C19.7827256,17.0065612 21.2208239,17.0893837 22.6621491,17.1603743 C22.5629375,18.4034704 22.0795279,19.5849295 21.2789072,20.5410347 C20.31761,19.6615803 19.3389657,18.8012771 18.3435517,17.9606325 L18.3435517,17.9606325 Z M18.3252662,15.3479617 C19.3180251,14.5131381 20.2927573,13.6571095 21.2487899,12.7804668 C22.0568276,13.728845 22.5499943,14.9050025 22.6599978,16.1460686 C21.3612246,16.2024316 20.063755,16.2856303 18.7684199,16.3956115 C18.7180535,16.0127746 18.5649111,15.6507342 18.3252662,15.3479617 L18.3252662,15.3479617 Z M16.9076046,14.5627622 C17.0033344,13.5549102 17.0872325,12.1168119 17.1571475,10.6754867 C18.3991194,10.7778253 19.578423,11.2642833 20.5313542,12.0673335 C19.6545952,13.0247837 18.7964515,13.9991156 17.9574056,14.9897816 C17.6541974,14.7522302 17.2905404,14.6043082 16.9076046,14.5627622 L16.9076046,14.5627622 Z M18.1004625,15.5340432 L18.4801549,16.4235775 C18.499516,16.5752393 18.5016672,16.7269012 18.4823061,16.8807142 L18.1176724,17.7767022 L17.7992901,18.1036894 L16.9097559,18.4812305 C16.758094,18.5005916 16.6064322,18.5027428 16.4526191,18.4833817 L15.5566312,18.1176724 L15.2317952,17.8003657 L14.8542541,16.9097558 C14.8341629,16.7584443 14.83344,16.605189 14.8521028,16.4536948 L15.215661,15.5566312 L15.5329676,15.2328708 L16.4235775,14.8553297 C16.5741637,14.8359686 16.7258256,14.8338173 16.8796386,14.8531784 L17.7767022,15.215661 L18.1004625,15.5340432 L18.1004625,15.5340432 Z M12.7718619,12.0759385 C13.7236726,11.2697177 14.9031001,10.7802008 16.1460686,10.6754867 C16.2159837,12.1189631 16.2998817,13.5570614 16.3956115,14.5649134 C16.0132702,14.6147086 15.6517763,14.7679345 15.3501129,15.0080671 C14.5104323,14.0135116 13.6508416,13.0359378 12.7718619,12.0759385 L12.7718619,12.0759385 Z M14.5616866,16.4257287 C13.260993,16.3148642 11.9581429,16.2309482 10.6539744,16.1740346 C10.757306,14.9287947 11.2469093,13.7469027 12.0544261,12.7933742 C13.0158976,13.6722275 13.9941716,14.5325204 14.988706,15.3737765 C14.7535198,15.6791666 14.6059026,16.042818 14.5616866,16.4257287 L14.5616866,16.4257287 Z M15.0102183,17.9832204 C14.2250188,18.6350436 13.1386469,19.5977197 12.0651823,20.5722276 C11.2524311,19.6200482 10.758856,18.4368974 10.6539744,17.1894159 C11.9588587,17.1324945 13.2624255,17.0485786 14.5638378,16.9377219 C14.6133161,17.3109605 14.7606755,17.6702162 15.0102183,17.9832204 L15.0102183,17.9832204 Z M16.42788,18.7694955 C16.3310745,19.7848768 16.2461009,21.2337313 16.1751103,22.6815102 C14.9276751,22.5817479 13.7424684,22.0951814 12.7847693,21.2896633 C13.7592772,20.2140475 14.7219533,19.1276756 15.3770033,18.3424761 C15.6889319,18.5855652 16.0514145,18.7264709 16.42788,18.7694955 L16.42788,18.7694955 Z M20.5636227,21.2616973 C19.6144881,22.0752894 18.4347014,22.571725 17.189416,22.6815102 C17.132558,21.3759062 17.048642,20.0716212 16.9377219,18.7694955 C17.3109605,18.7200172 17.6691406,18.5726578 17.9832204,18.3252662 C18.8234084,19.3214259 19.6837195,20.3004376 20.5636227,21.2616973 L20.5636227,21.2616973 Z" id="Shape" fill-rule="nonzero"></path>
                </g>
            </g>
        </g>
        <g id="Glyph/004.Company/004.Kubernets/White" transform="translate(560.000000, 363.000000)" fill="#FFFFFF">
            <g id="kubernetes-UI" transform="translate(3.333333, 3.333333)">
                <path d="M28.6189093,28.2854684 L16.9011509,33.3333333 L5.04786491,28.6189093 L0,16.9011509 L4.714424,5.04786491 L16.4321824,0 L28.2854684,4.714424 L33.3333333,16.4321824 L28.6189093,28.2854684 Z M28.0058083,15.9373992 C27.8390879,15.9373992 25.8954501,15.9944068 23.7141013,16.0901366 C23.5915157,14.6026466 23.0011149,13.1921612 22.0275358,12.0608799 C23.0866608,11.0954017 24.1361552,10.1194113 25.1758632,9.13305366 C25.3090049,9.00044498 25.3838481,8.82026879 25.3838481,8.63235451 C25.3838481,8.44444023 25.3090049,8.26426405 25.1758632,8.13165536 C25.0432545,7.99851366 24.8630783,7.92367046 24.675164,7.92367046 C24.4872497,7.92367046 24.3070736,7.99851366 24.1744649,8.13165536 L21.2509412,11.282134 C20.1142666,10.3134706 18.6999345,9.72981381 17.2109283,9.61492953 C17.3066581,7.43358072 17.3647413,5.48994297 17.3647413,5.32322254 C17.3647413,4.930558 17.0464238,4.6122405 16.6537593,4.6122405 C16.2610947,4.6122405 15.9427772,4.930558 15.9427772,5.32322254 C15.9427772,5.48994297 16.0008605,7.43358072 16.0922878,9.61492953 C14.6017375,9.7316157 13.1869008,10.3192476 12.0522749,11.2928902 C11.0883094,10.2393068 10.1151989,9.19412731 9.13305366,8.15747016 C9.00044498,8.02432846 8.82026879,7.94948526 8.63235451,7.94948526 C8.44444023,7.94948526 8.26426405,8.02432846 8.13165536,8.15747016 C7.99851366,8.29007885 7.92367046,8.47025503 7.92367046,8.65816931 C7.92367046,8.84608359 7.99851366,9.02625978 8.13165536,9.15886846 C8.2510487,9.27395937 9.66225663,10.6055717 11.2713779,12.071636 C10.2961205,13.2086264 9.70838945,14.626716 9.59341724,16.1202538 C8.17054986,16.0557208 6.74708297,16.0051644 5.32322254,15.968592 C4.930558,15.968592 4.6122405,16.2869095 4.6122405,16.6795741 C4.6122405,17.0722386 4.930558,17.3905561 5.32322254,17.3905561 C5.48886736,17.3905561 7.42067334,17.3324729 9.59341724,17.2388943 C9.71058663,18.7319055 10.298046,20.1493397 11.2713779,21.2875121 C10.2203767,22.2471643 9.17877246,23.2170574 8.14671401,24.1970528 C8.01337102,24.3293355 7.93836993,24.5093869 7.93836993,24.6972142 C7.93836993,24.8850414 8.01337102,25.0650928 8.14671401,25.1973755 C8.27899671,25.3307185 8.45904812,25.4057196 8.64687534,25.4057196 C8.83470256,25.4057196 9.01475396,25.3307185 9.14703667,25.1973755 C9.26535439,25.0801334 10.5883618,23.6732279 12.0565774,22.0705604 C13.1976731,23.0429638 14.6186833,23.626889 16.1138001,23.7377649 C16.049325,25.1599172 15.9987686,26.5826665 15.9621383,28.0058083 C15.9621383,28.3984729 16.2804558,28.7167904 16.6731204,28.7167904 C17.0657849,28.7167904 17.3841024,28.3984729 17.3841024,28.0058083 C17.3841024,27.8401635 17.3281704,25.9062063 17.2324406,23.7356136 C18.7256565,23.614144 20.1414196,23.0204126 21.2746047,22.0404432 C22.2382617,23.0943112 23.2113748,24.1394934 24.193826,25.1758632 C24.3264346,25.3090049 24.5066108,25.3838481 24.6945251,25.3838481 C24.8824394,25.3838481 25.0626156,25.3090049 25.1952243,25.1758632 C25.3285673,25.0435805 25.4035684,24.8635291 25.4035684,24.6757018 C25.4035684,24.4878746 25.3285673,24.3078232 25.1952243,24.1755405 C25.0779822,24.0582984 23.664623,22.7234592 22.057653,21.2530924 C23.0260375,20.1136902 23.6069057,18.6957993 23.7162526,17.2044746 C25.8954501,17.3002044 27.8390879,17.3582876 28.0058083,17.3582876 C28.3874269,17.3434362 28.689142,17.0297508 28.689142,16.6478434 C28.689142,16.265936 28.3874269,15.9522506 28.0058083,15.9373992 L28.0058083,15.9373992 Z M18.3435517,17.9606325 C18.5792257,17.6559308 18.7269117,17.2924818 18.7705711,16.9097558 C19.7827256,17.0065612 21.2208239,17.0893837 22.6621491,17.1603743 C22.5629375,18.4034704 22.0795279,19.5849295 21.2789072,20.5410347 C20.31761,19.6615803 19.3389657,18.8012771 18.3435517,17.9606325 L18.3435517,17.9606325 Z M18.3252662,15.3479617 C19.3180251,14.5131381 20.2927573,13.6571095 21.2487899,12.7804668 C22.0568276,13.728845 22.5499943,14.9050025 22.6599978,16.1460686 C21.3612246,16.2024316 20.063755,16.2856303 18.7684199,16.3956115 C18.7180535,16.0127746 18.5649111,15.6507342 18.3252662,15.3479617 L18.3252662,15.3479617 Z M16.9076046,14.5627622 C17.0033344,13.5549102 17.0872325,12.1168119 17.1571475,10.6754867 C18.3991194,10.7778253 19.578423,11.2642833 20.5313542,12.0673335 C19.6545952,13.0247837 18.7964515,13.9991156 17.9574056,14.9897816 C17.6541974,14.7522302 17.2905404,14.6043082 16.9076046,14.5627622 L16.9076046,14.5627622 Z M18.1004625,15.5340432 L18.4801549,16.4235775 C18.499516,16.5752393 18.5016672,16.7269012 18.4823061,16.8807142 L18.1176724,17.7767022 L17.7992901,18.1036894 L16.9097559,18.4812305 C16.758094,18.5005916 16.6064322,18.5027428 16.4526191,18.4833817 L15.5566312,18.1176724 L15.2317952,17.8003657 L14.8542541,16.9097558 C14.8341629,16.7584443 14.83344,16.605189 14.8521028,16.4536948 L15.215661,15.5566312 L15.5329676,15.2328708 L16.4235775,14.8553297 C16.5741637,14.8359686 16.7258256,14.8338173 16.8796386,14.8531784 L17.7767022,15.215661 L18.1004625,15.5340432 L18.1004625,15.5340432 Z M12.7718619,12.0759385 C13.7236726,11.2697177 14.9031001,10.7802008 16.1460686,10.6754867 C16.2159837,12.1189631 16.2998817,13.5570614 16.3956115,14.5649134 C16.0132702,14.6147086 15.6517763,14.7679345 15.3501129,15.0080671 C14.5104323,14.0135116 13.6508416,13.0359378 12.7718619,12.0759385 L12.7718619,12.0759385 Z M14.5616866,16.4257287 C13.260993,16.3148642 11.9581429,16.2309482 10.6539744,16.1740346 C10.757306,14.9287947 11.2469093,13.7469027 12.0544261,12.7933742 C13.0158976,13.6722275 13.9941716,14.5325204 14.988706,15.3737765 C14.7535198,15.6791666 14.6059026,16.042818 14.5616866,16.4257287 L14.5616866,16.4257287 Z M15.0102183,17.9832204 C14.2250188,18.6350436 13.1386469,19.5977197 12.0651823,20.5722276 C11.2524311,19.6200482 10.758856,18.4368974 10.6539744,17.1894159 C11.9588587,17.1324945 13.2624255,17.0485786 14.5638378,16.9377219 C14.6133161,17.3109605 14.7606755,17.6702162 15.0102183,17.9832204 L15.0102183,17.9832204 Z M16.42788,18.7694955 C16.3310745,19.7848768 16.2461009,21.2337313 16.1751103,22.6815102 C14.9276751,22.5817479 13.7424684,22.0951814 12.7847693,21.2896633 C13.7592772,20.2140475 14.7219533,19.1276756 15.3770033,18.3424761 C15.6889319,18.5855652 16.0514145,18.7264709 16.42788,18.7694955 L16.42788,18.7694955 Z M20.5636227,21.2616973 C19.6144881,22.0752894 18.4347014,22.571725 17.189416,22.6815102 C17.132558,21.3759062 17.048642,20.0716212 16.9377219,18.7694955 C17.3109605,18.7200172 17.6691406,18.5726578 17.9832204,18.3252662 C18.8234084,19.3214259 19.6837195,20.3004376 20.5636227,21.2616973 L20.5636227,21.2616973 Z" id="Shape" fill-rule="nonzero"></path>
            </g>
        </g>
        <text id="kubernetes-集群" font-family="Roboto-Medium, Roboto" font-size="16" font-weight="400" fill="#FFFFFF">
            <tspan x="522" y="418">kubernetes </tspan>
            <tspan x="606.09375" y="418" font-family="PingFangSC-Medium, PingFang SC">集群</tspan>
        </text>
        <g id="Group-4-Copy-2" opacity="0.6" transform="translate(628.500000, 363.000000)" fill="#FFFFFF">
            <g id="Glyph/004.Company/004.Kubernets/White">
                <g id="kubernetes-UI" transform="translate(3.333333, 3.333333)">
                    <path d="M28.6189093,28.2854684 L16.9011509,33.3333333 L5.04786491,28.6189093 L0,16.9011509 L4.714424,5.04786491 L16.4321824,0 L28.2854684,4.714424 L33.3333333,16.4321824 L28.6189093,28.2854684 Z M28.0058083,15.9373992 C27.8390879,15.9373992 25.8954501,15.9944068 23.7141013,16.0901366 C23.5915157,14.6026466 23.0011149,13.1921612 22.0275358,12.0608799 C23.0866608,11.0954017 24.1361552,10.1194113 25.1758632,9.13305366 C25.3090049,9.00044498 25.3838481,8.82026879 25.3838481,8.63235451 C25.3838481,8.44444023 25.3090049,8.26426405 25.1758632,8.13165536 C25.0432545,7.99851366 24.8630783,7.92367046 24.675164,7.92367046 C24.4872497,7.92367046 24.3070736,7.99851366 24.1744649,8.13165536 L21.2509412,11.282134 C20.1142666,10.3134706 18.6999345,9.72981381 17.2109283,9.61492953 C17.3066581,7.43358072 17.3647413,5.48994297 17.3647413,5.32322254 C17.3647413,4.930558 17.0464238,4.6122405 16.6537593,4.6122405 C16.2610947,4.6122405 15.9427772,4.930558 15.9427772,5.32322254 C15.9427772,5.48994297 16.0008605,7.43358072 16.0922878,9.61492953 C14.6017375,9.7316157 13.1869008,10.3192476 12.0522749,11.2928902 C11.0883094,10.2393068 10.1151989,9.19412731 9.13305366,8.15747016 C9.00044498,8.02432846 8.82026879,7.94948526 8.63235451,7.94948526 C8.44444023,7.94948526 8.26426405,8.02432846 8.13165536,8.15747016 C7.99851366,8.29007885 7.92367046,8.47025503 7.92367046,8.65816931 C7.92367046,8.84608359 7.99851366,9.02625978 8.13165536,9.15886846 C8.2510487,9.27395937 9.66225663,10.6055717 11.2713779,12.071636 C10.2961205,13.2086264 9.70838945,14.626716 9.59341724,16.1202538 C8.17054986,16.0557208 6.74708297,16.0051644 5.32322254,15.968592 C4.930558,15.968592 4.6122405,16.2869095 4.6122405,16.6795741 C4.6122405,17.0722386 4.930558,17.3905561 5.32322254,17.3905561 C5.48886736,17.3905561 7.42067334,17.3324729 9.59341724,17.2388943 C9.71058663,18.7319055 10.298046,20.1493397 11.2713779,21.2875121 C10.2203767,22.2471643 9.17877246,23.2170574 8.14671401,24.1970528 C8.01337102,24.3293355 7.93836993,24.5093869 7.93836993,24.6972142 C7.93836993,24.8850414 8.01337102,25.0650928 8.14671401,25.1973755 C8.27899671,25.3307185 8.45904812,25.4057196 8.64687534,25.4057196 C8.83470256,25.4057196 9.01475396,25.3307185 9.14703667,25.1973755 C9.26535439,25.0801334 10.5883618,23.6732279 12.0565774,22.0705604 C13.1976731,23.0429638 14.6186833,23.626889 16.1138001,23.7377649 C16.049325,25.1599172 15.9987686,26.5826665 15.9621383,28.0058083 C15.9621383,28.3984729 16.2804558,28.7167904 16.6731204,28.7167904 C17.0657849,28.7167904 17.3841024,28.3984729 17.3841024,28.0058083 C17.3841024,27.8401635 17.3281704,25.9062063 17.2324406,23.7356136 C18.7256565,23.614144 20.1414196,23.0204126 21.2746047,22.0404432 C22.2382617,23.0943112 23.2113748,24.1394934 24.193826,25.1758632 C24.3264346,25.3090049 24.5066108,25.3838481 24.6945251,25.3838481 C24.8824394,25.3838481 25.0626156,25.3090049 25.1952243,25.1758632 C25.3285673,25.0435805 25.4035684,24.8635291 25.4035684,24.6757018 C25.4035684,24.4878746 25.3285673,24.3078232 25.1952243,24.1755405 C25.0779822,24.0582984 23.664623,22.7234592 22.057653,21.2530924 C23.0260375,20.1136902 23.6069057,18.6957993 23.7162526,17.2044746 C25.8954501,17.3002044 27.8390879,17.3582876 28.0058083,17.3582876 C28.3874269,17.3434362 28.689142,17.0297508 28.689142,16.6478434 C28.689142,16.265936 28.3874269,15.9522506 28.0058083,15.9373992 L28.0058083,15.9373992 Z M18.3435517,17.9606325 C18.5792257,17.6559308 18.7269117,17.2924818 18.7705711,16.9097558 C19.7827256,17.0065612 21.2208239,17.0893837 22.6621491,17.1603743 C22.5629375,18.4034704 22.0795279,19.5849295 21.2789072,20.5410347 C20.31761,19.6615803 19.3389657,18.8012771 18.3435517,17.9606325 L18.3435517,17.9606325 Z M18.3252662,15.3479617 C19.3180251,14.5131381 20.2927573,13.6571095 21.2487899,12.7804668 C22.0568276,13.728845 22.5499943,14.9050025 22.6599978,16.1460686 C21.3612246,16.2024316 20.063755,16.2856303 18.7684199,16.3956115 C18.7180535,16.0127746 18.5649111,15.6507342 18.3252662,15.3479617 L18.3252662,15.3479617 Z M16.9076046,14.5627622 C17.0033344,13.5549102 17.0872325,12.1168119 17.1571475,10.6754867 C18.3991194,10.7778253 19.578423,11.2642833 20.5313542,12.0673335 C19.6545952,13.0247837 18.7964515,13.9991156 17.9574056,14.9897816 C17.6541974,14.7522302 17.2905404,14.6043082 16.9076046,14.5627622 L16.9076046,14.5627622 Z M18.1004625,15.5340432 L18.4801549,16.4235775 C18.499516,16.5752393 18.5016672,16.7269012 18.4823061,16.8807142 L18.1176724,17.7767022 L17.7992901,18.1036894 L16.9097559,18.4812305 C16.758094,18.5005916 16.6064322,18.5027428 16.4526191,18.4833817 L15.5566312,18.1176724 L15.2317952,17.8003657 L14.8542541,16.9097558 C14.8341629,16.7584443 14.83344,16.605189 14.8521028,16.4536948 L15.215661,15.5566312 L15.5329676,15.2328708 L16.4235775,14.8553297 C16.5741637,14.8359686 16.7258256,14.8338173 16.8796386,14.8531784 L17.7767022,15.215661 L18.1004625,15.5340432 L18.1004625,15.5340432 Z M12.7718619,12.0759385 C13.7236726,11.2697177 14.9031001,10.7802008 16.1460686,10.6754867 C16.2159837,12.1189631 16.2998817,13.5570614 16.3956115,14.5649134 C16.0132702,14.6147086 15.6517763,14.7679345 15.3501129,15.0080671 C14.5104323,14.0135116 13.6508416,13.0359378 12.7718619,12.0759385 L12.7718619,12.0759385 Z M14.5616866,16.4257287 C13.260993,16.3148642 11.9581429,16.2309482 10.6539744,16.1740346 C10.757306,14.9287947 11.2469093,13.7469027 12.0544261,12.7933742 C13.0158976,13.6722275 13.9941716,14.5325204 14.988706,15.3737765 C14.7535198,15.6791666 14.6059026,16.042818 14.5616866,16.4257287 L14.5616866,16.4257287 Z M15.0102183,17.9832204 C14.2250188,18.6350436 13.1386469,19.5977197 12.0651823,20.5722276 C11.2524311,19.6200482 10.758856,18.4368974 10.6539744,17.1894159 C11.9588587,17.1324945 13.2624255,17.0485786 14.5638378,16.9377219 C14.6133161,17.3109605 14.7606755,17.6702162 15.0102183,17.9832204 L15.0102183,17.9832204 Z M16.42788,18.7694955 C16.3310745,19.7848768 16.2461009,21.2337313 16.1751103,22.6815102 C14.9276751,22.5817479 13.7424684,22.0951814 12.7847693,21.2896633 C13.7592772,20.2140475 14.7219533,19.1276756 15.3770033,18.3424761 C15.6889319,18.5855652 16.0514145,18.7264709 16.42788,18.7694955 L16.42788,18.7694955 Z M20.5636227,21.2616973 C19.6144881,22.0752894 18.4347014,22.571725 17.189416,22.6815102 C17.132558,21.3759062 17.048642,20.0716212 16.9377219,18.7694955 C17.3109605,18.7200172 17.6691406,18.5726578 17.9832204,18.3252662 C18.8234084,19.3214259 19.6837195,20.3004376 20.5636227,21.2616973 L20.5636227,21.2616973 Z" id="Shape" fill-rule="nonzero"></path>
                </g>
            </g>
        </g>
        <g id="编组-9" transform="translate(16.000000, 109.000000)">
            <g id="编组[24h]">
                <g id="编组-11">
                    <polygon id="Rectangle-2" fill-opacity="0.1" fill="#B5C2C9" points="0 0 206 0 206 211 0 211"></polygon>
                    <text id="微服务" font-family="PingFangSC-Medium, PingFang SC" font-size="14" font-weight="400" line-spacing="21" fill="#FFFFFF">
                        <tspan x="16" y="31">微服务</tspan>
                    </text>
                    <text id="服务治理-灰度发布-熔断-限流-智能路由" font-family="PingFangSC-Regular, PingFang SC" font-size="14" font-weight="normal" line-spacing="24" fill="#A1A6AB">
                        <tspan x="16" y="64">服务治理</tspan>
                        <tspan x="72" y="64" font-family="Roboto-Regular, Roboto"></tspan>
                        <tspan x="16" y="88">灰度发布</tspan>
                        <tspan x="72" y="88" font-family="Roboto-Regular, Roboto"></tspan>
                        <tspan x="16" y="112">熔断</tspan>
                        <tspan x="44" y="112" font-family="Roboto-Regular, Roboto"></tspan>
                        <tspan x="16" y="136">限流</tspan>
                        <tspan x="44" y="136" font-family="Roboto-Regular, Roboto"></tspan>
                        <tspan x="16" y="160">智能路由</tspan>
                    </text>
                </g>
                <g id="编组-10" transform="translate(230.000000, 0.000000)">
                    <polygon id="Rectangle-2" fill-opacity="0.1" fill="#B5C2C9" points="0 0 206 0 206 211 0 211"></polygon>
                    <text id="CI/CD" font-family="Roboto-Medium, Roboto" font-size="14" font-weight="400" line-spacing="21" fill="#FFFFFF">
                        <tspan x="16" y="29">CI/CD</tspan>
                    </text>
                    <text id="镜像仓库管理-镜像迁移-Source-t" font-family="PingFangSC-Regular, PingFang SC" font-size="14" font-weight="normal" line-spacing="24" fill="#A1A6AB">
                        <tspan x="16" y="64">镜像仓库管理</tspan>
                        <tspan x="100" y="64" font-family="Roboto-Regular, Roboto"></tspan>
                        <tspan x="16" y="88">镜像迁移</tspan>
                        <tspan x="72" y="88" font-family="Roboto-Regular, Roboto"></tspan>
                        <tspan x="16" y="112" font-family="Roboto-Regular, Roboto">Source to image</tspan>
                        <tspan x="16" y="136">安全扫描</tspan>
                        <tspan x="16" y="160">流水线</tspan>
                    </text>
                </g>
                <g id="编组-12" transform="translate(460.000000, 0.000000)">
                    <polygon id="Rectangle-2" fill-opacity="0.1" fill="#B5C2C9" points="0 0 206 0 206 211 0 211"></polygon>
                    <text id="应用管理" font-family="PingFangSC-Medium, PingFang SC" font-size="14" font-weight="400" line-spacing="21" fill="#FFFFFF">
                        <tspan x="16" y="31">应用管理</tspan>
                    </text>
                    <text id="应用发布-应用部署-版本控制-应用仓库管" font-family="PingFangSC-Regular, PingFang SC" font-size="14" font-weight="normal" line-spacing="24" fill="#A1A6AB">
                        <tspan x="16" y="64">应用发布</tspan>
                        <tspan x="72" y="64" font-family="Roboto-Regular, Roboto"></tspan>
                        <tspan x="16" y="88">应用部署</tspan>
                        <tspan x="72" y="88" font-family="Roboto-Regular, Roboto"></tspan>
                        <tspan x="16" y="112">版本控制</tspan>
                        <tspan x="72" y="112" font-family="Roboto-Regular, Roboto"></tspan>
                        <tspan x="16" y="136">应用仓库管理</tspan>
                    </text>
                </g>
                <g id="编组-13" transform="translate(690.000000, 0.000000)">
                    <polygon id="Rectangle-2-Copy" fill-opacity="0.1" fill="#B5C2C9" points="0 0 206 0 206 211 0 211"></polygon>
                    <text id="监控&amp;日志&amp;告警" font-family="PingFangSC-Medium, PingFang SC" font-size="14" font-weight="400" line-spacing="21" fill="#FFFFFF">
                        <tspan x="16" y="31">监控</tspan>
                        <tspan x="44" y="31" font-family="Roboto-Medium, Roboto">&amp;</tspan>
                        <tspan x="52.9482422" y="31">日志</tspan>
                        <tspan x="80.9482422" y="31" font-family="Roboto-Medium, Roboto">&amp;</tspan>
                        <tspan x="89.8964844" y="31">告警</tspan>
                    </text>
                    <text id="系统及服务监控-系统及服务日志-告警管理" font-family="PingFangSC-Regular, PingFang SC" font-size="14" font-weight="normal" line-spacing="24" fill="#A1A6AB">
                        <tspan x="16" y="64">系统及服务监控</tspan>
                        <tspan x="114" y="64" font-family="Roboto-Regular, Roboto"></tspan>
                        <tspan x="16" y="88">系统及服务日志</tspan>
                        <tspan x="114" y="88" font-family="Roboto-Regular, Roboto"></tspan>
                        <tspan x="16" y="112">告警管理</tspan>
                    </text>
                </g>
                <g id="编组-14" transform="translate(920.000000, 0.000000)">
                    <polygon id="Rectangle-2" fill-opacity="0.1" fill="#B5C2C9" points="0 0 206 0 206 211 0 211"></polygon>
                    <text id="安全" font-family="PingFangSC-Medium, PingFang SC" font-size="14" font-weight="400" line-spacing="21" fill="#FFFFFF">
                        <tspan x="16" y="31">安全</tspan>
                    </text>
                    <text id="用户管理-角色管理-第三方登录认证-密钥" font-family="PingFangSC-Regular, PingFang SC" font-size="14" font-weight="normal" line-spacing="24" fill="#A1A6AB">
                        <tspan x="16" y="64">用户管理</tspan>
                        <tspan x="72" y="64" font-family="Roboto-Regular, Roboto"></tspan>
                        <tspan x="16" y="88">角色管理</tspan>
                        <tspan x="72" y="88" font-family="Roboto-Regular, Roboto"></tspan>
                        <tspan x="16" y="112">第三方登录认证</tspan>
                        <tspan x="114" y="112" font-family="Roboto-Regular, Roboto"></tspan>
                        <tspan x="16" y="136">密钥管理</tspan>
                    </text>
                </g>
            </g>
        </g>
        <g id="编组-2" transform="translate(476.000000, 39.000000)">
            <polygon id="Fill-1" fill="#00A971" points="30.1290708 32.0319027 21.3963274 26.9898673 21.3963274 37.0743805"></polygon>
            <polygon id="Fill-2" fill="#00A971" points="30.1290708 7.47938053 21.3963274 2.43734513 21.3963274 12.5214159"></polygon>
            <polygon id="Fill-3" fill="#00A971" points="8.86548673 19.7557522 17.0871681 15.0088496 17.0871681 2.84217094e-14 9.9475983e-14 9.86504425 9.9475983e-14 29.6464602 17.0871681 39.5110619 17.0871681 24.5026549"></polygon>
            <polygon id="Fill-4" fill="#00A971" points="17.1466372 19.7557522 34.2076991 29.6057522 34.2076991 9.90575221"></polygon>
            <g id="编组" transform="translate(46.017876, 9.136283)" fill="#FFFFFF">
                <path d="M98.0166372,0.172389381 L96.2737168,0.172389381 C95.8927434,0.172389381 95.5754867,0.489646018 95.5754867,0.869734513 L95.5754867,8.98433628 L89.9648673,8.98433628 L89.9648673,0.869734513 C89.9648673,0.489646018 89.679469,0.172389381 89.2675221,0.172389381 L87.5237168,0.172389381 C87.1431858,0.172389381 86.8259292,0.489646018 86.8259292,0.869734513 L86.8259292,20.3347788 C86.8259292,20.7157522 87.1431858,21.0325664 87.5237168,21.0325664 L89.2675221,21.0325664 C89.679469,21.0325664 89.9648673,20.7157522 89.9648673,20.3347788 L89.9648673,12.1228319 L95.5754867,12.1228319 L95.5754867,20.3347788 C95.5754867,20.7157522 95.8927434,21.0325664 96.2737168,21.0325664 L98.0166372,21.0325664 C98.4290265,21.0325664 98.7139823,20.7157522 98.7139823,20.3347788 L98.7139823,0.869734513 C98.7139823,0.489646018 98.4290265,0.172389381 98.0166372,0.172389381" id="Fill-5"></path>
                <path d="M55.9773451,18.5914159 C55.9773451,18.210885 55.6600885,17.8936283 55.28,17.8936283 L47.4069912,17.8940708 L47.4069912,12.1715044 L55.28,12.1715044 C55.6600885,12.1715044 55.9769027,11.8865487 55.9769027,11.4741593 L55.9769027,9.73079646 C55.9769027,9.34982301 55.659646,9.03300885 55.2795575,9.03300885 L47.4069912,9.03300885 L47.4069912,3.31088496 L55.2795575,3.31088496 C55.659646,3.31088496 55.9769027,3.02548673 55.9769027,2.61353982 L55.9769027,0.870176991 C55.9769027,0.48920354 55.659646,0.172389381 55.2795575,0.172389381 L46.7109735,0.172389381 C46.710531,0.172389381 46.7100885,0.172389381 46.709646,0.172389381 L44.9662832,0.172389381 C44.5853097,0.172389381 44.2684956,0.48920354 44.2684956,0.869734513 L44.2684956,20.3347788 C44.2684956,20.7153097 44.5853097,21.0325664 44.9662832,21.0325664 L45.7215929,21.0325664 L45.7229204,21.0325664 L55.28,21.0325664 C55.6600885,21.0325664 55.9773451,20.7471681 55.9773451,20.3347788 L55.9773451,18.5914159 Z" id="Fill-7"></path>
                <path d="M113.65115,18.5914159 C113.65115,18.210885 113.333894,17.8936283 112.953805,17.8936283 L105.080796,17.8940708 L105.080796,12.1715044 L112.953363,12.1715044 C113.333451,12.1715044 113.650708,11.8865487 113.650708,11.4741593 L113.650708,9.73079646 C113.650708,9.34982301 113.333451,9.03300885 112.953363,9.03300885 L105.080796,9.03300885 L105.080796,3.31088496 L112.953363,3.31088496 C113.333451,3.31088496 113.650708,3.02548673 113.650708,2.61353982 L113.650708,0.870176991 C113.650708,0.48920354 113.333451,0.172389381 112.953363,0.172389381 L104.384779,0.172389381 C104.384336,0.172389381 104.383894,0.172389381 104.383451,0.172389381 L102.640088,0.172389381 C102.259115,0.172389381 101.942301,0.48920354 101.942301,0.869734513 L101.942301,20.3347788 C101.942301,20.7153097 102.259115,21.0325664 102.640088,21.0325664 L103.395398,21.0325664 L103.396726,21.0325664 L112.953805,21.0325664 C113.333894,21.0325664 113.65115,20.7471681 113.65115,20.3347788 L113.65115,18.5914159 Z" id="Fill-9"></path>
                <path d="M143.362832,18.5914159 C143.362832,18.210885 143.045575,17.8936283 142.665487,17.8936283 L134.792478,17.8940708 L134.792478,12.1715044 L142.665487,12.1715044 C143.045575,12.1715044 143.362389,11.8865487 143.362389,11.4741593 L143.362389,9.73079646 C143.362389,9.34982301 143.045133,9.03300885 142.665044,9.03300885 L134.792478,9.03300885 L134.792478,3.31088496 L142.665044,3.31088496 C143.045133,3.31088496 143.362389,3.02548673 143.362389,2.61353982 L143.362389,0.870176991 C143.362389,0.48920354 143.045133,0.172389381 142.665044,0.172389381 L134.09646,0.172389381 C134.096018,0.172389381 134.095575,0.172389381 134.095133,0.172389381 L132.35177,0.172389381 C131.971239,0.172389381 131.653982,0.48920354 131.653982,0.869734513 L131.653982,20.3347788 C131.653982,20.7153097 131.971239,21.0325664 132.35177,21.0325664 L133.10708,21.0325664 L133.108407,21.0325664 L142.665487,21.0325664 C143.045575,21.0325664 143.362832,20.7471681 143.362832,20.3347788 L143.362832,18.5914159 Z" id="Fill-11"></path>
                <path d="M61.6738053,5.42057522 L61.6738053,6.61128319 C61.6738053,7.52013274 62.5512389,8.05243363 63.5538938,8.45995575 L67.720708,10.2143805 C69.2875221,10.9042035 70.3844248,12.1254425 70.3844248,14.005531 L70.3844248,16.2298673 C70.3844248,18.0785398 66.4985841,21.1807522 64.4304425,21.1807522 C63.0211504,21.1807522 60.8906195,20.1780973 59.2304425,19.2692478 C58.8538938,19.0816372 58.6034513,18.6422566 58.8229204,18.1413717 L59.3556637,17.075885 C59.5746903,16.6373894 60.0446018,16.5431416 60.4521239,16.7626106 C61.7990265,17.4519912 63.5848673,18.2980088 64.4304425,18.2980088 C65.370708,18.2980088 67.3450442,16.7002212 67.3450442,15.7913717 L67.3450442,14.4130531 C67.3450442,13.3475664 66.5304425,12.7524336 65.4025664,12.3139381 L61.5171681,10.684292 C60.0131858,10.0577434 58.6344248,8.77323009 58.6344248,7.01880531 L58.6344248,4.98207965 C58.6344248,2.94535398 62.7388496,0.000221238938 64.7131858,0.000221238938 C66.029115,0.000221238938 68.159646,0.971460177 69.569823,1.72367257 C70.0083186,1.94314159 70.1335398,2.44446903 69.9450442,2.82013274 L69.4441593,3.88561947 C69.2875221,4.26128319 68.7861947,4.3869469 68.3476991,4.19845133 C67.2822124,3.69756637 65.4963717,2.8829646 64.7131858,2.8829646 C63.8043363,2.8829646 61.6738053,4.3869469 61.6738053,5.42057522" id="Fill-13"></path>
                <path d="M122.861504,2.89880531 L119.786283,2.89880531 L119.786283,9.87358407 L122.89292,9.87358407 C124.19292,9.87358407 125.714602,7.55942478 125.714602,6.32269912 C125.714602,5.11827434 124.129204,2.89880531 122.861504,2.89880531 M122.734513,12.5996903 L119.786283,12.5996903 L119.786283,20.335531 C119.786283,20.7474779 119.500885,21.0324336 119.056637,21.0324336 L117.376991,21.0324336 C116.99646,21.0324336 116.647788,20.7474779 116.647788,20.335531 L116.647788,1.63066372 C116.647788,0.901902655 117.503982,0.172256637 118.201327,0.172256637 L123.273894,0.172256637 C125.587611,0.172256637 128.657522,3.78110619 128.657522,6.15853982 C128.657522,7.74393805 127.268142,10.1266814 125.778319,11.0465929 C126.982743,11.6802212 128.630973,13.3607522 128.630973,14.914292 L128.630973,20.335531 C128.630973,20.7156195 128.314602,21.0324336 127.933628,21.0324336 L126.190265,21.0324336 C125.809735,21.0324336 125.49292,20.7156195 125.49292,20.335531 L125.49292,15.3895133 C125.49292,14.2797788 123.939823,12.5996903 122.734513,12.5996903" id="Fill-15"></path>
                <path d="M79.0466814,2.89880531 L75.9719027,2.89880531 L75.9719027,9.87358407 L79.0780973,9.87358407 C80.3785398,9.87358407 81.7183628,7.55942478 81.7183628,6.32269912 C81.7183628,5.11827434 80.3143805,2.89880531 79.0466814,2.89880531 M78.9201327,12.5996903 L75.9719027,12.5996903 L75.9719027,20.335531 C75.9719027,20.7474779 75.6860619,21.0324336 75.2422566,21.0324336 L73.5621681,21.0324336 C73.1816372,21.0324336 72.8329646,20.7474779 72.8329646,20.335531 L72.8329646,1.63066372 C72.8329646,0.901902655 73.6891593,0.172256637 74.3865044,0.172256637 L79.4590708,0.172256637 C81.7727876,0.172256637 84.7024336,3.89349558 84.7024336,6.2709292 C84.7024336,7.85632743 83.5280973,9.98862832 82.1714602,11.2218142 C81.504646,11.8280088 80.445354,12.5996903 78.9201327,12.5996903" id="Fill-17"></path>
                <path d="M20.510177,21.2173451 C18.4230088,21.2173451 14.5172566,18.5766372 14.5172566,16.2978761 L14.5172566,1.0040708 C14.5172566,0.624424779 14.8637168,0.310265487 15.2455752,0.310265487 L16.9185841,0.310265487 C17.3274336,0.310265487 17.6433628,0.624424779 17.6433628,1.0040708 L17.6433628,15.8881416 C17.6433628,16.9961062 19.529646,18.3390265 20.510177,18.3390265 C21.490708,18.3390265 23.389823,16.8261947 23.389823,15.7182301 L23.389823,0.83460177 C23.389823,0.454513274 23.6738938,0.14079646 24.0557522,0.14079646 L25.7902655,0.14079646 C26.1721239,0.14079646 26.5185841,0.454513274 26.5185841,0.83460177 L26.5185841,16.1284071 C26.5185841,18.3390265 22.5951327,21.2173451 20.510177,21.2173451" id="Fill-19"></path>
                <path d="M35.6175221,18.3062389 L32.649823,18.3062389 L32.649823,11.3314602 L35.6489381,11.3314602 C36.9489381,11.3314602 38.4710619,13.5239381 38.4710619,14.7602212 C38.4710619,15.9650885 36.8856637,18.3062389 35.6175221,18.3062389 L35.6175221,18.3062389 Z M32.649823,2.89871681 L35.6175221,2.89871681 C36.8856637,2.89871681 38.4710619,4.71464602 38.4710619,5.91951327 C38.4710619,7.15579646 36.9489381,9.17482301 35.6489381,9.17482301 L32.649823,9.17482301 L32.649823,2.89871681 Z M38.6776991,10.2535841 C40.1223894,9.30225664 41.5776991,7.45402655 41.5776991,5.91951327 C41.5776991,3.54207965 38.3440708,0.172610619 36.0299115,0.172610619 L31.0644248,0.172610619 C30.3675221,0.172610619 29.5113274,0.901814159 29.5113274,1.63057522 L29.5113274,9.27349558 L29.5113274,19.5739381 L29.5113274,20.3354425 C29.5113274,20.7478319 29.86,21.0323451 30.240531,21.0323451 L31.0644248,21.0323451 L31.9206195,21.0323451 L36.1369912,21.0323451 C38.4511504,21.0323451 41.5776991,17.1380973 41.5776991,14.7602212 C41.5776991,13.2265929 40.1223894,11.215531 38.6776991,10.2535841 L38.6776991,10.2535841 Z" id="Fill-21"></path>
                <path d="M4.82402655,10.7177876 L11.7262389,2.72442478 C11.9749115,2.43637168 11.9665044,2.01026549 11.6545575,1.74079646 L10.334646,0.601415929 C10.0465929,0.352300885 9.59924779,0.385044248 9.35057522,0.673097345 L3.31517699,7.66292035 L3.31517699,0.87 C3.31517699,0.489469027 3.02977876,0.172212389 2.61783186,0.172212389 L0.874026549,0.172212389 C0.493495575,0.172212389 0.176681416,0.489469027 0.176681416,0.87 L0.176681416,20.3354867 C0.176681416,20.7155752 0.493495575,21.0323894 0.874026549,21.0323894 L2.61783186,21.0323894 C3.02977876,21.0323894 3.31517699,20.7155752 3.31517699,20.3354867 L3.31517699,13.7726549 L9.35057522,20.7629204 C9.59924779,21.050531 10.0465929,21.0832743 10.334646,20.8346018 L11.6545575,19.6952212 C11.9665044,19.4253097 11.9749115,18.9992035 11.7262389,18.7115929 L4.82402655,10.7177876 Z" id="Fill-23"></path>
                <path d="M151.228496,1.80057522 L150.367434,1.80057522 L150.367434,2.93995575 L151.228496,2.93995575 C151.506814,2.93995575 151.811239,2.71473451 151.811239,2.38331858 C151.811239,2.02579646 151.506814,1.80057522 151.228496,1.80057522 L151.228496,1.80057522 Z M151.758142,4.62225664 L150.924071,3.35057522 L150.367434,3.35057522 L150.367434,4.62225664 L149.916991,4.62225664 L149.916991,1.40323009 L151.228496,1.40323009 C151.771858,1.40323009 152.274956,1.78730088 152.274956,2.38331858 C152.274956,3.09880531 151.639115,3.33730088 151.453717,3.33730088 L152.314779,4.62225664 L151.758142,4.62225664 Z M150.99,0.621371681 C149.665221,0.621371681 148.605487,1.66827434 148.605487,3.00632743 C148.605487,4.31738938 149.665221,5.39039823 150.99,5.39039823 C152.314779,5.39039823 153.374513,4.31738938 153.374513,3.00632743 C153.374513,1.66827434 152.314779,0.621371681 150.99,0.621371681 L150.99,0.621371681 Z M150.99,5.81429204 C149.44,5.81429204 148.181593,4.55588496 148.181593,3.00632743 C148.181593,1.4430531 149.44,0.197477876 150.99,0.197477876 C152.553274,0.197477876 153.798407,1.4430531 153.798407,3.00632743 C153.798407,4.55588496 152.553274,5.81429204 150.99,5.81429204 L150.99,5.81429204 Z" id="Fill-25"></path>
            </g>
        </g>
        <path d="M563.970563,461 L579.970563,445 L595.970563,461 L1160,461 L1160,600 L0,600 L0,461 L563.970563,461 Z" id="形状结合" fill="#8D99A8"></path>
        <g id="编组-8" transform="translate(16.000000, 481.000000)">
            <rect id="Rectangle-12" fill="#FFFFFF" x="0" y="0" width="260" height="100"></rect>
            <g id="编组-3" transform="translate(80.000000, 26.000000)">
                <text id="物理基础设施" font-family="PingFangSC-Medium, PingFang SC" font-size="16" font-weight="400" fill="#68747F">
                    <tspan x="0" y="17">物理基础设施</tspan>
                </text>
                <text id="物理服务器/裸金属服务器" font-family="PingFangSC-Regular, PingFang SC" font-size="14" font-weight="normal" line-spacing="24" fill="#A1A6AB">
                    <tspan x="0" y="41">物理服务器</tspan>
                    <tspan x="70" y="41" font-family="Roboto-Regular, Roboto">/</tspan>
                    <tspan x="75.7695312" y="41">裸金属服务器</tspan>
                </text>
            </g>
            <g id="Glyph/002.Object/076.Gluster/Black" transform="translate(20.000000, 26.000000)">
                <path d="M24,4 L6,13.998 L6,33.998 L24,44 L42,33.998 L42,13.998 L24,4 Z M10,31.646 L10,16.354 L24,8.576 L38,16.354 L38,31.646 L24,39.424 L10,31.646 Z" id="Page-1" fill="#324558"></path>
                <g id="Page-1" stroke-width="1" transform="translate(13.140000, 12.000000)">
                    <g id="Group-2">
                        <polygon id="Fill-1" fill="#B6C2CD" points="10.8 -0.0006 0 6.0014 0 7.7654 10.822 13.7414 10.822 13.7994 10.826 13.7994 10.842 23.9774 21.6 17.9994 21.6 6.0014"></polygon>
                        <polygon id="Fill-2" fill="#324558" points="0 17.9994 7.862 22.3674 7.852 15.4994 0 11.1674"></polygon>
                    </g>
                </g>
            </g>
        </g>
        <g id="编组-6" transform="translate(296.000000, 481.000000)">
            <rect id="Rectangle-12" fill="#FFFFFF" x="0" y="0" width="260" height="100"></rect>
            <g id="编组-4" transform="translate(80.000000, 26.000000)">
                <text id="物理基础设施" font-family="PingFangSC-Medium, PingFang SC" font-size="16" font-weight="400" fill="#68747F">
                    <tspan x="0" y="17">虚拟机</tspan>
                </text>
                <text id="物理服务器/裸金属服务器" font-family="Roboto-Regular, Roboto" font-size="14" font-weight="normal" line-spacing="24" fill="#A1A6AB">
                    <tspan x="0" y="39">KVM/Vmware</tspan>
                </text>
            </g>
            <g id="Glyph/002.Object/025.Laptop/Black" transform="translate(20.000000, 26.000000)">
                <path d="M10,10 L38,10 C39.1045695,10 40,10.9768333 40,12.1818182 L40,34 L8,34 L8,12.1818182 C8,10.9768333 8.8954305,10 10,10 Z" id="Rectangle" fill="#324558"></path>
                <path d="M4,34 L44,34 L43.3787322,36.4850713 C43.1561487,37.3754053 42.3561825,38 41.4384472,38 L6.56155281,38 C5.64381753,38 4.84385131,37.3754053 4.62126781,36.4850713 L4,34 Z" id="Rectangle-3" fill="#B6C2CD"></path>
            </g>
        </g>
        <g id="编组-7" transform="translate(576.000000, 481.000000)">
            <rect id="Rectangle-12" fill="#FFFFFF" x="0" y="0" width="260" height="100"></rect>
            <g id="编组-5" transform="translate(80.000000, 26.000000)">
                <text id="物理基础设施" font-family="PingFangSC-Medium, PingFang SC" font-size="16" font-weight="400" fill="#68747F">
                    <tspan x="0" y="17">公有云服务商</tspan>
                </text>
                <text id="物理服务器/裸金属服务器" font-family="Roboto-Regular, Roboto" font-size="14" font-weight="normal" line-spacing="24" fill="#A1A6AB">
                    <tspan x="0" y="39">QingCloud</tspan>
                </text>
            </g>
            <g id="Glyph/002.Object/059.Cloud/Black" transform="translate(20.000000, 26.000000)">
                <path d="M24,38 C31.7319865,38 38,31.7319865 38,24 C38,22.8914608 37.8711603,21.8130138 37.6276383,20.7788164 C41.3060278,21.824504 44,25.2089576 44,29.222622 C44,34.070234 40.070234,38 35.222622,38 L35.2159824,37.9999975 L24,38 Z" id="Combined-Shape" fill="#324558"></path>
                <path d="M24,38 L12.7840176,38 C7.93273864,38 4,34.0672614 4,29.2159824 C4,25.1999628 6.69509601,21.8134165 10.3753099,20.7663218 C11.8348713,14.5933569 17.3810177,10 24,10 C31.7319865,10 38,16.2680135 38,24 C38,31.7319865 31.7319865,38 24,38 L24,38 Z" id="Combined-Shape" fill="#B6C2CD"></path>
            </g>
        </g>
        <g id="编组-7复制" transform="translate(876.000000, 481.000000)">
            <rect id="Rectangle-12" fill="#FFFFFF" x="0" y="0" width="264" height="100"></rect>
            <g id="编组-5" transform="translate(80.000000, 26.000000)">
                <text id="存储服务*" font-family="PingFangSC-Medium, PingFang SC" font-size="16" font-weight="400" fill="#68747F">
                    <tspan x="0" y="17">存储服务*</tspan>
                </text>
                <text id="分布式存储/主机存储/块存储" font-family="PingFangSC-Regular, PingFang SC" font-size="14" font-weight="normal" line-spacing="24" fill="#A1A6AB">
                    <tspan x="0" y="41">分布式存储</tspan>
                    <tspan x="70" y="41" font-family="Roboto-Regular, Roboto">/</tspan>
                    <tspan x="75.7695312" y="41">主机存储</tspan>
                    <tspan x="131.769531" y="41" font-family="Roboto-Regular, Roboto">/</tspan>
                    <tspan x="137.539062" y="41">块存储</tspan>
                </text>
            </g>
            <g id="Glyph/002.Object/037.Storage/Black" transform="translate(20.000000, 26.000000)">
                <path d="M8,32 L40,32 L40,40 C40,42.209139 38.209139,44 36,44 L12,44 C9.790861,44 8,42.209139 8,40 L8,32 Z M12,36 L12,40 L18,40 L18,36 L12,36 Z M20,36 L20,40 L26,40 L26,36 L20,36 Z" id="Rectangle" fill="#324558"></path>
                <polygon id="Rectangle-9" fill="#B6C2CD" points="12 4 36 4 40 32 8 32"></polygon>
            </g>
        </g>
        <path d="M856.5,462.970563 L856.5,600" id="直线" stroke="#FFFFFF" stroke-linecap="square" stroke-dasharray="4"></path>
    </g>
</svg>