<svg xmlns="http://www.w3.org/2000/svg" width="11" height="20" viewBox="0 0 11 20">
    <g fill="none" fill-rule="evenodd">
        <path fill="#ADEBB5" d="M5.521 16.29c.99 0 1.792.803 1.792 1.793v.842c0 .594-.481 1.075-1.075 1.075H4.804a1.075 1.075 0 0 1-1.075-1.075v-.842c0-.99.802-1.793 1.792-1.793z"/>
        <path fill="#3D3E49" d="M3.914 8.136c.66 0 .99 1.586.986 4.758a2.65 2.65 0 0 1-2.65 2.646 1.714 1.714 0 0 1-1.566-2.408c1.476-3.33 2.553-4.996 3.23-4.996zM7.596 8.136c-.66 0-.99 1.586-.986 4.758a2.65 2.65 0 0 0 2.65 2.646 1.714 1.714 0 0 0 1.566-2.408c-1.476-3.33-2.553-4.996-3.23-4.996z"/>
        <path fill="#86DBA2" d="M5.593.126a4.642 4.642 0 0 1 2.543 4.14v9.758a2.542 2.542 0 1 1-5.085 0V4.266c0-1.748.983-3.349 2.542-4.14z"/>
        <path fill="#3D3E49" d="M5.678 3.33c.983 0 1.78 1.636 1.78.653a1.78 1.78 0 0 0-3.56 0c0 .983.797-.653 1.78-.653z"/>
    </g>
</svg>
