<svg xmlns="http://www.w3.org/2000/svg" xmlns:xlink="http://www.w3.org/1999/xlink" id="processonSvg1000" viewBox="-38.888888888888886 496.0794246909902 1432.2222222222222 256.9785054460858" width="1432.2222222222222" height="256.9785054460858"><defs id="ProcessOnDefs1001"><marker id="ProcessOnMarker1012" markerUnits="userSpaceOnUse" orient="auto" markerWidth="16.23606797749979" markerHeight="10.550836550532098" viewBox="-1.0 -1.3763819204711736 16.23606797749979 10.550836550532098" refX="-1.0" refY="3.8990363547948754"><path id="ProcessOnPath1013" d="M12.0 3.8990363547948754L0.0 7.798072709589751V0.0Z" stroke="#323232" stroke-width="2.0" fill="#323232" transform="matrix(1.0,0.0,0.0,1.0,0.0,0.0)"/></marker><marker id="ProcessOnMarker1020" markerUnits="userSpaceOnUse" orient="auto" markerWidth="16.23606797749979" markerHeight="10.550836550532098" viewBox="-1.0 -1.3763819204711736 16.23606797749979 10.550836550532098" refX="-1.0" refY="3.8990363547948754"><path id="ProcessOnPath1021" d="M12.0 3.8990363547948754L0.0 7.798072709589751V0.0Z" stroke="#323232" stroke-width="2.0" fill="#323232" transform="matrix(1.0,0.0,0.0,1.0,0.0,0.0)"/></marker><marker id="ProcessOnMarker1034" markerUnits="userSpaceOnUse" orient="auto" markerWidth="16.23606797749979" markerHeight="10.550836550532098" viewBox="-1.0 -1.3763819204711736 16.23606797749979 10.550836550532098" refX="-1.0" refY="3.8990363547948754"><path id="ProcessOnPath1035" d="M12.0 3.8990363547948754L0.0 7.798072709589751V0.0Z" stroke="#323232" stroke-width="2.0" fill="#323232" transform="matrix(1.0,0.0,0.0,1.0,0.0,0.0)"/></marker><marker id="ProcessOnMarker1050" markerUnits="userSpaceOnUse" orient="auto" markerWidth="16.23606797749979" markerHeight="10.550836550532098" viewBox="-1.0 -1.3763819204711736 16.23606797749979 10.550836550532098" refX="-1.0" refY="3.8990363547948754"><path id="ProcessOnPath1051" d="M12.0 3.8990363547948754L0.0 7.798072709589751V0.0Z" stroke="#323232" stroke-width="2.0" fill="#323232" transform="matrix(1.0,0.0,0.0,1.0,0.0,0.0)"/></marker><marker id="ProcessOnMarker1058" markerUnits="userSpaceOnUse" orient="auto" markerWidth="16.23606797749979" markerHeight="10.550836550532098" viewBox="-1.0 -1.3763819204711736 16.23606797749979 10.550836550532098" refX="-1.0" refY="3.8990363547948754"><path id="ProcessOnPath1059" d="M12.0 3.8990363547948754L0.0 7.798072709589751V0.0Z" stroke="#323232" stroke-width="2.0" fill="#323232" transform="matrix(1.0,0.0,0.0,1.0,0.0,0.0)"/></marker><marker id="ProcessOnMarker1072" markerUnits="userSpaceOnUse" orient="auto" markerWidth="16.23606797749979" markerHeight="10.550836550532098" viewBox="-1.0 -1.3763819204711736 16.23606797749979 10.550836550532098" refX="-1.0" refY="3.8990363547948754"><path id="ProcessOnPath1073" d="M12.0 3.8990363547948754L0.0 7.798072709589751V0.0Z" stroke="#323232" stroke-width="2.0" fill="#323232" transform="matrix(1.0,0.0,0.0,1.0,0.0,0.0)"/></marker><marker id="ProcessOnMarker1096" markerUnits="userSpaceOnUse" orient="auto" markerWidth="16.23606797749979" markerHeight="10.550836550532098" viewBox="-1.0 -1.3763819204711736 16.23606797749979 10.550836550532098" refX="-1.0" refY="3.8990363547948754"><path id="ProcessOnPath1097" d="M12.0 3.8990363547948754L0.0 7.798072709589751V0.0Z" stroke="#323232" stroke-width="2.0" fill="#323232" transform="matrix(1.0,0.0,0.0,1.0,0.0,0.0)"/></marker><marker id="ProcessOnMarker1104" markerUnits="userSpaceOnUse" orient="auto" markerWidth="16.23606797749979" markerHeight="10.550836550532098" viewBox="-1.0 -1.3763819204711736 16.23606797749979 10.550836550532098" refX="-1.0" refY="3.8990363547948754"><path id="ProcessOnPath1105" d="M12.0 3.8990363547948754L0.0 7.798072709589751V0.0Z" stroke="#323232" stroke-width="2.0" fill="#323232" transform="matrix(1.0,0.0,0.0,1.0,0.0,0.0)"/></marker><marker id="ProcessOnMarker1112" markerUnits="userSpaceOnUse" orient="auto" markerWidth="16.23606797749979" markerHeight="10.550836550532098" viewBox="-1.0 -1.3763819204711736 16.23606797749979 10.550836550532098" refX="-1.0" refY="3.8990363547948754"><path id="ProcessOnPath1113" d="M12.0 3.8990363547948754L0.0 7.798072709589751V0.0Z" stroke="#323232" stroke-width="2.0" fill="#323232" transform="matrix(1.0,0.0,0.0,1.0,0.0,0.0)"/></marker><marker id="ProcessOnMarker1116" markerUnits="userSpaceOnUse" orient="auto" markerWidth="16.23606797749979" markerHeight="10.550836550532098" viewBox="-1.0 -1.3763819204711736 16.23606797749979 10.550836550532098" refX="-1.0" refY="3.8990363547948754"><path id="ProcessOnPath1117" d="M12.0 3.8990363547948754L0.0 7.798072709589751V0.0Z" stroke="#323232" stroke-width="2.0" fill="#323232" transform="matrix(1.0,0.0,0.0,1.0,0.0,0.0)"/></marker><marker id="ProcessOnMarker1125" markerUnits="userSpaceOnUse" orient="auto" markerWidth="16.23606797749979" markerHeight="10.550836550532098" viewBox="-1.0 -1.3763819204711736 16.23606797749979 10.550836550532098" refX="-1.0" refY="3.8990363547948754"><path id="ProcessOnPath1126" d="M12.0 3.8990363547948754L0.0 7.798072709589751V0.0Z" stroke="#323232" stroke-width="2.0" fill="#323232" transform="matrix(1.0,0.0,0.0,1.0,0.0,0.0)"/></marker></defs><g id="ProcessOnG1002"><path id="ProcessOnPath1003" d="M-38.888888888888886 496.0794246909902H1393.3333333333333V753.057930137076H-38.888888888888914V496.0794246909902Z" fill="none"/><g id="ProcessOnG1004"><g id="ProcessOnG1005" transform="matrix(1.0,0.0,0.0,1.0,117.66355785582981,520.4444444444441)" opacity="1.0"><path id="ProcessOnPath1006" d="M0.0 4.0Q0.0 0.0 4.0 0.0L107.89199769972575 0.0Q111.89199769972575 0.0 111.89199769972575 4.0L111.89199769972575 70.10000000000002Q111.89199769972575 74.10000000000002 107.89199769972575 74.10000000000002L4.0 74.10000000000002Q0.0 74.10000000000002 0.0 70.10000000000002Z" stroke="#323232" stroke-width="2.0" stroke-dasharray="none" fill="#ffffff"/><g id="ProcessOnG1007" transform="matrix(1.0,0.0,0.0,1.0,10.0,20.80000000000001)"><text id="ProcessOnText1008" fill="#323232" font-size="13" x="44.945998849862875" y="13.325" font-family="Arial" font-weight="bold" font-style="normal" text-decoration="none" family="Arial" text-anchor="middle" size="13">Get </text><text id="ProcessOnText1009" fill="#323232" font-size="13" x="44.945998849862875" y="29.575" font-family="Arial" font-weight="bold" font-style="normal" text-decoration="none" family="Arial" text-anchor="middle" size="13">dependencies</text></g></g><g id="ProcessOnG1010"><path id="ProcessOnPath1011" d="M229.55555555555532 557.4944444444441L246.8612155573248 557.4944444444441L246.8612155573248 557.4944444444441L248.93080758159462 557.4944444444441" stroke="#323232" stroke-width="2.0" stroke-dasharray="none" fill="none" marker-end="url(#ProcessOnMarker1012)"/></g><g id="ProcessOnG1014" transform="matrix(1.0,0.0,0.0,1.0,264.1668755590944,520.4444444444441)" opacity="1.0"><path id="ProcessOnPath1015" d="M0.0 4.0Q0.0 0.0 4.0 0.0L78.93428735733876 0.0Q82.93428735733876 0.0 82.93428735733876 4.0L82.93428735733876 70.1Q82.93428735733876 74.1 78.93428735733876 74.1L4.0 74.1Q0.0 74.1 0.0 70.1Z" stroke="#323232" stroke-width="2.0" stroke-dasharray="none" fill="#ffffff"/><g id="ProcessOnG1016" transform="matrix(1.0,0.0,0.0,1.0,10.0,28.924999999999997)"><text id="ProcessOnText1017" fill="#323232" font-size="13" x="30.46714367866938" y="13.325" font-family="Arial" font-weight="bold" font-style="normal" text-decoration="none" family="Arial" text-anchor="middle" size="13">Unit test</text></g></g><g id="ProcessOnG1018"><path id="ProcessOnPath1019" d="M347.10116291643317 557.4944444444441L365.5173632614744 557.4944444444441L365.5173632614744 557.4944444444441L368.69749562901575 557.4944444444441" stroke="#323232" stroke-width="2.0" stroke-dasharray="none" fill="none" marker-end="url(#ProcessOnMarker1020)"/></g><g id="ProcessOnG1022" transform="matrix(1.0,0.0,0.0,1.0,383.9335636065155,523.6201587301583)" opacity="1.0"><path id="ProcessOnPath1023" d="M0.0 4.0Q0.0 0.0 4.0 0.0L124.62199194904008 0.0Q128.62199194904008 0.0 128.62199194904008 4.0L128.62199194904008 63.74857142857138Q128.62199194904008 67.74857142857138 124.62199194904008 67.74857142857138L4.0 67.74857142857138Q0.0 67.74857142857138 0.0 63.74857142857138Z" stroke="#323232" stroke-width="2.0" stroke-dasharray="none" fill="#ffffff"/><g id="ProcessOnG1024" transform="matrix(1.0,0.0,0.0,1.0,10.0,17.62428571428569)"><text id="ProcessOnText1025" fill="#323232" font-size="13" x="53.31099597452004" y="13.325" font-family="Arial" font-weight="bold" font-style="normal" text-decoration="none" family="Arial" text-anchor="middle" size="13">Build and push </text><text id="ProcessOnText1026" fill="#323232" font-size="13" x="53.31099597452004" y="29.575" font-family="Arial" font-weight="bold" font-style="normal" text-decoration="none" family="Arial" text-anchor="middle" size="13">snapshot image</text></g></g><g id="ProcessOnG1027" transform="matrix(1.0,0.0,0.0,1.0,547.2422814247939,523.6201587301583)" opacity="1.0"><path id="ProcessOnPath1028" d="M0.0 4.0Q0.0 0.0 4.0 0.0L96.31327413076167 0.0Q100.31327413076167 0.0 100.31327413076167 4.0L100.31327413076167 63.74857142857138Q100.31327413076167 67.74857142857138 96.31327413076167 67.74857142857138L4.0 67.74857142857138Q0.0 67.74857142857138 0.0 63.74857142857138Z" stroke="#323232" stroke-width="2.0" stroke-dasharray="none" fill="#ffffff"/><g id="ProcessOnG1029" transform="matrix(1.0,0.0,0.0,1.0,10.0,17.62428571428569)"><text id="ProcessOnText1030" fill="#323232" font-size="13" x="39.156637065380835" y="13.325" font-family="Arial" font-weight="bold" font-style="normal" text-decoration="none" family="Arial" text-anchor="middle" size="13">Push latest </text><text id="ProcessOnText1031" fill="#323232" font-size="13" x="39.156637065380835" y="29.575" font-family="Arial" font-weight="bold" font-style="normal" text-decoration="none" family="Arial" text-anchor="middle" size="13">image</text></g></g><g id="ProcessOnG1032"><path id="ProcessOnPath1033" d="M512.5555555555555 557.4944444444441L529.8989184901747 557.4944444444441L529.8989184901747 557.4944444444441L532.006213447294 557.4944444444441" stroke="#323232" stroke-width="2.0" stroke-dasharray="none" fill="none" marker-end="url(#ProcessOnMarker1034)"/></g><g id="ProcessOnG1036" transform="matrix(1.0,0.0,0.0,1.0,692.2222222222222,518.7960951479074)" opacity="1.0"><path id="ProcessOnPath1037" d="M0.0 38.08932467532456L64.78142274362133 0.0L129.56284548724267 38.08932467532456L64.78142274362133 76.17864935064912Z" stroke="#323232" stroke-width="2.0" stroke-dasharray="none" fill="#ffffff"/><g id="ProcessOnG1038" transform="matrix(1.0,0.0,0.0,1.0,10.0,30.345217922077808)"><text id="ProcessOnText1039" fill="#323232" font-size="13" x="53.781422743621334" y="13.325" font-family="Arial" font-weight="bold" font-style="normal" text-decoration="none" family="Arial" text-anchor="middle" size="13"> Deploy to dev ?</text></g></g><g id="ProcessOnG1040" transform="matrix(1.0,0.0,0.0,1.0,879.2360055036568,518.7960951479074)" opacity="1.0"><path id="ProcessOnPath1041" d="M0.0 38.08932467532452L66.91071040625718 0.0L133.82142081251436 38.08932467532452L66.91071040625718 76.17864935064904Z" stroke="#323232" stroke-width="2.0" stroke-dasharray="none" fill="#ffffff"/><g id="ProcessOnG1042" transform="matrix(1.0,0.0,0.0,1.0,10.0,30.345217922077765)"><text id="ProcessOnText1043" fill="#323232" font-size="13" x="55.91071040625718" y="13.325" font-family="Arial" font-weight="bold" font-style="normal" text-decoration="none" family="Arial" text-anchor="middle" size="13"> Push with tag ?</text></g></g><g id="ProcessOnG1044" transform="matrix(1.0,0.0,0.0,1.0,1052.2671904677327,518.2952568447491)" opacity="1.0"><path id="ProcessOnPath1045" d="M0.0 38.16889749648158L88.31084921057811 0.0L176.62169842115622 38.16889749648158L88.31084921057811 76.33779499296315Z" stroke="#323232" stroke-width="2.0" stroke-dasharray="none" fill="#ffffff"/><g id="ProcessOnG1046" transform="matrix(1.0,0.0,0.0,1.0,10.0,30.425586471446394)"><text id="ProcessOnText1047" fill="#323232" font-size="13" x="77.31084921057811" y="13.325" font-family="Arial" font-weight="bold" font-style="normal" text-decoration="none" family="Arial" text-anchor="middle" size="13"> Deploy to production ?</text></g></g><g id="ProcessOnG1048"><path id="ProcessOnPath1049" d="M821.7850677094649 556.885419823232L850.5105366065608 556.885419823232L850.5105366065608 556.885419823232L863.9999375261569 556.885419823232" stroke="#323232" stroke-width="2.0" stroke-dasharray="none" fill="none" marker-end="url(#ProcessOnMarker1050)"/></g><g id="ProcessOnG1052" transform="matrix(1.0,0.0,0.0,1.0,744.1780722717068,520.4992184103126)" opacity="1.0"><path id="ProcessOnPath1053" d="M0.0 0.0L198.47925266130792 0.0L198.47925266130792 44.97727272727262L0.0 44.97727272727262Z" stroke="none" stroke-width="0.0" stroke-dasharray="none" fill="none"/><g id="ProcessOnG1054" transform="matrix(1.0,0.0,0.0,1.0,0.0,14.36363636363631)"><text id="ProcessOnText1055" fill="#323232" font-size="13" x="98.23962633065396" y="13.325" font-family="Arial" font-weight="bold" font-style="normal" text-decoration="none" family="Arial" text-anchor="middle" size="13">yes</text></g></g><g id="ProcessOnG1056"><path id="ProcessOnPath1057" d="M647.5555555555555 557.4944444444441L669.8888888888888 557.4944444444441L669.8888888888888 556.885419823232L676.9861542447223 556.885419823232" stroke="#323232" stroke-width="2.0" stroke-dasharray="none" fill="none" marker-end="url(#ProcessOnMarker1058)"/></g><g id="ProcessOnG1060" transform="matrix(1.0,0.0,0.0,1.0,661.050164259089,615.0128717732875)" opacity="1.0"><path id="ProcessOnPath1061" d="M0.0 0.0L160.0 0.0L160.0 40.0L0.0 40.0Z" stroke="none" stroke-width="0.0" stroke-dasharray="none" fill="none"/><g id="ProcessOnG1062" transform="matrix(1.0,0.0,0.0,1.0,0.0,11.875)"><text id="ProcessOnText1063" fill="#323232" font-size="13" x="79.0" y="13.325" font-family="Arial" font-weight="bold" font-style="normal" text-decoration="none" family="Arial" text-anchor="middle" size="13">no</text></g></g><g id="ProcessOnG1064" transform="matrix(1.0,0.0,0.0,1.0,1147.6125473724856,516.0794246909902)" opacity="1.0"><path id="ProcessOnPath1065" d="M0.0 0.0L198.47925266130792 0.0L198.47925266130792 44.97727272727262L0.0 44.97727272727262Z" stroke="none" stroke-width="0.0" stroke-dasharray="none" fill="none"/><g id="ProcessOnG1066" transform="matrix(1.0,0.0,0.0,1.0,0.0,14.36363636363631)"><text id="ProcessOnText1067" fill="#323232" font-size="13" x="98.23962633065396" y="13.325" font-family="Arial" font-weight="bold" font-style="normal" text-decoration="none" family="Arial" text-anchor="middle" size="13">yes</text></g></g><g id="ProcessOnG1068" transform="matrix(1.0,0.0,0.0,1.0,849.1293118014822,614.6433080808074)" opacity="1.0"><path id="ProcessOnPath1069" d="M0.0 0.0L198.47925266130792 0.0L198.47925266130792 44.97727272727262L0.0 44.97727272727262Z" stroke="none" stroke-width="0.0" stroke-dasharray="none" fill="none"/></g><g id="ProcessOnG1070"><path id="ProcessOnPath1071" d="M944.225691387034 596.6205462662333L944.225691387034 635.6167756583689L944.2170233599754 635.6167756583689L944.2170233599754 659.3769370730047" stroke="#323232" stroke-width="2.0" stroke-dasharray="none" fill="none" marker-end="url(#ProcessOnMarker1072)"/></g><g id="ProcessOnG1074" transform="matrix(1.0,0.0,0.0,1.0,827.3406232650204,617.4677083333327)" opacity="1.0"><path id="ProcessOnPath1075" d="M0.0 0.0L198.47925266130792 0.0L198.47925266130792 44.97727272727262L0.0 44.97727272727262Z" stroke="none" stroke-width="0.0" stroke-dasharray="none" fill="none"/><g id="ProcessOnG1076" transform="matrix(1.0,0.0,0.0,1.0,0.0,14.36363636363631)"><text id="ProcessOnText1077" fill="#323232" font-size="13" x="98.23962633065396" y="13.325" font-family="Arial" font-weight="bold" font-style="normal" text-decoration="none" family="Arial" text-anchor="middle" size="13">no</text></g></g><g id="ProcessOnG1078" transform="matrix(1.0,0.0,0.0,1.0,1023.257282555928,614.6918946408523)" opacity="1.0"><path id="ProcessOnPath1079" d="M0.0 0.0L198.47925266130792 0.0L198.47925266130792 44.97727272727262L0.0 44.97727272727262Z" stroke="none" stroke-width="0.0" stroke-dasharray="none" fill="none"/><g id="ProcessOnG1080" transform="matrix(1.0,0.0,0.0,1.0,0.0,14.36363636363631)"><text id="ProcessOnText1081" fill="#323232" font-size="13" x="98.23962633065396" y="13.325" font-family="Arial" font-weight="bold" font-style="normal" text-decoration="none" family="Arial" text-anchor="middle" size="13">no</text></g></g><g id="ProcessOnG1082" transform="matrix(1.0,0.0,0.0,1.0,694.9567260309741,673.802307290247)" opacity="1.0"><path id="ProcessOnPath1083" d="M18.74053030303026 0.0L105.3090026102872 0.0C130.29637634766087 0.0 130.29637634766087 56.22159090909078 105.3090026102872 56.22159090909078L18.74053030303026 56.22159090909078C-6.246843434343419 56.22159090909078 -6.246843434343419 0.0 18.74053030303026 0.0Z" stroke="#323232" stroke-width="2.0" stroke-dasharray="none" fill="#ffffff"/><g id="ProcessOnG1084" transform="matrix(1.0,0.0,0.0,1.0,10.0,19.98579545454539)"><text id="ProcessOnText1085" fill="#323232" font-size="13" x="51.024766456658725" y="13.325" font-family="Arial" font-weight="bold" font-style="normal" text-decoration="none" family="Arial" text-anchor="middle" size="13">Terminated</text></g></g><g id="ProcessOnG1086" transform="matrix(1.0,0.0,0.0,1.0,882.1922569033167,674.6130050505045)" opacity="1.0"><path id="ProcessOnPath1087" d="M18.74053030303026 0.0L105.3090026102872 0.0C130.29637634766087 0.0 130.29637634766087 56.22159090909078 105.3090026102872 56.22159090909078L18.74053030303026 56.22159090909078C-6.246843434343419 56.22159090909078 -6.246843434343419 0.0 18.74053030303026 0.0Z" stroke="#323232" stroke-width="2.0" stroke-dasharray="none" fill="#ffffff"/><g id="ProcessOnG1088" transform="matrix(1.0,0.0,0.0,1.0,10.0,19.98579545454539)"><text id="ProcessOnText1089" fill="#323232" font-size="13" x="51.024766456658725" y="13.325" font-family="Arial" font-weight="bold" font-style="normal" text-decoration="none" family="Arial" text-anchor="middle" size="13">Terminated</text></g></g><g id="ProcessOnG1090" transform="matrix(1.0,0.0,0.0,1.0,1078.7803544635847,676.8363392279853)" opacity="1.0"><path id="ProcessOnPath1091" d="M18.74053030303026 0.0L105.3090026102872 0.0C130.29637634766087 0.0 130.29637634766087 56.22159090909078 105.3090026102872 56.22159090909078L18.74053030303026 56.22159090909078C-6.246843434343419 56.22159090909078 -6.246843434343419 0.0 18.74053030303026 0.0Z" stroke="#323232" stroke-width="2.0" stroke-dasharray="none" fill="#ffffff"/><g id="ProcessOnG1092" transform="matrix(1.0,0.0,0.0,1.0,10.0,19.98579545454539)"><text id="ProcessOnText1093" fill="#323232" font-size="13" x="51.024766456658725" y="13.325" font-family="Arial" font-weight="bold" font-style="normal" text-decoration="none" family="Arial" text-anchor="middle" size="13">Terminated</text></g></g><g id="ProcessOnG1094"><path id="ProcessOnPath1095" d="M757.0036449658435 594.9747444985566L757.0036449658435 633.0429278048339L757.0036449658435 633.0429278048339L757.0036449658435 655.8750431336113" stroke="#323232" stroke-width="2.0" stroke-dasharray="none" fill="none" marker-end="url(#ProcessOnMarker1096)"/></g><g id="ProcessOnG1098" transform="matrix(1.0,0.0,0.0,1.0,1275.1885738951505,528.2798815190073)" opacity="1.0"><path id="ProcessOnPath1099" d="M18.789515214815612 0.0L79.35524422336714 0.0C104.40793117645461 0.0 104.40793117645461 56.36854564444684 79.35524422336714 56.36854564444684L18.789515214815612 56.36854564444684C-6.263171738271871 56.36854564444684 -6.263171738271871 0.0 18.789515214815612 0.0Z" stroke="#323232" stroke-width="2.0" stroke-dasharray="none" fill="#ffffff"/><g id="ProcessOnG1100" transform="matrix(1.0,0.0,0.0,1.0,10.0,20.05927282222342)"><text id="ProcessOnText1101" fill="#323232" font-size="13" x="38.07237971909137" y="13.325" font-family="Arial" font-weight="bold" font-style="normal" text-decoration="none" family="Arial" text-anchor="middle" size="13">Successful</text></g></g><g id="ProcessOnG1102"><path id="ProcessOnPath1103" d="M1013.0574263161712 556.8854198232319L1032.662308391952 556.8854198232319L1032.662308391952 556.4641543412307L1037.031122490233 556.4641543412307" stroke="#323232" stroke-width="2.0" stroke-dasharray="none" fill="none" marker-end="url(#ProcessOnMarker1104)"/></g><g id="ProcessOnG1106" transform="matrix(1.0,0.0,0.0,1.0,928.7236584835978,516.3277222611787)" opacity="1.0"><path id="ProcessOnPath1107" d="M0.0 0.0L198.47925266130792 0.0L198.47925266130792 44.97727272727262L0.0 44.97727272727262Z" stroke="none" stroke-width="0.0" stroke-dasharray="none" fill="none"/><g id="ProcessOnG1108" transform="matrix(1.0,0.0,0.0,1.0,0.0,14.36363636363631)"><text id="ProcessOnText1109" fill="#323232" font-size="13" x="98.23962633065396" y="13.325" font-family="Arial" font-weight="bold" font-style="normal" text-decoration="none" family="Arial" text-anchor="middle" size="13">yes</text></g></g><g id="ProcessOnG1110"><path id="ProcessOnPath1111" d="M1140.5780396783107 594.6330518377123L1140.5780396783107 635.7346955328487L1140.8051209202433 635.7346955328487L1140.8051209202433 661.6002712504854" stroke="#323232" stroke-width="2.0" stroke-dasharray="none" fill="none" marker-end="url(#ProcessOnMarker1112)"/></g><g id="ProcessOnG1114"><path id="ProcessOnPath1115" d="M1228.888888888889 556.4641543412307L1252.0387313920196 556.4641543412307L1252.0387313920196 556.4641543412307L1259.9525059176508 556.4641543412307" stroke="#323232" stroke-width="2.0" stroke-dasharray="none" fill="none" marker-end="url(#ProcessOnMarker1116)"/></g><g id="ProcessOnG1118" transform="matrix(1.0,0.0,0.0,1.0,-18.88888888888889,527.977934069643)" opacity="1.0"><path id="ProcessOnPath1119" d="M19.281331870357462 0.0L77.38533479630921 0.0C103.09377729011916 0.0 103.09377729011916 57.84399561107239 77.38533479630921 57.84399561107239L19.281331870357462 57.84399561107239C-6.427110623452488 57.84399561107239 -6.427110623452488 0.0 19.281331870357462 0.0Z" stroke="#323232" stroke-width="2.0" stroke-dasharray="none" fill="#ffffff"/><g id="ProcessOnG1120" transform="matrix(1.0,0.0,0.0,1.0,10.0,12.671997805536193)"><text id="ProcessOnText1121" fill="#323232" font-size="13" x="37.333333333333336" y="13.325" font-family="Arial" font-weight="bold" font-style="normal" text-decoration="none" family="Arial" text-anchor="middle" size="13">Checkout </text><text id="ProcessOnText1122" fill="#323232" font-size="13" x="37.333333333333336" y="29.575" font-family="Arial" font-weight="bold" font-style="normal" text-decoration="none" family="Arial" text-anchor="middle" size="13">SCM</text></g></g><g id="ProcessOnG1123"><path id="ProcessOnPath1124" d="M77.77777777777777 556.8999318751792L97.7206678168038 556.8999318751792L97.7206678168038 557.4944444444441L102.42748987833002 557.4944444444441" stroke="#323232" stroke-width="2.0" stroke-dasharray="none" fill="none" marker-end="url(#ProcessOnMarker1125)"/></g></g></g></svg>