<svg xmlns="http://www.w3.org/2000/svg" xmlns:xlink="http://www.w3.org/1999/xlink" id="processonSvg1000" viewBox="77.77777777777774 495.7775724179994 1112.2222222222224 283.1113164708895" width="1112.2222222222224" height="283.1113164708895"><defs id="ProcessOnDefs1001"><marker id="ProcessOnMarker1012" markerUnits="userSpaceOnUse" orient="auto" markerWidth="16.23606797749979" markerHeight="10.550836550532098" viewBox="-1.0 -1.3763819204711736 16.23606797749979 10.550836550532098" refX="-1.0" refY="3.8990363547948754"><path id="ProcessOnPath1013" d="M12.0 3.8990363547948754L0.0 7.798072709589751V0.0Z" stroke="#323232" stroke-width="2.0" fill="#323232" transform="matrix(1.0,0.0,0.0,1.0,0.0,0.0)"/></marker><marker id="ProcessOnMarker1020" markerUnits="userSpaceOnUse" orient="auto" markerWidth="16.23606797749979" markerHeight="10.550836550532098" viewBox="-1.0 -1.3763819204711736 16.23606797749979 10.550836550532098" refX="-1.0" refY="3.8990363547948754"><path id="ProcessOnPath1021" d="M12.0 3.8990363547948754L0.0 7.798072709589751V0.0Z" stroke="#323232" stroke-width="2.0" fill="#323232" transform="matrix(1.0,0.0,0.0,1.0,0.0,0.0)"/></marker><marker id="ProcessOnMarker1033" markerUnits="userSpaceOnUse" orient="auto" markerWidth="16.23606797749979" markerHeight="10.550836550532098" viewBox="-1.0 -1.3763819204711736 16.23606797749979 10.550836550532098" refX="-1.0" refY="3.8990363547948754"><path id="ProcessOnPath1034" d="M12.0 3.8990363547948754L0.0 7.798072709589751V0.0Z" stroke="#323232" stroke-width="2.0" fill="#323232" transform="matrix(1.0,0.0,0.0,1.0,0.0,0.0)"/></marker><marker id="ProcessOnMarker1041" markerUnits="userSpaceOnUse" orient="auto" markerWidth="16.23606797749979" markerHeight="10.550836550532098" viewBox="-1.0 -1.3763819204711736 16.23606797749979 10.550836550532098" refX="-1.0" refY="3.8990363547948754"><path id="ProcessOnPath1042" d="M12.0 3.8990363547948754L0.0 7.798072709589751V0.0Z" stroke="#323232" stroke-width="2.0" fill="#323232" transform="matrix(1.0,0.0,0.0,1.0,0.0,0.0)"/></marker><marker id="ProcessOnMarker1055" markerUnits="userSpaceOnUse" orient="auto" markerWidth="16.23606797749979" markerHeight="10.550836550532098" viewBox="-1.0 -1.3763819204711736 16.23606797749979 10.550836550532098" refX="-1.0" refY="3.8990363547948754"><path id="ProcessOnPath1056" d="M12.0 3.8990363547948754L0.0 7.798072709589751V0.0Z" stroke="#323232" stroke-width="2.0" fill="#323232" transform="matrix(1.0,0.0,0.0,1.0,0.0,0.0)"/></marker><marker id="ProcessOnMarker1068" markerUnits="userSpaceOnUse" orient="auto" markerWidth="16.23606797749979" markerHeight="10.550836550532098" viewBox="-1.0 -1.3763819204711736 16.23606797749979 10.550836550532098" refX="-1.0" refY="3.8990363547948754"><path id="ProcessOnPath1069" d="M12.0 3.8990363547948754L0.0 7.798072709589751V0.0Z" stroke="#323232" stroke-width="2.0" fill="#323232" transform="matrix(1.0,0.0,0.0,1.0,0.0,0.0)"/></marker><marker id="ProcessOnMarker1076" markerUnits="userSpaceOnUse" orient="auto" markerWidth="16.23606797749979" markerHeight="10.550836550532098" viewBox="-1.0 -1.3763819204711736 16.23606797749979 10.550836550532098" refX="-1.0" refY="3.8990363547948754"><path id="ProcessOnPath1077" d="M12.0 3.8990363547948754L0.0 7.798072709589751V0.0Z" stroke="#323232" stroke-width="2.0" fill="#323232" transform="matrix(1.0,0.0,0.0,1.0,0.0,0.0)"/></marker></defs><g id="ProcessOnG1002"><path id="ProcessOnPath1003" d="M77.77777777777774 495.7775724179994H1190.0000000000002V778.8888888888889H77.77777777777783V495.7775724179994Z" fill="none"/><g id="ProcessOnG1004"><g id="ProcessOnG1005" transform="matrix(1.0,0.0,0.0,1.0,241.5781292685867,517.0263925300487)" opacity="1.0"><path id="ProcessOnPath1006" d="M0.0 4.0Q0.0 0.0 4.0 0.0L113.83097983084403 0.0Q117.83097983084403 0.0 117.83097983084403 4.0L117.83097983084403 81.28493072527336Q117.83097983084403 85.28493072527336 113.83097983084403 85.28493072527336L4.0 85.28493072527336Q0.0 85.28493072527336 0.0 81.28493072527336Z" stroke="#323232" stroke-width="2.0" stroke-dasharray="none" fill="#ffffff"/><g id="ProcessOnG1007" transform="matrix(1.0,0.0,0.0,1.0,10.0,26.392465362636678)"><text id="ProcessOnText1008" fill="#323232" font-size="13" x="47.915489915422015" y="13.325" font-family="Arial" font-weight="bold" font-style="normal" text-decoration="none" family="Arial" text-anchor="middle" size="13">Get </text><text id="ProcessOnText1009" fill="#323232" font-size="13" x="47.915489915422015" y="29.575" font-family="Arial" font-weight="bold" font-style="normal" text-decoration="none" family="Arial" text-anchor="middle" size="13">dependencies</text></g></g><g id="ProcessOnG1010"><path id="ProcessOnPath1011" d="M359.4091090994305 559.6688578926853L377.633315624907 559.6688578926853L377.633315624907 559.6688578926853L380.6214541728838 559.6688578926853" stroke="#323232" stroke-width="2.0" stroke-dasharray="none" fill="none" marker-end="url(#ProcessOnMarker1012)"/></g><g id="ProcessOnG1014" transform="matrix(1.0,0.0,0.0,1.0,395.85752215038355,517.0263925300487)" opacity="1.0"><path id="ProcessOnPath1015" d="M0.0 4.0Q0.0 0.0 4.0 0.0L83.33625765725299 0.0Q87.33625765725299 0.0 87.33625765725299 4.0L87.33625765725299 81.28493072527331Q87.33625765725299 85.28493072527331 83.33625765725299 85.28493072527331L4.0 85.28493072527331Q0.0 85.28493072527331 0.0 81.28493072527331Z" stroke="#323232" stroke-width="2.0" stroke-dasharray="none" fill="#ffffff"/><g id="ProcessOnG1016" transform="matrix(1.0,0.0,0.0,1.0,10.0,34.517465362636656)"><text id="ProcessOnText1017" fill="#323232" font-size="13" x="32.66812882862649" y="13.325" font-family="Arial" font-weight="bold" font-style="normal" text-decoration="none" family="Arial" text-anchor="middle" size="13">Unit test</text></g></g><g id="ProcessOnG1018"><path id="ProcessOnPath1019" d="M483.19377980763653 559.6688578926853L505.636762090121 559.6688578926853L505.636762090121 559.6688578926853L512.8436763951057 559.6688578926853" stroke="#323232" stroke-width="2.0" stroke-dasharray="none" fill="none" marker-end="url(#ProcessOnMarker1020)"/></g><g id="ProcessOnG1022" transform="matrix(1.0,0.0,0.0,1.0,676.6666666666666,520.609423524921)" opacity="1.0"><path id="ProcessOnPath1023" d="M0.0 4.0Q0.0 0.0 4.0 0.0L142.26230010959364 0.0Q146.26230010959364 0.0 146.26230010959364 4.0L146.26230010959364 73.97479380596405Q146.26230010959364 77.97479380596405 142.26230010959364 77.97479380596405L4.0 77.97479380596405Q0.0 77.97479380596405 0.0 73.97479380596405Z" stroke="#323232" stroke-width="2.0" stroke-dasharray="none" fill="#ffffff"/><g id="ProcessOnG1024" transform="matrix(1.0,0.0,0.0,1.0,10.0,22.737396902982027)"><text id="ProcessOnText1025" fill="#323232" font-size="13" x="62.13115005479682" y="13.325" font-family="Arial" font-weight="bold" font-style="normal" text-decoration="none" family="Arial" text-anchor="middle" size="13">Build and push </text><text id="ProcessOnText1026" fill="#323232" font-size="13" x="62.13115005479682" y="29.575" font-family="Arial" font-weight="bold" font-style="normal" text-decoration="none" family="Arial" text-anchor="middle" size="13">snapshot image</text></g></g><g id="ProcessOnG1027" transform="matrix(1.0,0.0,0.0,1.0,869.9664422643212,515.7775724179994)" opacity="1.0"><path id="ProcessOnPath1028" d="M0.0 43.83866958579621L68.21987875488378 0.0L136.43975750976756 43.83866958579621L68.21987875488378 87.67733917159242Z" stroke="#323232" stroke-width="2.0" stroke-dasharray="none" fill="#ffffff"/><g id="ProcessOnG1029" transform="matrix(1.0,0.0,0.0,1.0,10.0,36.152056281654176)"><text id="ProcessOnText1030" fill="#323232" font-size="13" x="57.21987875488378" y="13.325" font-family="Arial" font-weight="bold" font-style="normal" text-decoration="none" family="Arial" text-anchor="middle" size="13"> Deploy to dev ?</text></g></g><g id="ProcessOnG1031"><path id="ProcessOnPath1032" d="M1006.4061997740889 559.6162420037957L1036.5260657487404 559.6162420037957L1036.5260657487404 559.7336916109894L1051.4098637458922 559.7336916109894" stroke="#323232" stroke-width="2.0" stroke-dasharray="none" fill="none" marker-end="url(#ProcessOnMarker1033)"/></g><g id="ProcessOnG1035" transform="matrix(1.0,0.0,0.0,1.0,924.6799950217245,517.7377714659187)" opacity="1.0"><path id="ProcessOnPath1036" d="M0.0 0.0L209.01409661070778 0.0L209.01409661070778 51.76631023963793L0.0 51.76631023963793Z" stroke="none" stroke-width="0.0" stroke-dasharray="none" fill="none"/><g id="ProcessOnG1037" transform="matrix(1.0,0.0,0.0,1.0,0.0,17.758155119818966)"><text id="ProcessOnText1038" fill="#323232" font-size="13" x="103.50704830535389" y="13.325" font-family="Arial" font-weight="bold" font-style="normal" text-decoration="none" family="Arial" text-anchor="middle" size="13">yes</text></g></g><g id="ProcessOnG1039"><path id="ProcessOnPath1040" d="M822.9289667762603 559.5968204279031L846.4477045202907 559.5968204279031L846.4477045202907 559.6162420037957L854.7303742868214 559.6162420037957" stroke="#323232" stroke-width="2.0" stroke-dasharray="none" fill="none" marker-end="url(#ProcessOnMarker1041)"/></g><g id="ProcessOnG1043" transform="matrix(1.0,0.0,0.0,1.0,837.1398397489489,626.5176686272389)" opacity="1.0"><path id="ProcessOnPath1044" d="M0.0 0.0L168.4924495094724 0.0L168.4924495094724 46.03774937936482L0.0 46.03774937936482Z" stroke="none" stroke-width="0.0" stroke-dasharray="none" fill="none"/><g id="ProcessOnG1045" transform="matrix(1.0,0.0,0.0,1.0,0.0,14.89387468968241)"><text id="ProcessOnText1046" fill="#323232" font-size="13" x="83.2462247547362" y="13.325" font-family="Arial" font-weight="bold" font-style="normal" text-decoration="none" family="Arial" text-anchor="middle" size="13">no</text></g></g><g id="ProcessOnG1047" transform="matrix(1.0,0.0,0.0,1.0,887.7709231223569,629.5664714342715)" opacity="1.0"><path id="ProcessOnPath1048" d="M0.0 0.0L209.01409661070778 0.0L209.01409661070778 51.76631023963793L0.0 51.76631023963793Z" stroke="none" stroke-width="0.0" stroke-dasharray="none" fill="none"/></g><g id="ProcessOnG1049" transform="matrix(1.0,0.0,0.0,1.0,872.8460875451312,694.1810010893415)" opacity="1.0"><path id="ProcessOnPath1050" d="M21.569295933182474 0.0L109.06451444850987 0.0C137.82357569275317 0.0 137.82357569275317 64.70788779954742 109.06451444850987 64.70788779954742L21.569295933182474 64.70788779954742C-7.189765311060825 64.70788779954742 -7.189765311060825 0.0 21.569295933182474 0.0Z" stroke="#323232" stroke-width="2.0" stroke-dasharray="none" fill="#ffffff"/><g id="ProcessOnG1051" transform="matrix(1.0,0.0,0.0,1.0,10.0,24.22894389977371)"><text id="ProcessOnText1052" fill="#323232" font-size="13" x="54.31690519084617" y="13.325" font-family="Arial" font-weight="bold" font-style="normal" text-decoration="none" family="Arial" text-anchor="middle" size="13">Terminated</text></g></g><g id="ProcessOnG1053"><path id="ProcessOnPath1054" d="M938.186321019205 603.4549115895919L938.186321019205 647.2692486491446L938.1863210192049 647.2692486491446L938.1863210192049 675.8475177311976" stroke="#323232" stroke-width="2.0" stroke-dasharray="none" fill="none" marker-end="url(#ProcessOnMarker1055)"/></g><g id="ProcessOnG1057" transform="matrix(1.0,0.0,0.0,1.0,1066.6459317233919,527.2951793952602)" opacity="1.0"><path id="ProcessOnPath1058" d="M21.62567481048608 0.0L81.7283934661222 0.0C110.5626265467703 0.0 110.5626265467703 64.87702443145824 81.7283934661222 64.87702443145824L21.62567481048608 64.87702443145824C-7.208558270162026 64.87702443145824 -7.208558270162026 0.0 21.62567481048608 0.0Z" stroke="#323232" stroke-width="2.0" stroke-dasharray="none" fill="#ffffff"/><g id="ProcessOnG1059" transform="matrix(1.0,0.0,0.0,1.0,10.0,24.31351221572912)"><text id="ProcessOnText1060" fill="#323232" font-size="13" x="40.67703413830414" y="13.325" font-family="Arial" font-weight="bold" font-style="normal" text-decoration="none" family="Arial" text-anchor="middle" size="13">Successful</text></g></g><g id="ProcessOnG1061" transform="matrix(1.0,0.0,0.0,1.0,97.77777777777774,525.6970152129725)" opacity="1.0"><path id="ProcessOnPath1062" d="M22.191728108696907 0.0L79.60579346994268 0.0C109.19476428153855 0.0 109.19476428153855 66.57518432609072 79.60579346994268 66.57518432609072L22.191728108696907 66.57518432609072C-7.397242702898969 66.57518432609072 -7.397242702898969 0.0 22.191728108696907 0.0Z" stroke="#323232" stroke-width="2.0" stroke-dasharray="none" fill="#ffffff"/><g id="ProcessOnG1063" transform="matrix(1.0,0.0,0.0,1.0,10.0,17.03759216304536)"><text id="ProcessOnText1064" fill="#323232" font-size="13" x="39.898760789319795" y="13.325" font-family="Arial" font-weight="bold" font-style="normal" text-decoration="none" family="Arial" text-anchor="middle" size="13">Checkout </text><text id="ProcessOnText1065" fill="#323232" font-size="13" x="39.898760789319795" y="29.575" font-family="Arial" font-weight="bold" font-style="normal" text-decoration="none" family="Arial" text-anchor="middle" size="13">SCM</text></g></g><g id="ProcessOnG1066"><path id="ProcessOnPath1067" d="M199.57529935641736 558.9846073760178L220.57671431250202 558.9846073760178L220.57671431250202 559.6688578926853L226.3420612910869 559.6688578926853" stroke="#323232" stroke-width="2.0" stroke-dasharray="none" fill="none" marker-end="url(#ProcessOnMarker1068)"/></g><g id="ProcessOnG1070" transform="matrix(1.0,0.0,0.0,1.0,528.0797443726055,516.4506219812714)" opacity="1.0"><path id="ProcessOnPath1071" d="M0.0 4.0Q0.0 0.0 4.0 0.0L83.47581118295034 0.0Q87.47581118295034 0.0 87.47581118295034 4.0L87.47581118295034 82.4364718228278Q87.47581118295034 86.4364718228278 83.47581118295034 86.4364718228278L4.0 86.4364718228278Q0.0 86.4364718228278 0.0 82.4364718228278Z" stroke="#323232" stroke-width="2.0" stroke-dasharray="none" fill="#ffffff"/><g id="ProcessOnG1072" transform="matrix(1.0,0.0,0.0,1.0,10.0,35.0932359114139)"><text id="ProcessOnText1073" fill="#323232" font-size="13" x="32.73790559147517" y="13.325" font-family="Arial" font-weight="bold" font-style="normal" text-decoration="none" family="Arial" text-anchor="middle" size="13">Build</text></g></g><g id="ProcessOnG1074"><path id="ProcessOnPath1075" d="M615.5555555555559 559.6688578926853L646.1111111111113 559.6688578926853L646.1111111111113 559.596820427903L661.4305986891668 559.596820427903" stroke="#323232" stroke-width="2.0" stroke-dasharray="none" fill="none" marker-end="url(#ProcessOnMarker1076)"/></g></g></g></svg>