<svg xmlns="http://www.w3.org/2000/svg" xmlns:xlink="http://www.w3.org/1999/xlink" id="processonSvg1000" viewBox="203.0 55.0 596.0 507.0" width="596.0" height="507.0"><defs id="ProcessOnDefs1001"><marker id="ProcessOnMarker1057" markerUnits="userSpaceOnUse" orient="auto" markerWidth="16.23606797749979" markerHeight="10.550836550532098" viewBox="-1.0 -1.3763819204711736 16.23606797749979 10.550836550532098" refX="-1.0" refY="3.8990363547948754"><path id="ProcessOnPath1058" d="M12.0 3.8990363547948754L0.0 7.798072709589751V0.0Z" stroke="#323232" stroke-width="2.0" fill="#323232" transform="matrix(1.0,0.0,0.0,1.0,0.0,0.0)"/></marker><marker id="ProcessOnMarker1061" markerUnits="userSpaceOnUse" orient="auto" markerWidth="16.23606797749979" markerHeight="10.550836550532098" viewBox="-1.0 -1.3763819204711736 16.23606797749979 10.550836550532098" refX="-1.0" refY="3.8990363547948754"><path id="ProcessOnPath1062" d="M12.0 3.8990363547948754L0.0 7.798072709589751V0.0Z" stroke="#323232" stroke-width="2.0" fill="#323232" transform="matrix(1.0,0.0,0.0,1.0,0.0,0.0)"/></marker><marker id="ProcessOnMarker1065" markerUnits="userSpaceOnUse" orient="auto" markerWidth="16.23606797749979" markerHeight="10.550836550532098" viewBox="-1.0 -1.3763819204711736 16.23606797749979 10.550836550532098" refX="-1.0" refY="3.8990363547948754"><path id="ProcessOnPath1066" d="M12.0 3.8990363547948754L0.0 7.798072709589751V0.0Z" stroke="#323232" stroke-width="2.0" fill="#323232" transform="matrix(1.0,0.0,0.0,1.0,0.0,0.0)"/></marker><marker id="ProcessOnMarker1069" markerUnits="userSpaceOnUse" orient="auto" markerWidth="16.23606797749979" markerHeight="10.550836550532098" viewBox="-1.0 -1.3763819204711736 16.23606797749979 10.550836550532098" refX="-1.0" refY="3.8990363547948754"><path id="ProcessOnPath1070" d="M12.0 3.8990363547948754L0.0 7.798072709589751V0.0Z" stroke="#323232" stroke-width="2.0" fill="#323232" transform="matrix(1.0,0.0,0.0,1.0,0.0,0.0)"/></marker></defs><g id="ProcessOnG1002"><path id="ProcessOnPath1003" d="M203.0 55.0H799.0V562.0H203.0V55.0Z" fill="#ffffff"/><g id="ProcessOnG1004"><g id="ProcessOnG1005" transform="matrix(1.0,0.0,0.0,1.0,226.3647924164129,396.0834392765433)" opacity="1.0"><path id="ProcessOnPath1006" d="M0.0 4.0Q0.0 0.0 4.0 0.0L302.6892507213107 0.0Q306.6892507213107 0.0 306.6892507213107 4.0L306.6892507213107 141.91656072345674Q306.6892507213107 145.91656072345674 302.6892507213107 145.91656072345674L4.0 145.91656072345674Q0.0 145.91656072345674 0.0 141.91656072345674Z" stroke="#323232" stroke-width="2.0" stroke-dasharray="10.0 4.0" opacity="1.0" fill="#ffffff"/></g><g id="ProcessOnG1007" transform="matrix(1.0,0.0,0.0,1.0,351.692470922873,202.80497131931165)" opacity="1.0"><path id="ProcessOnPath1008" d="M0.0 4.0Q0.0 0.0 4.0 0.0L315.00084154002167 0.0Q319.00084154002167 0.0 319.00084154002167 4.0L319.00084154002167 106.66156787762905Q319.00084154002167 110.66156787762905 315.00084154002167 110.66156787762905L4.0 110.66156787762905Q0.0 110.66156787762905 0.0 106.66156787762905Z" stroke="#323232" stroke-width="2.0" stroke-dasharray="none" opacity="1.0" fill="#66b2ff"/></g><g id="ProcessOnG1009" transform="matrix(1.0,0.0,0.0,1.0,251.13985027205223,424.45928261929436)" opacity="1.0"><path id="ProcessOnPath1010" d="M0.0 4.0Q0.0 0.0 4.0 0.0L116.26531527129018 0.0Q120.26531527129018 0.0 120.26531527129018 4.0L120.26531527129018 94.74913038261765Q120.26531527129018 98.74913038261765 116.26531527129018 98.74913038261765L4.0 98.74913038261765Q0.0 98.74913038261765 0.0 94.74913038261765Z" stroke="#323232" stroke-width="2.0" stroke-dasharray="none" opacity="1.0" fill="#00cccc"/></g><g id="ProcessOnG1011" transform="matrix(1.0,0.0,0.0,1.0,407.66909398104906,256.0478011472276)" opacity="1.0"><path id="ProcessOnPath1012" d="M0.0 0.0L207.0475954236696 0.0L207.0475954236696 41.75908221797324L0.0 41.75908221797324Z" stroke="none" stroke-width="0.0" stroke-dasharray="none" opacity="1.0" fill="none"/><g id="ProcessOnG1013" transform="matrix(1.0,0.0,0.0,1.0,0.0,11.504541108986619)"><text id="ProcessOnText1014" fill="#000000" font-size="15" x="102.5237977118348" y="15.375" font-family="微软雅黑" font-weight="bold" font-style="normal" text-decoration="none" family="微软雅黑" text-anchor="middle" size="15">Deployment</text></g></g><g id="ProcessOnG1015" transform="matrix(1.0,0.0,0.0,1.0,428.93108203724756,222.64053537284897)" opacity="1.0"><path id="ProcessOnPath1016" d="M0.0 16.703632887189286C0.0 -5.567877629063095 160.95109385276632 -5.567877629063095 160.95109385276632 16.703632887189286C160.95109385276632 38.97514340344167 0.0 38.97514340344167 0.0 16.703632887189286Z" stroke="#323232" stroke-width="2.0" stroke-dasharray="none" opacity="1.0" fill="#ffffff"/><g id="ProcessOnG1017" transform="matrix(1.0,0.0,0.0,1.0,10.0,4.828632887189286)"><text id="ProcessOnText1018" fill="#000000" font-size="19" x="69.47554692638316" y="19.475" font-family="微软雅黑" font-weight="normal" font-style="normal" text-decoration="none" family="微软雅黑" text-anchor="middle" size="19">Scale</text></g></g><g id="ProcessOnG1019" transform="matrix(1.0,0.0,0.0,1.0,223.0,464.5558696149461)" opacity="1.0"><path id="ProcessOnPath1020" d="M0.0 0.0L176.54501581539472 0.0L176.54501581539472 18.555956391314478L0.0 18.555956391314478Z" stroke="none" stroke-width="0.0" stroke-dasharray="none" opacity="1.0" fill="none"/><g id="ProcessOnG1021" transform="matrix(1.0,0.0,0.0,1.0,0.0,0.5279781956572389)"><text id="ProcessOnText1022" fill="#000000" font-size="14" x="87.27250790769736" y="14.350000000000001" font-family="微软雅黑" font-weight="bold" font-style="normal" text-decoration="none" family="微软雅黑" text-anchor="middle" size="14">Pod 1</text></g></g><g id="ProcessOnG1023" transform="matrix(1.0,0.0,0.0,1.0,401.8224088307794,424.45928261929436)" opacity="1.0"><path id="ProcessOnPath1024" d="M0.0 4.0Q0.0 0.0 4.0 0.0L116.26531527129018 0.0Q120.26531527129018 0.0 120.26531527129018 4.0L120.26531527129018 94.74913038261765Q120.26531527129018 98.74913038261765 116.26531527129018 98.74913038261765L4.0 98.74913038261765Q0.0 98.74913038261765 0.0 94.74913038261765Z" stroke="#323232" stroke-width="2.0" stroke-dasharray="none" opacity="1.0" fill="#00cccc"/><g id="ProcessOnG1025" transform="matrix(1.0,0.0,0.0,1.0,10.0,41.249565191308825)"><text id="ProcessOnText1026" fill="#000000" font-size="13" x="49.13265763564509" y="13.325" font-family="微软雅黑" font-weight="bold" font-style="normal" text-decoration="none" family="微软雅黑" text-anchor="middle" size="13">Pod 2</text></g></g><g id="ProcessOnG1027" transform="matrix(1.0,0.0,0.0,1.0,491.039469076224,457.7464348739484)" opacity="1.0"><path id="ProcessOnPath1028" d="M0.0 0.0L207.0475954236696 0.0L207.0475954236696 41.75908221797324L0.0 41.75908221797324Z" stroke="none" stroke-width="0.0" stroke-dasharray="none" opacity="1.0" fill="none"/><g id="ProcessOnG1029" transform="matrix(1.0,0.0,0.0,1.0,0.0,-6.6204588910133815)"><text id="ProcessOnText1030" fill="#000000" font-size="22" x="102.5237977118348" y="22.55" font-family="微软雅黑" font-weight="bold" font-style="normal" text-decoration="none" family="微软雅黑" text-anchor="middle" size="22"></text><text id="ProcessOnText1031" fill="#000000" font-size="22" x="102.5237977118348" y="50.05" font-family="微软雅黑" font-weight="bold" font-style="normal" text-decoration="none" family="微软雅黑" text-anchor="middle" size="22">···</text></g></g><g id="ProcessOnG1032" transform="matrix(1.0,0.0,0.0,1.0,658.7346847287098,429.2514107916262)" opacity="1.0"><path id="ProcessOnPath1033" d="M0.0 4.0Q0.0 0.0 4.0 0.0L116.26531527129018 0.0Q120.26531527129018 0.0 120.26531527129018 4.0L120.26531527129018 94.74913038261765Q120.26531527129018 98.74913038261765 116.26531527129018 98.74913038261765L4.0 98.74913038261765Q0.0 98.74913038261765 0.0 94.74913038261765Z" stroke="#323232" stroke-width="2.0" stroke-dasharray="none" opacity="1.0" fill="#00cccc"/><g id="ProcessOnG1034" transform="matrix(1.0,0.0,0.0,1.0,10.0,33.124565191308825)"><text id="ProcessOnText1035" fill="#000000" font-size="13" x="49.13265763564509" y="13.325" font-family="微软雅黑" font-weight="bold" font-style="normal" text-decoration="none" family="微软雅黑" text-anchor="middle" size="13">Pod N</text><text id="ProcessOnText1036" fill="#000000" font-size="13" x="49.13265763564509" y="29.575" font-family="微软雅黑" font-weight="bold" font-style="normal" text-decoration="none" family="微软雅黑" text-anchor="middle" size="13">(N ≤ Max)</text></g></g><g id="ProcessOnG1037" transform="matrix(1.0,0.0,0.0,1.0,497.039469076224,448.16217852928503)" opacity="1.0"><path id="ProcessOnPath1038" d="M0.0 0.0L207.0475954236696 0.0L207.0475954236696 41.75908221797324L0.0 41.75908221797324Z" stroke="none" stroke-width="0.0" stroke-dasharray="none" opacity="1.0" fill="none"/><g id="ProcessOnG1039" transform="matrix(1.0,0.0,0.0,1.0,0.0,12.129541108986619)"><text id="ProcessOnText1040" fill="#000000" font-size="14" x="102.5237977118348" y="14.350000000000001" font-family="微软雅黑" font-weight="bold" font-style="normal" text-decoration="none" family="微软雅黑" text-anchor="middle" size="14">scaling out pods </text></g></g><g id="ProcessOnG1041" transform="matrix(1.0,0.0,0.0,1.0,348.11994546436597,80.21988527724666)" opacity="1.0"><path id="ProcessOnPath1042" d="M0.0 4.0Q0.0 0.0 4.0 0.0L318.5733669985287 0.0Q322.5733669985287 0.0 322.5733669985287 4.0L322.5733669985287 97.26577437858508Q322.5733669985287 101.26577437858508 318.5733669985287 101.26577437858508L4.0 101.26577437858508Q0.0 101.26577437858508 0.0 97.26577437858508Z" stroke="#323232" stroke-width="2.0" stroke-dasharray="none" opacity="1.0" fill="#ff8300"/></g><g id="ProcessOnG1043" transform="matrix(1.0,0.0,0.0,1.0,295.9918736525544,361.51208292699044)" opacity="1.0"><path id="ProcessOnPath1044" d="M0.0 0.0L207.0475954236696 0.0L207.0475954236696 41.75908221797324L0.0 41.75908221797324Z" stroke="none" stroke-width="0.0" stroke-dasharray="none" opacity="1.0" fill="none"/><g id="ProcessOnG1045" transform="matrix(1.0,0.0,0.0,1.0,0.0,12.129541108986619)"><text id="ProcessOnText1046" fill="#000000" font-size="14" x="102.5237977118348" y="14.350000000000001" font-family="微软雅黑" font-weight="bold" font-style="normal" text-decoration="none" family="微软雅黑" text-anchor="middle" size="14">min = 2</text></g></g><g id="ProcessOnG1047" transform="matrix(1.0,0.0,0.0,1.0,402.61429737855593,75.0)" opacity="1.0"><path id="ProcessOnPath1048" d="M0.0 0.0L207.0475954236696 0.0L207.0475954236696 41.75908221797324L0.0 41.75908221797324Z" stroke="none" stroke-width="0.0" stroke-dasharray="none" opacity="1.0" fill="none"/><g id="ProcessOnG1049" transform="matrix(1.0,0.0,0.0,1.0,0.0,12.754541108986619)"><text id="ProcessOnText1050" fill="#000000" font-size="13" x="102.5237977118348" y="13.325" font-family="微软雅黑" font-weight="bold" font-style="normal" text-decoration="none" family="微软雅黑" text-anchor="middle" size="13">Controller Manager</text></g></g><g id="ProcessOnG1051" transform="matrix(1.0,0.0,0.0,1.0,363.64851512114103,116.75908221797322)" opacity="1.0"><path id="ProcessOnPath1052" d="M0.0 0.0L291.51622768497845 0.0L291.51622768497845 48.022944550669216L0.0 48.022944550669216Z" stroke="#323232" stroke-width="2.0" stroke-dasharray="none" opacity="1.0" fill="#ffffff"/><g id="ProcessOnG1053" transform="matrix(1.0,0.0,0.0,1.0,10.0,15.261472275334608)"><text id="ProcessOnText1054" fill="#000000" font-size="14" x="134.75811384248922" y="14.350000000000001" font-family="微软雅黑" font-weight="bold" font-style="normal" text-decoration="none" family="微软雅黑" text-anchor="middle" size="14">Horizontal Pod Autoscaler</text></g></g><g id="ProcessOnG1055"><path id="ProcessOnPath1056" d="M509.4066289636303 181.48565965583174L509.4066289636303 202.06309751434037L509.4066289636306 202.06309751434037L509.4066289636306 207.40446739534917" stroke="#323232" stroke-width="2.0" stroke-dasharray="none" fill="none" marker-end="url(#ProcessOnMarker1057)"/></g><g id="ProcessOnG1059"><path id="ProcessOnPath1060" d="M462.3516695678272 313.46653919694074L462.3516695678272 368.9629109081176L311.27250790769733 368.9629109081176L311.27250790769733 409.2232146417946" stroke="#323232" stroke-width="2.0" stroke-dasharray="none" fill="none" marker-end="url(#ProcessOnMarker1061)"/></g><g id="ProcessOnG1063"><path id="ProcessOnPath1064" d="M539.9945178517032 313.46653919694074L539.9945178517032 371.35897499428347L718.867342364355 371.35897499428347L718.867342364355 414.0153428141264" stroke="#323232" stroke-width="2.0" stroke-dasharray="none" fill="none" marker-end="url(#ProcessOnMarker1065)"/></g><g id="ProcessOnG1067"><path id="ProcessOnPath1068" d="M487.00000000000045 313.0L487.00000000000045 369.0L487.0 369.0L487.0 409.7639320225002" stroke="#323232" stroke-width="2.0" stroke-dasharray="none" fill="none" marker-end="url(#ProcessOnMarker1069)"/></g></g></g></svg>