<svg width="760" height="400.00000000000006" xmlns="http://www.w3.org/2000/svg" xmlns:svg="http://www.w3.org/2000/svg">
 <!-- Generator: Sketch 51.1 (57501) - http://www.bohemiancoding.com/sketch -->
 <title>Artboard</title>
 <desc>Created with Sketch.</desc>
 <g class="layer">
  <title>Layer 1</title>
  <g id="Group-4">
   <g id="Group-2">
    <g id="Glyph/002.Object/083.Nodes/Black-">
     <g id="Group-2">
      <path fill-rule="nonzero" fill="#324558" id="Combined-Shape" d="m103.5,68.36937c0,-1.03125 0.9,-1.86937 2.04955,-1.86937l40.9009,0c1.1291,0 2.04955,0.84938 2.04955,1.86937l0,11.26125c0,1.03125 -0.9,1.86938 -2.04955,1.86938l-40.9009,0c-1.12703,-0.00203 -2.04169,-0.83629 -2.04955,-1.86938l0,-11.26125zm10,0.63063l0,5l5,0l0,-5l-5,0zm-7.5,0l0,5l5,0l0,-5l-5,0z"/>
      <path fill-rule="nonzero" fill="#324558" id="Combined-Shape-Copy" d="m103.5,88.36938c0,-1.03125 0.9,-1.86938 2.04955,-1.86938l40.9009,0c1.1291,0 2.04955,0.84937 2.04955,1.86938l0,11.26125c0,1.03125 -0.9,1.86937 -2.04955,1.86937l-40.9009,0c-1.12703,-0.00203 -2.04169,-0.83629 -2.04955,-1.86937l0,-11.26125zm10,0.63062l0,5l5,0l0,-5l-5,0zm-7.5,0l0,5l5,0l0,-5l-5,0z"/>
      <rect height="5" width="5" y="61.5" x="123.5" fill="#B6C2CD" id="Rectangle-43"/>
      <rect height="5" width="5" y="81.5" x="123.5" fill="#B6C2CD" id="Rectangle-43-Copy"/>
      <rect height="5" width="5" y="101.5" x="123.5" fill="#B6C2CD" id="Rectangle-43-Copy-4"/>
     </g>
    </g>
    <text x="103.5" y="61.5" fill="#919AA3" font-weight="normal" font-size="16" font-family="ProximaNova-Regular, Proxima Nova" id="192.168.0.10">
     <tspan id="svg_1" y="77.5" x="178.5">192.168.0.1</tspan>
    </text>
    <g transform="translate(75,36) " id="Group">
     <rect rx="4" height="24" width="80" y="61.5" x="103.5" fill-rule="nonzero" fill="#F5A623" id="Rectangle-11"/>
     <text x="103.5" y="61.5" fill="#FFFFFF" font-weight="500" font-size="14" font-family="ProximaNova-Semibold, Proxima Nova" id="Master">
      <tspan id="svg_2" y="77.5" x="122.5">Master</tspan>
     </text>
    </g>
    <g id="Group-Copy">
     <rect rx="4" height="24" width="80" y="97.5" x="266.5" fill-rule="nonzero" fill="#F5A623" id="Rectangle-11"/>
     <text x="266.5" y="97.5" fill="#FFFFFF" font-weight="500" font-size="14" font-family="ProximaNova-Semibold, Proxima Nova" id="Etcd">
      <tspan id="svg_3" y="113.5" x="292.5">Etcd</tspan>
     </text>
    </g>
    <g transform="translate(251.000000, 36.000000)" id="Group-Copy-2">
     <rect rx="4" height="24" width="80" y="61.5" x="103.5" fill-rule="nonzero" fill="#7E95AD" id="Rectangle-11"/>
     <text x="103.5" y="61.5" fill="#FFFFFF" font-weight="500" font-size="14" font-family="ProximaNova-Semibold, Proxima Nova" id="Node">
      <tspan id="svg_4" y="77.5" x="126.5">Node</tspan>
     </text>
    </g>
    <g id="svg_11">
     <rect id="svg_12" rx="4" height="24" width="80" y="295.5" x="259" fill-rule="nonzero" fill="#F5A623"/>
     <text id="svg_13" x="259" y="295.5" fill="#FFFFFF" font-weight="500" font-size="14" font-family="ProximaNova-Semibold, Proxima Nova">
      <tspan id="svg_14" y="311.5" x="285">Etcd</tspan>
     </text>
    </g>
    <g id="svg_15">
     <rect id="svg_16" rx="4" height="24" width="80" y="296.5" x="641" fill-rule="nonzero" fill="#F5A623"/>
     <text id="svg_17" x="641" y="296.5" fill="#FFFFFF" font-weight="500" font-size="14" font-family="ProximaNova-Semibold, Proxima Nova">
      <tspan id="svg_18" y="312.5" x="667">Etcd</tspan>
     </text>
    </g>
   </g>
   <text x="96" y="54" fill="#55BC8A" font-weight="normal" font-size="14" font-family="PingFangSC-Regular, PingFang SC" id="以taskbox开始部署3节点集群">
    <tspan id="svg_5" y="224" x="146">以taskbox开始部署3节点集群</tspan>
   </text>
   <g transform="translate(0,207) " id="Group-3">
    <g id="Glyph/002.Object/083.Nodes/Black-">
     <g id="Group-2">
      <path fill-rule="nonzero" fill="#324558" id="Combined-Shape" d="m96,60.86937c0,-1.03125 0.9,-1.86937 2.04955,-1.86937l40.9009,0c1.1291,0 2.04955,0.84938 2.04955,1.86937l0,11.26125c0,1.03125 -0.9,1.86938 -2.04955,1.86938l-40.9009,0c-1.12703,-0.00203 -2.04169,-0.83629 -2.04955,-1.86938l0,-11.26125zm10,0.63063l0,5l5,0l0,-5l-5,0zm-7.5,0l0,5l5,0l0,-5l-5,0z"/>
      <path fill-rule="nonzero" fill="#324558" id="Combined-Shape-Copy" d="m96,80.86938c0,-1.03125 0.9,-1.86938 2.04955,-1.86938l40.9009,0c1.1291,0 2.04955,0.84937 2.04955,1.86938l0,11.26125c0,1.03125 -0.9,1.86937 -2.04955,1.86937l-40.9009,0c-1.12703,-0.00203 -2.04169,-0.83629 -2.04955,-1.86937l0,-11.26125zm10,0.63062l0,5l5,0l0,-5l-5,0zm-7.5,0l0,5l5,0l0,-5l-5,0z"/>
      <rect height="5" width="5" y="54" x="116" fill="#B6C2CD" id="Rectangle-43"/>
      <rect height="5" width="5" y="74" x="116" fill="#B6C2CD" id="Rectangle-43-Copy"/>
      <rect height="5" width="5" y="94" x="116" fill="#B6C2CD" id="Rectangle-43-Copy-4"/>
     </g>
    </g>
    <text x="96" y="54" fill="#919AA3" font-weight="normal" font-size="16" font-family="ProximaNova-Regular, Proxima Nova" id="192.168.0.20">
     <tspan id="svg_6" y="70" x="171">192.168.0.2</tspan>
    </text>
    <g transform="translate(77.000000, 36.000000)" id="Group-Copy-2">
     <rect rx="4" height="24" width="80" y="54" x="96" fill-rule="nonzero" fill="#7E95AD" id="Rectangle-11"/>
     <text x="96" y="54" fill="#FFFFFF" font-weight="500" font-size="14" font-family="ProximaNova-Semibold, Proxima Nova" id="Node1">
      <tspan id="svg_7" y="70" x="116">Node1</tspan>
     </text>
    </g>
   </g>
   <g transform="translate(381,207) " id="Group-3-Copy">
    <g id="Glyph/002.Object/083.Nodes/Black-">
     <g id="Group-2">
      <path fill-rule="nonzero" fill="#324558" id="Combined-Shape" d="m96,60.86937c0,-1.03125 0.9,-1.86937 2.04955,-1.86937l40.9009,0c1.1291,0 2.04955,0.84938 2.04955,1.86937l0,11.26125c0,1.03125 -0.9,1.86938 -2.04955,1.86938l-40.9009,0c-1.12703,-0.00203 -2.04169,-0.83629 -2.04955,-1.86938l0,-11.26125zm10,0.63063l0,5l5,0l0,-5l-5,0zm-7.5,0l0,5l5,0l0,-5l-5,0z"/>
      <path fill-rule="nonzero" fill="#324558" id="Combined-Shape-Copy" d="m96,80.86938c0,-1.03125 0.9,-1.86938 2.04955,-1.86938l40.9009,0c1.1291,0 2.04955,0.84937 2.04955,1.86938l0,11.26125c0,1.03125 -0.9,1.86937 -2.04955,1.86937l-40.9009,0c-1.12703,-0.00203 -2.04169,-0.83629 -2.04955,-1.86937l0,-11.26125zm10,0.63062l0,5l5,0l0,-5l-5,0zm-7.5,0l0,5l5,0l0,-5l-5,0z"/>
      <rect height="5" width="5" y="54" x="116" fill="#B6C2CD" id="Rectangle-43"/>
      <rect height="5" width="5" y="74" x="116" fill="#B6C2CD" id="Rectangle-43-Copy"/>
      <rect height="5" width="5" y="94" x="116" fill="#B6C2CD" id="Rectangle-43-Copy-4"/>
     </g>
    </g>
    <text x="96" y="54" fill="#919AA3" font-weight="normal" font-size="16" font-family="ProximaNova-Regular, Proxima Nova" id="192.168.0.30">
     <tspan id="svg_8" y="70" x="171">192.168.0.3</tspan>
    </text>
    <g transform="translate(77,36) " id="Group-Copy-2">
     <rect rx="4" height="24" width="80" y="54" x="96" fill-rule="nonzero" fill="#7E95AD" id="Rectangle-11"/>
     <text x="96" y="54" fill="#FFFFFF" font-weight="500" font-size="14" font-family="ProximaNova-Semibold, Proxima Nova" id="Node2">
      <tspan id="svg_9" y="70" x="115">Node2</tspan>
     </text>
    </g>
   </g>
   <path fill-rule="nonzero" fill="#55BC8A" d="m126.5,254l9.5,-19l-19,0l9.5,19zm-1.5,-134.5l0,117l0,1.5l3,0l0,-1.5l0,-117l0,-1.5l-3,0l0,1.5z" id="Line-3"/>
   <path fill-rule="nonzero" fill="#55BC8A" d="m507.72151,253.66638l-14.75603,-15.28102l-6.32241,17.91723l21.07844,-2.63621zm-381.44564,-133.00903l364.55818,128.64065l1.41452,0.49913l0.99828,-2.82903l-1.41452,-0.49914l-364.55818,-128.64065l-1.41452,-0.49914l-0.99827,2.82904l1.41451,0.49914z" id="Line-3-Copy"/>
  </g>
  <text fill="#919AA3" font-weight="normal" font-size="16" font-family="PingFangSC-Regular, PingFang SC" id="taskbox可以为集群中任意节点">
   <tspan id="svg_10" y="354" x="270.968">taskbox可以为集群中任意节点</tspan>
  </text>
 </g>
</svg>