<svg xmlns="http://www.w3.org/2000/svg" width="20" height="20" viewBox="0 0 20 20">
    <g fill="none" fill-rule="evenodd">
        <path fill="#65C194" d="M4.182 6.936a2.754 2.754 0 1 1 0-5.507 2.754 2.754 0 0 1 0 5.507zm12.35 0a2.754 2.754 0 1 1 0-5.507 2.754 2.754 0 0 1 0 5.507zm-12.35 12.35a2.754 2.754 0 1 1 0-5.508 2.754 2.754 0 0 1 0 5.508zm12.35 0a2.754 2.754 0 1 1 0-5.508 2.754 2.754 0 0 1 0 5.508z"/>
        <path fill="#ADEBB5" d="M10.357 20a9.643 9.643 0 1 1 0-19.286 9.643 9.643 0 0 1 0 19.286zm0-4.528a5.115 5.115 0 1 0 0-10.23 5.115 5.115 0 0 0 0 10.23z"/>
        <path fill="#3D3E49" d="M9.967 0a1.999 1.999 0 0 1 1.973 2.322l-.249 1.516a1.838 1.838 0 0 1-1.813 1.54A1.778 1.778 0 0 1 8.115 3.83l-.196-1.497A2.066 2.066 0 0 1 9.967 0zm0 20a2.066 2.066 0 0 1-2.048-2.333l.196-1.497a1.778 1.778 0 0 1 1.763-1.548c.9 0 1.667.652 1.813 1.54l.249 1.516A1.999 1.999 0 0 1 9.967 20zM0 10.135a2.066 2.066 0 0 1 2.333-2.048l1.497.196c.886.115 1.548.87 1.548 1.763 0 .9-.652 1.668-1.54 1.813l-1.516.249A1.999 1.999 0 0 1 0 10.135zm20-.168a1.999 1.999 0 0 1-2.322 1.973l-1.516-.249a1.838 1.838 0 0 1-1.54-1.813c0-.893.662-1.648 1.548-1.763l1.497-.196A2.066 2.066 0 0 1 20 9.967z"/>
    </g>
</svg>
