<?xml version="1.0" encoding="UTF-8"?>
<svg width="1080px" height="400px" viewBox="0 0 1080 400" version="1.1" xmlns="http://www.w3.org/2000/svg" xmlns:xlink="http://www.w3.org/1999/xlink">
    <!-- Generator: Sketch 52.2 (67145) - http://www.bohemiancoding.com/sketch -->
    <title>线路图</title>
    <desc>Created with Sketch.</desc>
    <defs>
        <linearGradient x1="0.25781251%" y1="49.7500002%" x2="101.257813%" y2="49.7500002%" id="linearGradient-1">
            <stop stop-color="#3023AE" offset="0%"></stop>
            <stop stop-color="#53A0FD" offset="47.5247532%"></stop>
            <stop stop-color="#B4EC51" offset="100%"></stop>
        </linearGradient>
        <radialGradient cx="35.9565476%" cy="-101.093332%" fx="35.9565476%" fy="-101.093332%" r="2412.69157%" gradientTransform="translate(0.359565,-1.010933),scale(0.010000,1.000000),rotate(37.330254),translate(-0.359565,1.010933)" id="radialGradient-2">
            <stop stop-color="#FFFFFF" stop-opacity="0.1" offset="0%"></stop>
            <stop stop-color="#FFFFFF" stop-opacity="0.1" offset="100%"></stop>
        </radialGradient>
        <rect id="path-3" x="40" y="202" width="1000" height="10" rx="5"></rect>
        <filter x="-3.1%" y="-230.0%" width="106.2%" height="720.0%" filterUnits="objectBoundingBox" id="filter-4">
            <feMorphology radius="3" operator="dilate" in="SourceAlpha" result="shadowSpreadOuter1"></feMorphology>
            <feOffset dx="0" dy="8" in="shadowSpreadOuter1" result="shadowOffsetOuter1"></feOffset>
            <feGaussianBlur stdDeviation="8" in="shadowOffsetOuter1" result="shadowBlurOuter1"></feGaussianBlur>
            <feComposite in="shadowBlurOuter1" in2="SourceAlpha" operator="out" result="shadowBlurOuter1"></feComposite>
            <feColorMatrix values="0 0 0 0 0   0 0 0 0 0   0 0 0 0 0  0 0 0 0.2 0" type="matrix" in="shadowBlurOuter1"></feColorMatrix>
        </filter>
    </defs>
    <g id="线路图" stroke="none" stroke-width="1" fill="none" fill-rule="evenodd">
        <rect fill="#FFFFFF" x="0" y="0" width="1080" height="400"></rect>
        <rect id="Rectangle" fill="#242E42" x="0" y="0" width="1440" height="1076"></rect>
        <g id="Group-6" opacity="0.02" transform="translate(-143.000000, 0.000000)" fill="#EFF4F9">
            <polygon id="Fill-2" points="801 196 569 64 569 328"></polygon>
            <polygon id="Fill-3" points="453 0 0 258.678045 0 777.345159 453 1036 453 642.471986 235.028356 518.005801 453 393.539616"></polygon>
            <polygon id="Fill-4" points="453 519.5 904 777 904 262"></polygon>
        </g>
        <g id="Group" transform="translate(40.000000, 32.000000)" fill="#FFFFFF">
            <text id="RoadMap" font-family="PingFangSC-Medium, PingFang SC" font-size="20" font-weight="400" line-spacing="28">
                <tspan x="40" y="21">RoadMap</tspan>
            </text>
            <g id="Glyph/002.Object/054.AppCenter/White">
                <polygon id="Combined-Shape" opacity="0.400000006" points="11.375 14 14 15.5 16.625 14 24.5 18.5 14 24.5 3.5 18.5"></polygon>
                <polygon id="Shape" opacity="0.900000036" points="3.5 9.5 14 3.5 24.5 9.5 14 15.5"></polygon>
            </g>
        </g>
        <g id="Rectangle">
            <use fill="black" fill-opacity="1" filter="url(#filter-4)" xlink:href="#path-3"></use>
            <rect stroke="url(#radialGradient-2)" stroke-width="3" fill="url(#linearGradient-1)" fill-rule="evenodd" x="38.5" y="200.5" width="1003" height="13" rx="6"></rect>
        </g>
        <g id="Group-3" transform="translate(40.000000, 230.000000)" fill="#FFFFFF">
            <g id="Group-2" transform="translate(0.000000, 35.000000)">
                <path d="M5.32,3.808 C6.482,3.808 7.448,4.102 8.204,4.718 C8.932,5.306 9.38,6.118 9.534,7.126 L8.05,7.126 C7.882,6.454 7.56,5.95 7.084,5.628 C6.608,5.306 6.02,5.152 5.292,5.152 C4.214,5.152 3.402,5.516 2.856,6.258 C2.338,6.93 2.086,7.854 2.086,9.016 C2.086,10.22 2.338,11.144 2.842,11.802 C3.374,12.502 4.2,12.852 5.32,12.852 C6.048,12.852 6.664,12.67 7.14,12.306 C7.644,11.914 7.994,11.326 8.19,10.542 L9.674,10.542 C9.45,11.704 8.932,12.614 8.106,13.272 C7.336,13.888 6.412,14.196 5.334,14.196 C3.696,14.196 2.464,13.664 1.638,12.628 C0.91,11.732 0.56,10.528 0.56,9.016 C0.56,7.532 0.924,6.328 1.68,5.39 C2.52,4.326 3.724,3.808 5.32,3.808 Z M14.406,6.566 C15.498,6.566 16.38,6.93 17.038,7.658 C17.682,8.372 18.018,9.282 18.018,10.388 C18.018,11.48 17.696,12.39 17.052,13.09 C16.38,13.818 15.498,14.196 14.406,14.196 C13.314,14.196 12.432,13.818 11.76,13.09 C11.116,12.39 10.794,11.48 10.794,10.388 C10.794,9.282 11.116,8.372 11.774,7.658 C12.432,6.93 13.314,6.566 14.406,6.566 Z M14.406,7.784 C13.72,7.784 13.188,8.05 12.81,8.596 C12.474,9.058 12.32,9.66 12.32,10.388 C12.32,11.116 12.474,11.704 12.81,12.166 C13.188,12.698 13.72,12.978 14.406,12.978 C15.092,12.978 15.624,12.698 16.016,12.166 C16.352,11.69 16.52,11.102 16.52,10.388 C16.52,9.66 16.352,9.058 16.016,8.596 C15.624,8.05 15.092,7.784 14.406,7.784 Z M22.904,6.566 C23.968,6.566 24.738,6.972 25.186,7.784 C25.508,7.336 25.858,7.014 26.222,6.832 C26.558,6.65 26.964,6.566 27.454,6.566 C28.196,6.566 28.812,6.804 29.302,7.308 C29.778,7.798 30.03,8.442 30.03,9.254 L30.03,14 L28.546,14 L28.546,9.506 C28.546,8.918 28.42,8.484 28.168,8.218 C27.916,7.938 27.496,7.812 26.936,7.812 C26.516,7.812 26.18,7.966 25.9,8.274 C25.62,8.582 25.48,9.016 25.48,9.548 L25.48,14 L23.996,14 L23.996,9.52 C23.996,8.372 23.492,7.812 22.512,7.812 C22.036,7.812 21.644,7.994 21.364,8.358 C21.056,8.708 20.916,9.142 20.916,9.646 L20.916,14 L19.432,14 L19.432,6.762 L20.916,6.762 L20.916,7.56 C21.504,6.888 22.176,6.566 22.904,6.566 Z M35.182,6.566 C36.246,6.566 37.016,6.972 37.464,7.784 C37.786,7.336 38.136,7.014 38.5,6.832 C38.836,6.65 39.242,6.566 39.732,6.566 C40.474,6.566 41.09,6.804 41.58,7.308 C42.056,7.798 42.308,8.442 42.308,9.254 L42.308,14 L40.824,14 L40.824,9.506 C40.824,8.918 40.698,8.484 40.446,8.218 C40.194,7.938 39.774,7.812 39.214,7.812 C38.794,7.812 38.458,7.966 38.178,8.274 C37.898,8.582 37.758,9.016 37.758,9.548 L37.758,14 L36.274,14 L36.274,9.52 C36.274,8.372 35.77,7.812 34.79,7.812 C34.314,7.812 33.922,7.994 33.642,8.358 C33.334,8.708 33.194,9.142 33.194,9.646 L33.194,14 L31.71,14 L31.71,6.762 L33.194,6.762 L33.194,7.56 C33.782,6.888 34.454,6.566 35.182,6.566 Z M43.988,6.762 L45.472,6.762 L45.472,11.172 C45.472,11.788 45.598,12.236 45.864,12.516 C46.116,12.796 46.536,12.95 47.11,12.95 C47.502,12.95 47.852,12.782 48.188,12.474 C48.524,12.152 48.762,11.718 48.888,11.186 L48.888,6.762 L50.372,6.762 L50.372,14 L48.888,14 L48.888,13.02 C48.272,13.804 47.516,14.196 46.606,14.196 C44.856,14.196 43.988,13.216 43.988,11.27 L43.988,6.762 Z M55.734,6.566 C57.526,6.566 58.436,7.546 58.436,9.534 L58.436,14 L56.952,14 L56.952,9.66 C56.952,8.428 56.378,7.812 55.258,7.812 C54.838,7.812 54.46,7.952 54.152,8.26 C53.816,8.596 53.606,9.058 53.55,9.646 L53.55,14 L52.066,14 L52.066,6.762 L53.55,6.762 L53.55,7.658 C53.83,7.294 54.152,7.028 54.516,6.846 C54.88,6.65 55.286,6.566 55.734,6.566 Z M61.18,3.864 C61.474,3.864 61.726,3.948 61.922,4.144 C62.118,4.326 62.216,4.564 62.216,4.858 C62.216,5.152 62.104,5.39 61.908,5.586 C61.712,5.768 61.46,5.866 61.18,5.866 C60.886,5.866 60.648,5.768 60.452,5.586 C60.256,5.39 60.158,5.138 60.158,4.858 C60.158,4.564 60.256,4.326 60.452,4.144 C60.648,3.948 60.886,3.864 61.18,3.864 Z M60.438,6.762 L61.922,6.762 L61.922,14 L60.438,14 L60.438,6.762 Z M66.122,4.424 L66.122,6.762 L67.774,6.762 L67.774,7.994 L66.122,7.994 L66.122,12.194 C66.122,12.39 66.164,12.53 66.248,12.628 C66.332,12.712 66.458,12.768 66.64,12.768 L67.592,12.768 L67.592,14 L66.402,14 C65.786,14 65.324,13.832 65.044,13.51 C64.764,13.202 64.638,12.768 64.638,12.194 L64.638,7.994 L63.294,7.994 L63.294,6.762 L64.638,6.762 L64.638,5.04 L66.122,4.424 Z M68.194,6.762 L69.804,6.762 L71.792,12.04 L73.696,6.762 L75.32,6.762 L71.386,16.772 L69.804,16.772 L71.064,13.832 L68.194,6.762 Z M81.032,4.004 L88.214,4.004 L88.214,5.306 L82.558,5.306 L82.558,8.218 L87.878,8.218 L87.878,9.52 L82.558,9.52 L82.558,12.698 L88.452,12.698 L88.452,14 L81.032,14 L81.032,4.004 Z M95.074,3.808 L96.558,3.808 L96.558,14 L95.172,14 L95.172,13.132 C94.668,13.832 93.912,14.196 92.932,14.196 C91.868,14.196 91.028,13.818 90.426,13.062 C89.866,12.362 89.586,11.452 89.586,10.346 C89.586,9.282 89.852,8.4 90.412,7.7 C91,6.944 91.826,6.566 92.862,6.566 C93.744,6.566 94.486,6.986 95.074,7.84 L95.074,3.808 Z M93.198,7.77 C92.47,7.77 91.924,8.008 91.574,8.512 C91.266,8.932 91.112,9.548 91.112,10.346 C91.112,11.144 91.252,11.76 91.546,12.208 C91.882,12.726 92.428,12.992 93.156,12.992 C93.8,12.992 94.29,12.726 94.654,12.222 C94.962,11.76 95.116,11.172 95.116,10.444 L95.116,10.318 C95.116,9.534 94.92,8.904 94.556,8.428 C94.192,7.98 93.744,7.77 93.198,7.77 Z M99.288,3.864 C99.582,3.864 99.834,3.948 100.03,4.144 C100.226,4.326 100.324,4.564 100.324,4.858 C100.324,5.152 100.212,5.39 100.016,5.586 C99.82,5.768 99.568,5.866 99.288,5.866 C98.994,5.866 98.756,5.768 98.56,5.586 C98.364,5.39 98.266,5.138 98.266,4.858 C98.266,4.564 98.364,4.326 98.56,4.144 C98.756,3.948 98.994,3.864 99.288,3.864 Z M98.546,6.762 L100.03,6.762 L100.03,14 L98.546,14 L98.546,6.762 Z M104.23,4.424 L104.23,6.762 L105.882,6.762 L105.882,7.994 L104.23,7.994 L104.23,12.194 C104.23,12.39 104.272,12.53 104.356,12.628 C104.44,12.712 104.566,12.768 104.748,12.768 L105.7,12.768 L105.7,14 L104.51,14 C103.894,14 103.432,13.832 103.152,13.51 C102.872,13.202 102.746,12.768 102.746,12.194 L102.746,7.994 L101.402,7.994 L101.402,6.762 L102.746,6.762 L102.746,5.04 L104.23,4.424 Z M108.122,3.864 C108.416,3.864 108.668,3.948 108.864,4.144 C109.06,4.326 109.158,4.564 109.158,4.858 C109.158,5.152 109.046,5.39 108.85,5.586 C108.654,5.768 108.402,5.866 108.122,5.866 C107.828,5.866 107.59,5.768 107.394,5.586 C107.198,5.39 107.1,5.138 107.1,4.858 C107.1,4.564 107.198,4.326 107.394,4.144 C107.59,3.948 107.828,3.864 108.122,3.864 Z M107.38,6.762 L108.864,6.762 L108.864,14 L107.38,14 L107.38,6.762 Z M114.198,6.566 C115.29,6.566 116.172,6.93 116.83,7.658 C117.474,8.372 117.81,9.282 117.81,10.388 C117.81,11.48 117.488,12.39 116.844,13.09 C116.172,13.818 115.29,14.196 114.198,14.196 C113.106,14.196 112.224,13.818 111.552,13.09 C110.908,12.39 110.586,11.48 110.586,10.388 C110.586,9.282 110.908,8.372 111.566,7.658 C112.224,6.93 113.106,6.566 114.198,6.566 Z M114.198,7.784 C113.512,7.784 112.98,8.05 112.602,8.596 C112.266,9.058 112.112,9.66 112.112,10.388 C112.112,11.116 112.266,11.704 112.602,12.166 C112.98,12.698 113.512,12.978 114.198,12.978 C114.884,12.978 115.416,12.698 115.808,12.166 C116.144,11.69 116.312,11.102 116.312,10.388 C116.312,9.66 116.144,9.058 115.808,8.596 C115.416,8.05 114.884,7.784 114.198,7.784 Z M122.892,6.566 C124.684,6.566 125.594,7.546 125.594,9.534 L125.594,14 L124.11,14 L124.11,9.66 C124.11,8.428 123.536,7.812 122.416,7.812 C121.996,7.812 121.618,7.952 121.31,8.26 C120.974,8.596 120.764,9.058 120.708,9.646 L120.708,14 L119.224,14 L119.224,6.762 L120.708,6.762 L120.708,7.658 C120.988,7.294 121.31,7.028 121.674,6.846 C122.038,6.65 122.444,6.566 122.892,6.566 Z" id="Community-Edition"></path>
                <path d="M3.248,22.004 L4.396,22.004 L4.396,32 L2.87,32 L2.87,23.838 C2.268,24.412 1.498,24.832 0.574,25.098 L0.574,23.586 C1.022,23.474 1.484,23.278 1.988,22.998 C2.492,22.69 2.912,22.368 3.248,22.004 Z M7.616,29.998 C7.896,29.998 8.148,30.096 8.358,30.292 C8.554,30.488 8.666,30.74 8.666,31.048 C8.666,31.328 8.554,31.58 8.358,31.79 C8.148,31.972 7.896,32.07 7.616,32.07 C7.308,32.07 7.07,31.972 6.888,31.79 C6.678,31.58 6.58,31.328 6.58,31.048 C6.58,30.74 6.678,30.488 6.888,30.292 C7.07,30.096 7.308,29.998 7.616,29.998 Z M13.72,21.808 C14.896,21.808 15.806,22.298 16.45,23.292 C17.038,24.216 17.332,25.448 17.332,27.002 C17.332,28.542 17.038,29.788 16.45,30.712 C15.806,31.692 14.896,32.196 13.72,32.196 C12.544,32.196 11.634,31.692 10.99,30.712 C10.402,29.788 10.108,28.556 10.108,27.002 C10.108,25.434 10.402,24.202 10.99,23.292 C11.634,22.298 12.544,21.808 13.72,21.808 Z M13.72,23.096 C12.894,23.096 12.32,23.544 11.984,24.454 C11.732,25.07 11.62,25.924 11.62,27.002 C11.62,28.066 11.732,28.92 11.984,29.55 C12.32,30.446 12.894,30.908 13.72,30.908 C14.532,30.908 15.12,30.446 15.456,29.55 C15.694,28.92 15.82,28.066 15.82,27.002 C15.82,25.924 15.694,25.07 15.456,24.454 C15.12,23.544 14.532,23.096 13.72,23.096 Z M19.824,29.998 C20.104,29.998 20.356,30.096 20.566,30.292 C20.762,30.488 20.874,30.74 20.874,31.048 C20.874,31.328 20.762,31.58 20.566,31.79 C20.356,31.972 20.104,32.07 19.824,32.07 C19.516,32.07 19.278,31.972 19.096,31.79 C18.886,31.58 18.788,31.328 18.788,31.048 C18.788,30.74 18.886,30.488 19.096,30.292 C19.278,30.096 19.516,29.998 19.824,29.998 Z M25.928,21.808 C27.104,21.808 28.014,22.298 28.658,23.292 C29.246,24.216 29.54,25.448 29.54,27.002 C29.54,28.542 29.246,29.788 28.658,30.712 C28.014,31.692 27.104,32.196 25.928,32.196 C24.752,32.196 23.842,31.692 23.198,30.712 C22.61,29.788 22.316,28.556 22.316,27.002 C22.316,25.434 22.61,24.202 23.198,23.292 C23.842,22.298 24.752,21.808 25.928,21.808 Z M25.928,23.096 C25.102,23.096 24.528,23.544 24.192,24.454 C23.94,25.07 23.828,25.924 23.828,27.002 C23.828,28.066 23.94,28.92 24.192,29.55 C24.528,30.446 25.102,30.908 25.928,30.908 C26.74,30.908 27.328,30.446 27.664,29.55 C27.902,28.92 28.028,28.066 28.028,27.002 C28.028,25.924 27.902,25.07 27.664,24.454 C27.328,23.544 26.74,23.096 25.928,23.096 Z" id="1.0.0"></path>
            </g>
            <path d="M9.92,20 L1.12,20 L1.12,19.06 C5.66,15.4 8.7,12.8 8.7,10.22 C8.7,8.3 7.12,7.5 5.66,7.5 C4,7.5 2.72,8.22 2,9.24 L1.22,8.52 C2.16,7.24 3.78,6.46 5.66,6.46 C7.62,6.46 9.86,7.58 9.86,10.22 C9.86,13.16 6.76,15.84 2.9,18.96 L9.92,18.96 L9.92,20 Z M17.74,20.24 C14.14,20.24 12.8,16.5 12.8,13.34 C12.8,10.16 14.14,6.46 17.74,6.46 C21.3,6.46 22.66,10.16 22.66,13.34 C22.66,16.5 21.3,20.24 17.74,20.24 Z M17.74,19.2 C20.52,19.2 21.44,16.08 21.44,13.34 C21.44,10.58 20.54,7.5 17.74,7.5 C14.92,7.5 14,10.58 14,13.34 C14,16.08 14.92,19.2 17.74,19.2 Z M28.3,20 L27.16,20 L27.16,8.22 L25.02,10.5 L24.32,9.76 L27.26,6.66 L28.3,6.66 L28.3,20 Z M35.68,20.24 C33.1,20.24 31.14,18.84 31.14,16.66 C31.14,14.8 32.76,13.58 34.46,13.12 C32.88,12.7 31.36,11.68 31.36,9.9 C31.36,7.54 33.58,6.46 35.68,6.46 C37.76,6.46 40,7.54 40,9.9 C40,11.68 38.48,12.7 36.9,13.12 C38.6,13.58 40.22,14.8 40.22,16.66 C40.22,18.82 38.24,20.24 35.68,20.24 Z M35.68,12.64 C36.5,12.48 38.84,11.88 38.84,10.02 C38.84,8.42 37.42,7.5 35.68,7.5 C33.94,7.5 32.52,8.42 32.52,10.02 C32.52,11.88 34.88,12.48 35.68,12.64 Z M35.68,19.2 C37.42,19.2 39.06,18.2 39.06,16.58 C39.06,14.54 36.48,13.74 35.68,13.64 C34.86,13.74 32.3,14.54 32.3,16.58 C32.3,18.2 33.9,19.2 35.68,19.2 Z M46.3,7.12 C45.48,8.56 44.44,9.76 43.16,10.74 L42.42,9.82 C44.48,8.26 45.86,6.18 46.58,3.54 L47.68,3.74 C47.44,4.58 47.16,5.34 46.84,6.06 L59.48,6.06 L59.48,7.12 L53.06,7.12 L53.06,10.7 L58.78,10.7 L58.78,11.72 L53.06,11.72 L53.06,16.38 L60.12,16.38 L60.12,17.46 L53.06,17.46 L53.06,22.02 L52,22.02 L52,17.46 L42.62,17.46 L42.62,16.38 L46,16.38 L46,10.7 L52,10.7 L52,7.12 L46.3,7.12 Z M47.1,16.38 L52,16.38 L52,11.72 L47.1,11.72 L47.1,16.38 Z M72.62,20.24 C69.02,20.24 67.72,16.92 67.72,13.34 C67.72,9.92 69.16,6.46 72.82,6.46 C74.56,6.46 75.62,7.16 76.42,8.16 L75.76,8.98 C75.1,8.12 74.28,7.5 72.82,7.5 C69.94,7.5 68.88,10.52 68.88,13.36 C68.88,13.56 68.88,13.78 68.9,13.98 C69.46,13.06 71,11.76 72.8,11.76 C75.2,11.76 77.1,13.14 77.1,15.98 C77.1,18.16 75.48,20.24 72.62,20.24 Z M72.58,19.2 C74.86,19.2 75.94,17.44 75.94,16 C75.94,13.82 74.52,12.78 72.6,12.78 C71.14,12.78 69.72,13.72 68.96,15.06 C69.12,16.88 70.08,19.2 72.58,19.2 Z M84.3,10.52 L84.3,14.46 L93.24,14.46 L93.24,10.52 L84.3,10.52 Z M93.24,9.5 L93.24,5.64 L84.3,5.64 L84.3,9.5 L93.24,9.5 Z M84.24,15.48 C84.04,18.1 83.28,20.26 81.96,21.96 L81.12,21.2 C82.5,19.4 83.2,17.1 83.24,14.3 L83.24,4.6 L94.32,4.6 L94.32,20.22 C94.32,21.24 93.82,21.76 92.82,21.76 L90.2,21.76 L89.92,20.72 C90.84,20.74 91.68,20.76 92.46,20.76 C92.98,20.76 93.24,20.44 93.24,19.82 L93.24,15.48 L84.24,15.48 Z" id="2018年-6月"></path>
        </g>
        <g id="Group-3-Copy-4" transform="translate(872.000000, 244.000000)" fill="#FFFFFF">
            <g id="Group-2" transform="translate(0.000000, 33.000000)">
                <path d="M0.98,4.004 L7.77,4.004 L7.77,5.306 L2.506,5.306 L2.506,8.218 L7.476,8.218 L7.476,9.52 L2.506,9.52 L2.506,14 L0.98,14 L0.98,4.004 Z M8.974,6.762 L10.458,6.762 L10.458,11.172 C10.458,11.788 10.584,12.236 10.85,12.516 C11.102,12.796 11.522,12.95 12.096,12.95 C12.488,12.95 12.838,12.782 13.174,12.474 C13.51,12.152 13.748,11.718 13.874,11.186 L13.874,6.762 L15.358,6.762 L15.358,14 L13.874,14 L13.874,13.02 C13.258,13.804 12.502,14.196 11.592,14.196 C9.842,14.196 8.974,13.216 8.974,11.27 L8.974,6.762 Z M19.25,4.424 L19.25,6.762 L20.902,6.762 L20.902,7.994 L19.25,7.994 L19.25,12.194 C19.25,12.39 19.292,12.53 19.376,12.628 C19.46,12.712 19.586,12.768 19.768,12.768 L20.72,12.768 L20.72,14 L19.53,14 C18.914,14 18.452,13.832 18.172,13.51 C17.892,13.202 17.766,12.768 17.766,12.194 L17.766,7.994 L16.422,7.994 L16.422,6.762 L17.766,6.762 L17.766,5.04 L19.25,4.424 Z M25.452,6.566 C25.816,6.566 26.138,6.622 26.39,6.748 L26.39,8.232 C26.026,8.12 25.676,8.078 25.34,8.078 C24.892,8.078 24.486,8.26 24.136,8.624 C23.758,9.016 23.576,9.534 23.576,10.164 L23.576,14 L22.092,14 L22.092,6.762 L23.576,6.762 L23.576,7.854 C23.758,7.462 23.996,7.168 24.276,6.972 C24.612,6.692 25.004,6.566 25.452,6.566 Z M27.3,6.762 L28.784,6.762 L28.784,11.172 C28.784,11.788 28.91,12.236 29.176,12.516 C29.428,12.796 29.848,12.95 30.422,12.95 C30.814,12.95 31.164,12.782 31.5,12.474 C31.836,12.152 32.074,11.718 32.2,11.186 L32.2,6.762 L33.684,6.762 L33.684,14 L32.2,14 L32.2,13.02 C31.584,13.804 30.828,14.196 29.918,14.196 C28.168,14.196 27.3,13.216 27.3,11.27 L27.3,6.762 Z M38.444,6.566 C39.62,6.566 40.53,6.958 41.146,7.77 C41.706,8.498 42,9.506 42.014,10.794 L36.526,10.794 C36.582,11.494 36.764,12.04 37.1,12.418 C37.436,12.782 37.898,12.978 38.486,12.978 C39.004,12.978 39.424,12.852 39.746,12.614 C39.998,12.418 40.208,12.096 40.404,11.676 L41.888,11.676 C41.72,12.348 41.398,12.922 40.894,13.37 C40.264,13.916 39.466,14.196 38.5,14.196 C37.436,14.196 36.582,13.86 35.966,13.202 C35.294,12.502 34.958,11.564 34.958,10.374 C34.958,9.296 35.266,8.4 35.91,7.672 C36.526,6.93 37.38,6.566 38.444,6.566 Z M38.486,7.784 C37.926,7.784 37.492,7.938 37.156,8.274 C36.848,8.596 36.638,9.058 36.554,9.674 L40.46,9.674 C40.32,8.414 39.662,7.784 38.486,7.784 Z M48.076,4.004 L52.5,4.004 C53.508,4.004 54.32,4.228 54.908,4.69 C55.524,5.194 55.832,5.908 55.832,6.86 C55.832,7.392 55.692,7.854 55.412,8.26 C55.09,8.708 54.656,9.002 54.11,9.142 L54.11,9.17 C55.006,9.366 55.496,9.954 55.608,10.934 L55.776,12.53 C55.832,13.146 56.028,13.636 56.364,14 L54.712,14 C54.474,13.692 54.334,13.244 54.278,12.684 L54.152,11.438 C54.096,10.878 53.914,10.486 53.62,10.234 C53.312,9.982 52.878,9.87 52.304,9.87 L49.602,9.87 L49.602,14 L48.076,14 L48.076,4.004 Z M49.602,5.306 L49.602,8.568 L52.304,8.568 C52.976,8.568 53.48,8.414 53.816,8.134 C54.138,7.854 54.306,7.448 54.306,6.916 C54.306,6.356 54.138,5.95 53.83,5.698 C53.494,5.432 52.99,5.306 52.29,5.306 L49.602,5.306 Z M60.69,6.566 C61.866,6.566 62.776,6.958 63.392,7.77 C63.952,8.498 64.246,9.506 64.26,10.794 L58.772,10.794 C58.828,11.494 59.01,12.04 59.346,12.418 C59.682,12.782 60.144,12.978 60.732,12.978 C61.25,12.978 61.67,12.852 61.992,12.614 C62.244,12.418 62.454,12.096 62.65,11.676 L64.134,11.676 C63.966,12.348 63.644,12.922 63.14,13.37 C62.51,13.916 61.712,14.196 60.746,14.196 C59.682,14.196 58.828,13.86 58.212,13.202 C57.54,12.502 57.204,11.564 57.204,10.374 C57.204,9.296 57.512,8.4 58.156,7.672 C58.772,6.93 59.626,6.566 60.69,6.566 Z M60.732,7.784 C60.172,7.784 59.738,7.938 59.402,8.274 C59.094,8.596 58.884,9.058 58.8,9.674 L62.706,9.674 C62.566,8.414 61.908,7.784 60.732,7.784 Z M65.688,3.808 L67.172,3.808 L67.172,14 L65.688,14 L65.688,3.808 Z M72.086,6.566 C73.262,6.566 74.172,6.958 74.788,7.77 C75.348,8.498 75.642,9.506 75.656,10.794 L70.168,10.794 C70.224,11.494 70.406,12.04 70.742,12.418 C71.078,12.782 71.54,12.978 72.128,12.978 C72.646,12.978 73.066,12.852 73.388,12.614 C73.64,12.418 73.85,12.096 74.046,11.676 L75.53,11.676 C75.362,12.348 75.04,12.922 74.536,13.37 C73.906,13.916 73.108,14.196 72.142,14.196 C71.078,14.196 70.224,13.86 69.608,13.202 C68.936,12.502 68.6,11.564 68.6,10.374 C68.6,9.296 68.908,8.4 69.552,7.672 C70.168,6.93 71.022,6.566 72.086,6.566 Z M72.128,7.784 C71.568,7.784 71.134,7.938 70.798,8.274 C70.49,8.596 70.28,9.058 70.196,9.674 L74.102,9.674 C73.962,8.414 73.304,7.784 72.128,7.784 Z M80.178,6.566 C81.242,6.566 82.026,6.832 82.53,7.364 C82.964,7.826 83.188,8.498 83.188,9.38 L83.188,14 L81.816,14 L81.816,12.978 C81.536,13.342 81.186,13.636 80.766,13.846 C80.29,14.07 79.73,14.196 79.086,14.196 C78.33,14.196 77.742,14 77.322,13.622 C76.86,13.244 76.636,12.754 76.636,12.152 C76.636,11.34 76.958,10.71 77.602,10.276 C78.19,9.856 79.03,9.646 80.094,9.618 L81.718,9.576 L81.718,9.282 C81.718,8.274 81.172,7.77 80.08,7.77 C79.618,7.77 79.24,7.854 78.96,8.022 C78.624,8.218 78.414,8.512 78.33,8.918 L76.86,8.792 C77.014,8.008 77.406,7.42 78.022,7.056 C78.554,6.72 79.282,6.566 80.178,6.566 Z M81.718,10.654 L80.192,10.696 C78.834,10.724 78.162,11.2 78.162,12.096 C78.162,12.376 78.274,12.6 78.512,12.782 C78.736,12.964 79.044,13.062 79.422,13.062 C80.052,13.062 80.584,12.866 81.032,12.488 C81.48,12.11 81.718,11.634 81.718,11.074 L81.718,10.654 Z M87.584,6.566 C89.46,6.566 90.496,7.322 90.664,8.848 L89.222,8.848 C89.11,8.456 88.942,8.19 88.704,8.036 C88.452,7.868 88.06,7.784 87.556,7.784 C87.108,7.784 86.772,7.84 86.548,7.98 C86.282,8.12 86.156,8.344 86.156,8.624 C86.156,8.876 86.352,9.086 86.744,9.268 C86.996,9.38 87.472,9.52 88.2,9.702 C89.026,9.898 89.642,10.136 90.034,10.388 C90.608,10.752 90.902,11.256 90.902,11.9 C90.902,13.426 89.824,14.196 87.682,14.196 C85.694,14.196 84.63,13.342 84.462,11.662 L85.918,11.662 C86.002,12.152 86.184,12.502 86.436,12.698 C86.688,12.88 87.08,12.978 87.64,12.978 C88.788,12.978 89.376,12.642 89.376,11.998 C89.376,11.648 89.152,11.368 88.732,11.172 C88.508,11.06 88.018,10.92 87.276,10.752 C86.422,10.556 85.82,10.346 85.484,10.122 C84.924,9.772 84.644,9.282 84.644,8.666 C84.644,8.008 84.91,7.49 85.456,7.126 C86.002,6.748 86.716,6.566 87.584,6.566 Z M95.228,6.566 C96.404,6.566 97.314,6.958 97.93,7.77 C98.49,8.498 98.784,9.506 98.798,10.794 L93.31,10.794 C93.366,11.494 93.548,12.04 93.884,12.418 C94.22,12.782 94.682,12.978 95.27,12.978 C95.788,12.978 96.208,12.852 96.53,12.614 C96.782,12.418 96.992,12.096 97.188,11.676 L98.672,11.676 C98.504,12.348 98.182,12.922 97.678,13.37 C97.048,13.916 96.25,14.196 95.284,14.196 C94.22,14.196 93.366,13.86 92.75,13.202 C92.078,12.502 91.742,11.564 91.742,10.374 C91.742,9.296 92.05,8.4 92.694,7.672 C93.31,6.93 94.164,6.566 95.228,6.566 Z M95.27,7.784 C94.71,7.784 94.276,7.938 93.94,8.274 C93.632,8.596 93.422,9.058 93.338,9.674 L97.244,9.674 C97.104,8.414 96.446,7.784 95.27,7.784 Z M102.76,6.566 C104.636,6.566 105.672,7.322 105.84,8.848 L104.398,8.848 C104.286,8.456 104.118,8.19 103.88,8.036 C103.628,7.868 103.236,7.784 102.732,7.784 C102.284,7.784 101.948,7.84 101.724,7.98 C101.458,8.12 101.332,8.344 101.332,8.624 C101.332,8.876 101.528,9.086 101.92,9.268 C102.172,9.38 102.648,9.52 103.376,9.702 C104.202,9.898 104.818,10.136 105.21,10.388 C105.784,10.752 106.078,11.256 106.078,11.9 C106.078,13.426 105,14.196 102.858,14.196 C100.87,14.196 99.806,13.342 99.638,11.662 L101.094,11.662 C101.178,12.152 101.36,12.502 101.612,12.698 C101.864,12.88 102.256,12.978 102.816,12.978 C103.964,12.978 104.552,12.642 104.552,11.998 C104.552,11.648 104.328,11.368 103.908,11.172 C103.684,11.06 103.194,10.92 102.452,10.752 C101.598,10.556 100.996,10.346 100.66,10.122 C100.1,9.772 99.82,9.282 99.82,8.666 C99.82,8.008 100.086,7.49 100.632,7.126 C101.178,6.748 101.892,6.566 102.76,6.566 Z" id="Futrue-Releases"></path>
            </g>
            <path d="M9.92,18 L1.12,18 L1.12,17.06 C5.66,13.4 8.7,10.8 8.7,8.22 C8.7,6.3 7.12,5.5 5.66,5.5 C4,5.5 2.72,6.22 2,7.24 L1.22,6.52 C2.16,5.24 3.78,4.46 5.66,4.46 C7.62,4.46 9.86,5.58 9.86,8.22 C9.86,11.16 6.76,13.84 2.9,16.96 L9.92,16.96 L9.92,18 Z M17.74,18.24 C14.14,18.24 12.8,14.5 12.8,11.34 C12.8,8.16 14.14,4.46 17.74,4.46 C21.3,4.46 22.66,8.16 22.66,11.34 C22.66,14.5 21.3,18.24 17.74,18.24 Z M17.74,17.2 C20.52,17.2 21.44,14.08 21.44,11.34 C21.44,8.58 20.54,5.5 17.74,5.5 C14.92,5.5 14,8.58 14,11.34 C14,14.08 14.92,17.2 17.74,17.2 Z M28.3,18 L27.16,18 L27.16,6.22 L25.02,8.5 L24.32,7.76 L27.26,4.66 L28.3,4.66 L28.3,18 Z M35.38,18.22 C33.64,18.22 32.58,17.52 31.78,16.52 L32.46,15.7 C33.12,16.56 33.92,17.18 35.38,17.18 C38.32,17.18 39.32,14.12 39.32,11.32 L39.32,10.7 C38.76,11.62 37.22,12.92 35.4,12.92 C33,12.92 31.1,11.54 31.1,8.7 C31.1,6.52 32.74,4.44 35.58,4.44 C39.18,4.44 40.48,7.76 40.48,11.34 C40.48,14.76 39.06,18.22 35.38,18.22 Z M35.6,11.9 C37.06,11.9 38.48,10.96 39.24,9.62 C39.08,7.8 38.14,5.48 35.62,5.48 C33.34,5.48 32.26,7.24 32.26,8.68 C32.26,10.86 33.7,11.9 35.6,11.9 Z" id="2019"></path>
        </g>
        <g id="Group-3-Copy" transform="translate(248.000000, 98.000000)" fill="#FFFFFF">
            <g id="Group-2" transform="translate(0.000000, 35.000000)">
                <path d="M0.98,4.004 L8.162,4.004 L8.162,5.306 L2.506,5.306 L2.506,8.218 L7.826,8.218 L7.826,9.52 L2.506,9.52 L2.506,12.698 L8.4,12.698 L8.4,14 L0.98,14 L0.98,4.004 Z M9.366,6.762 L11.102,6.762 L12.698,9.058 L14.28,6.762 L16.016,6.762 L13.51,10.15 L16.324,14 L14.588,14 L12.698,11.242 L10.794,14 L9.044,14 L11.872,10.15 L9.366,6.762 Z M20.86,6.566 C21.924,6.566 22.75,6.944 23.366,7.7 C23.926,8.4 24.206,9.296 24.206,10.416 C24.206,11.48 23.926,12.362 23.38,13.062 C22.792,13.818 21.966,14.196 20.93,14.196 C20.034,14.196 19.306,13.776 18.718,12.936 L18.718,16.772 L17.234,16.772 L17.234,6.762 L18.62,6.762 L18.62,7.63 C19.124,6.916 19.88,6.566 20.86,6.566 Z M20.636,7.77 C19.992,7.77 19.488,8.022 19.138,8.54 C18.83,8.988 18.676,9.59 18.676,10.332 L18.676,10.458 C18.676,11.228 18.858,11.858 19.25,12.334 C19.586,12.768 20.034,12.992 20.594,12.992 C21.322,12.992 21.854,12.754 22.204,12.278 C22.512,11.83 22.68,11.214 22.68,10.416 C22.68,9.618 22.526,9.002 22.246,8.554 C21.896,8.022 21.364,7.77 20.636,7.77 Z M28.966,6.566 C29.33,6.566 29.652,6.622 29.904,6.748 L29.904,8.232 C29.54,8.12 29.19,8.078 28.854,8.078 C28.406,8.078 28,8.26 27.65,8.624 C27.272,9.016 27.09,9.534 27.09,10.164 L27.09,14 L25.606,14 L25.606,6.762 L27.09,6.762 L27.09,7.854 C27.272,7.462 27.51,7.168 27.79,6.972 C28.126,6.692 28.518,6.566 28.966,6.566 Z M33.88,6.566 C35.056,6.566 35.966,6.958 36.582,7.77 C37.142,8.498 37.436,9.506 37.45,10.794 L31.962,10.794 C32.018,11.494 32.2,12.04 32.536,12.418 C32.872,12.782 33.334,12.978 33.922,12.978 C34.44,12.978 34.86,12.852 35.182,12.614 C35.434,12.418 35.644,12.096 35.84,11.676 L37.324,11.676 C37.156,12.348 36.834,12.922 36.33,13.37 C35.7,13.916 34.902,14.196 33.936,14.196 C32.872,14.196 32.018,13.86 31.402,13.202 C30.73,12.502 30.394,11.564 30.394,10.374 C30.394,9.296 30.702,8.4 31.346,7.672 C31.962,6.93 32.816,6.566 33.88,6.566 Z M33.922,7.784 C33.362,7.784 32.928,7.938 32.592,8.274 C32.284,8.596 32.074,9.058 31.99,9.674 L35.896,9.674 C35.756,8.414 35.098,7.784 33.922,7.784 Z M41.412,6.566 C43.288,6.566 44.324,7.322 44.492,8.848 L43.05,8.848 C42.938,8.456 42.77,8.19 42.532,8.036 C42.28,7.868 41.888,7.784 41.384,7.784 C40.936,7.784 40.6,7.84 40.376,7.98 C40.11,8.12 39.984,8.344 39.984,8.624 C39.984,8.876 40.18,9.086 40.572,9.268 C40.824,9.38 41.3,9.52 42.028,9.702 C42.854,9.898 43.47,10.136 43.862,10.388 C44.436,10.752 44.73,11.256 44.73,11.9 C44.73,13.426 43.652,14.196 41.51,14.196 C39.522,14.196 38.458,13.342 38.29,11.662 L39.746,11.662 C39.83,12.152 40.012,12.502 40.264,12.698 C40.516,12.88 40.908,12.978 41.468,12.978 C42.616,12.978 43.204,12.642 43.204,11.998 C43.204,11.648 42.98,11.368 42.56,11.172 C42.336,11.06 41.846,10.92 41.104,10.752 C40.25,10.556 39.648,10.346 39.312,10.122 C38.752,9.772 38.472,9.282 38.472,8.666 C38.472,8.008 38.738,7.49 39.284,7.126 C39.83,6.748 40.544,6.566 41.412,6.566 Z M48.692,6.566 C50.568,6.566 51.604,7.322 51.772,8.848 L50.33,8.848 C50.218,8.456 50.05,8.19 49.812,8.036 C49.56,7.868 49.168,7.784 48.664,7.784 C48.216,7.784 47.88,7.84 47.656,7.98 C47.39,8.12 47.264,8.344 47.264,8.624 C47.264,8.876 47.46,9.086 47.852,9.268 C48.104,9.38 48.58,9.52 49.308,9.702 C50.134,9.898 50.75,10.136 51.142,10.388 C51.716,10.752 52.01,11.256 52.01,11.9 C52.01,13.426 50.932,14.196 48.79,14.196 C46.802,14.196 45.738,13.342 45.57,11.662 L47.026,11.662 C47.11,12.152 47.292,12.502 47.544,12.698 C47.796,12.88 48.188,12.978 48.748,12.978 C49.896,12.978 50.484,12.642 50.484,11.998 C50.484,11.648 50.26,11.368 49.84,11.172 C49.616,11.06 49.126,10.92 48.384,10.752 C47.53,10.556 46.928,10.346 46.592,10.122 C46.032,9.772 45.752,9.282 45.752,8.666 C45.752,8.008 46.018,7.49 46.564,7.126 C47.11,6.748 47.824,6.566 48.692,6.566 Z M58.072,4.004 L65.254,4.004 L65.254,5.306 L59.598,5.306 L59.598,8.218 L64.918,8.218 L64.918,9.52 L59.598,9.52 L59.598,12.698 L65.492,12.698 L65.492,14 L58.072,14 L58.072,4.004 Z M72.114,3.808 L73.598,3.808 L73.598,14 L72.212,14 L72.212,13.132 C71.708,13.832 70.952,14.196 69.972,14.196 C68.908,14.196 68.068,13.818 67.466,13.062 C66.906,12.362 66.626,11.452 66.626,10.346 C66.626,9.282 66.892,8.4 67.452,7.7 C68.04,6.944 68.866,6.566 69.902,6.566 C70.784,6.566 71.526,6.986 72.114,7.84 L72.114,3.808 Z M70.238,7.77 C69.51,7.77 68.964,8.008 68.614,8.512 C68.306,8.932 68.152,9.548 68.152,10.346 C68.152,11.144 68.292,11.76 68.586,12.208 C68.922,12.726 69.468,12.992 70.196,12.992 C70.84,12.992 71.33,12.726 71.694,12.222 C72.002,11.76 72.156,11.172 72.156,10.444 L72.156,10.318 C72.156,9.534 71.96,8.904 71.596,8.428 C71.232,7.98 70.784,7.77 70.238,7.77 Z M76.328,3.864 C76.622,3.864 76.874,3.948 77.07,4.144 C77.266,4.326 77.364,4.564 77.364,4.858 C77.364,5.152 77.252,5.39 77.056,5.586 C76.86,5.768 76.608,5.866 76.328,5.866 C76.034,5.866 75.796,5.768 75.6,5.586 C75.404,5.39 75.306,5.138 75.306,4.858 C75.306,4.564 75.404,4.326 75.6,4.144 C75.796,3.948 76.034,3.864 76.328,3.864 Z M75.586,6.762 L77.07,6.762 L77.07,14 L75.586,14 L75.586,6.762 Z M81.27,4.424 L81.27,6.762 L82.922,6.762 L82.922,7.994 L81.27,7.994 L81.27,12.194 C81.27,12.39 81.312,12.53 81.396,12.628 C81.48,12.712 81.606,12.768 81.788,12.768 L82.74,12.768 L82.74,14 L81.55,14 C80.934,14 80.472,13.832 80.192,13.51 C79.912,13.202 79.786,12.768 79.786,12.194 L79.786,7.994 L78.442,7.994 L78.442,6.762 L79.786,6.762 L79.786,5.04 L81.27,4.424 Z M85.162,3.864 C85.456,3.864 85.708,3.948 85.904,4.144 C86.1,4.326 86.198,4.564 86.198,4.858 C86.198,5.152 86.086,5.39 85.89,5.586 C85.694,5.768 85.442,5.866 85.162,5.866 C84.868,5.866 84.63,5.768 84.434,5.586 C84.238,5.39 84.14,5.138 84.14,4.858 C84.14,4.564 84.238,4.326 84.434,4.144 C84.63,3.948 84.868,3.864 85.162,3.864 Z M84.42,6.762 L85.904,6.762 L85.904,14 L84.42,14 L84.42,6.762 Z M91.238,6.566 C92.33,6.566 93.212,6.93 93.87,7.658 C94.514,8.372 94.85,9.282 94.85,10.388 C94.85,11.48 94.528,12.39 93.884,13.09 C93.212,13.818 92.33,14.196 91.238,14.196 C90.146,14.196 89.264,13.818 88.592,13.09 C87.948,12.39 87.626,11.48 87.626,10.388 C87.626,9.282 87.948,8.372 88.606,7.658 C89.264,6.93 90.146,6.566 91.238,6.566 Z M91.238,7.784 C90.552,7.784 90.02,8.05 89.642,8.596 C89.306,9.058 89.152,9.66 89.152,10.388 C89.152,11.116 89.306,11.704 89.642,12.166 C90.02,12.698 90.552,12.978 91.238,12.978 C91.924,12.978 92.456,12.698 92.848,12.166 C93.184,11.69 93.352,11.102 93.352,10.388 C93.352,9.66 93.184,9.058 92.848,8.596 C92.456,8.05 91.924,7.784 91.238,7.784 Z M99.932,6.566 C101.724,6.566 102.634,7.546 102.634,9.534 L102.634,14 L101.15,14 L101.15,9.66 C101.15,8.428 100.576,7.812 99.456,7.812 C99.036,7.812 98.658,7.952 98.35,8.26 C98.014,8.596 97.804,9.058 97.748,9.646 L97.748,14 L96.264,14 L96.264,6.762 L97.748,6.762 L97.748,7.658 C98.028,7.294 98.35,7.028 98.714,6.846 C99.078,6.65 99.484,6.566 99.932,6.566 Z" id="Express-Edition"></path>
                <path d="M3.248,22.004 L4.396,22.004 L4.396,32 L2.87,32 L2.87,23.838 C2.268,24.412 1.498,24.832 0.574,25.098 L0.574,23.586 C1.022,23.474 1.484,23.278 1.988,22.998 C2.492,22.69 2.912,22.368 3.248,22.004 Z M7.616,29.998 C7.896,29.998 8.148,30.096 8.358,30.292 C8.554,30.488 8.666,30.74 8.666,31.048 C8.666,31.328 8.554,31.58 8.358,31.79 C8.148,31.972 7.896,32.07 7.616,32.07 C7.308,32.07 7.07,31.972 6.888,31.79 C6.678,31.58 6.58,31.328 6.58,31.048 C6.58,30.74 6.678,30.488 6.888,30.292 C7.07,30.096 7.308,29.998 7.616,29.998 Z M13.72,21.808 C14.896,21.808 15.806,22.298 16.45,23.292 C17.038,24.216 17.332,25.448 17.332,27.002 C17.332,28.542 17.038,29.788 16.45,30.712 C15.806,31.692 14.896,32.196 13.72,32.196 C12.544,32.196 11.634,31.692 10.99,30.712 C10.402,29.788 10.108,28.556 10.108,27.002 C10.108,25.434 10.402,24.202 10.99,23.292 C11.634,22.298 12.544,21.808 13.72,21.808 Z M13.72,23.096 C12.894,23.096 12.32,23.544 11.984,24.454 C11.732,25.07 11.62,25.924 11.62,27.002 C11.62,28.066 11.732,28.92 11.984,29.55 C12.32,30.446 12.894,30.908 13.72,30.908 C14.532,30.908 15.12,30.446 15.456,29.55 C15.694,28.92 15.82,28.066 15.82,27.002 C15.82,25.924 15.694,25.07 15.456,24.454 C15.12,23.544 14.532,23.096 13.72,23.096 Z M19.824,29.998 C20.104,29.998 20.356,30.096 20.566,30.292 C20.762,30.488 20.874,30.74 20.874,31.048 C20.874,31.328 20.762,31.58 20.566,31.79 C20.356,31.972 20.104,32.07 19.824,32.07 C19.516,32.07 19.278,31.972 19.096,31.79 C18.886,31.58 18.788,31.328 18.788,31.048 C18.788,30.74 18.886,30.488 19.096,30.292 C19.278,30.096 19.516,29.998 19.824,29.998 Z M25.928,21.808 C27.104,21.808 28.014,22.298 28.658,23.292 C29.246,24.216 29.54,25.448 29.54,27.002 C29.54,28.542 29.246,29.788 28.658,30.712 C28.014,31.692 27.104,32.196 25.928,32.196 C24.752,32.196 23.842,31.692 23.198,30.712 C22.61,29.788 22.316,28.556 22.316,27.002 C22.316,25.434 22.61,24.202 23.198,23.292 C23.842,22.298 24.752,21.808 25.928,21.808 Z M25.928,23.096 C25.102,23.096 24.528,23.544 24.192,24.454 C23.94,25.07 23.828,25.924 23.828,27.002 C23.828,28.066 23.94,28.92 24.192,29.55 C24.528,30.446 25.102,30.908 25.928,30.908 C26.74,30.908 27.328,30.446 27.664,29.55 C27.902,28.92 28.028,28.066 28.028,27.002 C28.028,25.924 27.902,25.07 27.664,24.454 C27.328,23.544 26.74,23.096 25.928,23.096 Z" id="1.0.0"></path>
            </g>
            <path d="M9.92,20 L1.12,20 L1.12,19.06 C5.66,15.4 8.7,12.8 8.7,10.22 C8.7,8.3 7.12,7.5 5.66,7.5 C4,7.5 2.72,8.22 2,9.24 L1.22,8.52 C2.16,7.24 3.78,6.46 5.66,6.46 C7.62,6.46 9.86,7.58 9.86,10.22 C9.86,13.16 6.76,15.84 2.9,18.96 L9.92,18.96 L9.92,20 Z M17.74,20.24 C14.14,20.24 12.8,16.5 12.8,13.34 C12.8,10.16 14.14,6.46 17.74,6.46 C21.3,6.46 22.66,10.16 22.66,13.34 C22.66,16.5 21.3,20.24 17.74,20.24 Z M17.74,19.2 C20.52,19.2 21.44,16.08 21.44,13.34 C21.44,10.58 20.54,7.5 17.74,7.5 C14.92,7.5 14,10.58 14,13.34 C14,16.08 14.92,19.2 17.74,19.2 Z M28.3,20 L27.16,20 L27.16,8.22 L25.02,10.5 L24.32,9.76 L27.26,6.66 L28.3,6.66 L28.3,20 Z M35.68,20.24 C33.1,20.24 31.14,18.84 31.14,16.66 C31.14,14.8 32.76,13.58 34.46,13.12 C32.88,12.7 31.36,11.68 31.36,9.9 C31.36,7.54 33.58,6.46 35.68,6.46 C37.76,6.46 40,7.54 40,9.9 C40,11.68 38.48,12.7 36.9,13.12 C38.6,13.58 40.22,14.8 40.22,16.66 C40.22,18.82 38.24,20.24 35.68,20.24 Z M35.68,12.64 C36.5,12.48 38.84,11.88 38.84,10.02 C38.84,8.42 37.42,7.5 35.68,7.5 C33.94,7.5 32.52,8.42 32.52,10.02 C32.52,11.88 34.88,12.48 35.68,12.64 Z M35.68,19.2 C37.42,19.2 39.06,18.2 39.06,16.58 C39.06,14.54 36.48,13.74 35.68,13.64 C34.86,13.74 32.3,14.54 32.3,16.58 C32.3,18.2 33.9,19.2 35.68,19.2 Z M46.3,7.12 C45.48,8.56 44.44,9.76 43.16,10.74 L42.42,9.82 C44.48,8.26 45.86,6.18 46.58,3.54 L47.68,3.74 C47.44,4.58 47.16,5.34 46.84,6.06 L59.48,6.06 L59.48,7.12 L53.06,7.12 L53.06,10.7 L58.78,10.7 L58.78,11.72 L53.06,11.72 L53.06,16.38 L60.12,16.38 L60.12,17.46 L53.06,17.46 L53.06,22.02 L52,22.02 L52,17.46 L42.62,17.46 L42.62,16.38 L46,16.38 L46,10.7 L52,10.7 L52,7.12 L46.3,7.12 Z M47.1,16.38 L52,16.38 L52,11.72 L47.1,11.72 L47.1,16.38 Z M70.26,20 L69,20 L74.6,7.7 L67.22,7.7 L67.22,6.66 L75.96,6.66 L75.96,7.46 L70.26,20 Z M82.66,10.52 L82.66,14.46 L91.6,14.46 L91.6,10.52 L82.66,10.52 Z M91.6,9.5 L91.6,5.64 L82.66,5.64 L82.66,9.5 L91.6,9.5 Z M82.6,15.48 C82.4,18.1 81.64,20.26 80.32,21.96 L79.48,21.2 C80.86,19.4 81.56,17.1 81.6,14.3 L81.6,4.6 L92.68,4.6 L92.68,20.22 C92.68,21.24 92.18,21.76 91.18,21.76 L88.56,21.76 L88.28,20.72 C89.2,20.74 90.04,20.76 90.82,20.76 C91.34,20.76 91.6,20.44 91.6,19.82 L91.6,15.48 L82.6,15.48 Z" id="2018年-7月"></path>
        </g>
        <g id="Group-3-Copy-2" transform="translate(456.000000, 234.000000)" fill="#FFFFFF">
            <g id="Group-2" transform="translate(0.000000, 43.000000)">
                <path d="M3.85,4.004 L5.586,4.004 L9.436,14 L7.798,14 L6.86,11.424 L2.562,11.424 L1.624,14 L0,14 L3.85,4.004 Z M3.024,10.164 L6.398,10.164 L4.746,5.642 L4.69,5.642 L3.024,10.164 Z M15.484,3.808 L16.968,3.808 L16.968,14 L15.582,14 L15.582,13.132 C15.078,13.832 14.322,14.196 13.342,14.196 C12.278,14.196 11.438,13.818 10.836,13.062 C10.276,12.362 9.996,11.452 9.996,10.346 C9.996,9.282 10.262,8.4 10.822,7.7 C11.41,6.944 12.236,6.566 13.272,6.566 C14.154,6.566 14.896,6.986 15.484,7.84 L15.484,3.808 Z M13.608,7.77 C12.88,7.77 12.334,8.008 11.984,8.512 C11.676,8.932 11.522,9.548 11.522,10.346 C11.522,11.144 11.662,11.76 11.956,12.208 C12.292,12.726 12.838,12.992 13.566,12.992 C14.21,12.992 14.7,12.726 15.064,12.222 C15.372,11.76 15.526,11.172 15.526,10.444 L15.526,10.318 C15.526,9.534 15.33,8.904 14.966,8.428 C14.602,7.98 14.154,7.77 13.608,7.77 Z M17.878,6.762 L19.488,6.762 L21.308,12.152 L23.128,6.762 L24.738,6.762 L22.05,14 L20.566,14 L17.878,6.762 Z M28.91,6.566 C29.974,6.566 30.758,6.832 31.262,7.364 C31.696,7.826 31.92,8.498 31.92,9.38 L31.92,14 L30.548,14 L30.548,12.978 C30.268,13.342 29.918,13.636 29.498,13.846 C29.022,14.07 28.462,14.196 27.818,14.196 C27.062,14.196 26.474,14 26.054,13.622 C25.592,13.244 25.368,12.754 25.368,12.152 C25.368,11.34 25.69,10.71 26.334,10.276 C26.922,9.856 27.762,9.646 28.826,9.618 L30.45,9.576 L30.45,9.282 C30.45,8.274 29.904,7.77 28.812,7.77 C28.35,7.77 27.972,7.854 27.692,8.022 C27.356,8.218 27.146,8.512 27.062,8.918 L25.592,8.792 C25.746,8.008 26.138,7.42 26.754,7.056 C27.286,6.72 28.014,6.566 28.91,6.566 Z M30.45,10.654 L28.924,10.696 C27.566,10.724 26.894,11.2 26.894,12.096 C26.894,12.376 27.006,12.6 27.244,12.782 C27.468,12.964 27.776,13.062 28.154,13.062 C28.784,13.062 29.316,12.866 29.764,12.488 C30.212,12.11 30.45,11.634 30.45,11.074 L30.45,10.654 Z M37.282,6.566 C39.074,6.566 39.984,7.546 39.984,9.534 L39.984,14 L38.5,14 L38.5,9.66 C38.5,8.428 37.926,7.812 36.806,7.812 C36.386,7.812 36.008,7.952 35.7,8.26 C35.364,8.596 35.154,9.058 35.098,9.646 L35.098,14 L33.614,14 L33.614,6.762 L35.098,6.762 L35.098,7.658 C35.378,7.294 35.7,7.028 36.064,6.846 C36.428,6.65 36.834,6.566 37.282,6.566 Z M44.898,6.566 C45.822,6.566 46.564,6.776 47.124,7.196 C47.684,7.644 48.048,8.316 48.188,9.212 L46.718,9.212 C46.62,8.722 46.424,8.358 46.116,8.134 C45.808,7.896 45.402,7.784 44.898,7.784 C44.282,7.784 43.806,8.008 43.456,8.47 C43.092,8.918 42.924,9.562 42.924,10.374 C42.924,11.186 43.092,11.83 43.442,12.292 C43.764,12.74 44.24,12.978 44.884,12.978 C45.99,12.978 46.606,12.418 46.746,11.326 L48.216,11.326 C48.048,12.292 47.67,13.02 47.11,13.496 C46.55,13.958 45.794,14.196 44.87,14.196 C43.764,14.196 42.91,13.832 42.294,13.104 C41.692,12.404 41.398,11.508 41.398,10.388 C41.398,9.296 41.692,8.4 42.28,7.7 C42.91,6.944 43.778,6.566 44.898,6.566 Z M52.556,6.566 C53.732,6.566 54.642,6.958 55.258,7.77 C55.818,8.498 56.112,9.506 56.126,10.794 L50.638,10.794 C50.694,11.494 50.876,12.04 51.212,12.418 C51.548,12.782 52.01,12.978 52.598,12.978 C53.116,12.978 53.536,12.852 53.858,12.614 C54.11,12.418 54.32,12.096 54.516,11.676 L56,11.676 C55.832,12.348 55.51,12.922 55.006,13.37 C54.376,13.916 53.578,14.196 52.612,14.196 C51.548,14.196 50.694,13.86 50.078,13.202 C49.406,12.502 49.07,11.564 49.07,10.374 C49.07,9.296 49.378,8.4 50.022,7.672 C50.638,6.93 51.492,6.566 52.556,6.566 Z M52.598,7.784 C52.038,7.784 51.604,7.938 51.268,8.274 C50.96,8.596 50.75,9.058 50.666,9.674 L54.572,9.674 C54.432,8.414 53.774,7.784 52.598,7.784 Z M62.594,3.808 L64.078,3.808 L64.078,14 L62.692,14 L62.692,13.132 C62.188,13.832 61.432,14.196 60.452,14.196 C59.388,14.196 58.548,13.818 57.946,13.062 C57.386,12.362 57.106,11.452 57.106,10.346 C57.106,9.282 57.372,8.4 57.932,7.7 C58.52,6.944 59.346,6.566 60.382,6.566 C61.264,6.566 62.006,6.986 62.594,7.84 L62.594,3.808 Z M60.718,7.77 C59.99,7.77 59.444,8.008 59.094,8.512 C58.786,8.932 58.632,9.548 58.632,10.346 C58.632,11.144 58.772,11.76 59.066,12.208 C59.402,12.726 59.948,12.992 60.676,12.992 C61.32,12.992 61.81,12.726 62.174,12.222 C62.482,11.76 62.636,11.172 62.636,10.444 L62.636,10.318 C62.636,9.534 62.44,8.904 62.076,8.428 C61.712,7.98 61.264,7.77 60.718,7.77 Z M70.56,4.004 L77.742,4.004 L77.742,5.306 L72.086,5.306 L72.086,8.218 L77.406,8.218 L77.406,9.52 L72.086,9.52 L72.086,12.698 L77.98,12.698 L77.98,14 L70.56,14 L70.56,4.004 Z M84.602,3.808 L86.086,3.808 L86.086,14 L84.7,14 L84.7,13.132 C84.196,13.832 83.44,14.196 82.46,14.196 C81.396,14.196 80.556,13.818 79.954,13.062 C79.394,12.362 79.114,11.452 79.114,10.346 C79.114,9.282 79.38,8.4 79.94,7.7 C80.528,6.944 81.354,6.566 82.39,6.566 C83.272,6.566 84.014,6.986 84.602,7.84 L84.602,3.808 Z M82.726,7.77 C81.998,7.77 81.452,8.008 81.102,8.512 C80.794,8.932 80.64,9.548 80.64,10.346 C80.64,11.144 80.78,11.76 81.074,12.208 C81.41,12.726 81.956,12.992 82.684,12.992 C83.328,12.992 83.818,12.726 84.182,12.222 C84.49,11.76 84.644,11.172 84.644,10.444 L84.644,10.318 C84.644,9.534 84.448,8.904 84.084,8.428 C83.72,7.98 83.272,7.77 82.726,7.77 Z M88.816,3.864 C89.11,3.864 89.362,3.948 89.558,4.144 C89.754,4.326 89.852,4.564 89.852,4.858 C89.852,5.152 89.74,5.39 89.544,5.586 C89.348,5.768 89.096,5.866 88.816,5.866 C88.522,5.866 88.284,5.768 88.088,5.586 C87.892,5.39 87.794,5.138 87.794,4.858 C87.794,4.564 87.892,4.326 88.088,4.144 C88.284,3.948 88.522,3.864 88.816,3.864 Z M88.074,6.762 L89.558,6.762 L89.558,14 L88.074,14 L88.074,6.762 Z M93.758,4.424 L93.758,6.762 L95.41,6.762 L95.41,7.994 L93.758,7.994 L93.758,12.194 C93.758,12.39 93.8,12.53 93.884,12.628 C93.968,12.712 94.094,12.768 94.276,12.768 L95.228,12.768 L95.228,14 L94.038,14 C93.422,14 92.96,13.832 92.68,13.51 C92.4,13.202 92.274,12.768 92.274,12.194 L92.274,7.994 L90.93,7.994 L90.93,6.762 L92.274,6.762 L92.274,5.04 L93.758,4.424 Z M97.65,3.864 C97.944,3.864 98.196,3.948 98.392,4.144 C98.588,4.326 98.686,4.564 98.686,4.858 C98.686,5.152 98.574,5.39 98.378,5.586 C98.182,5.768 97.93,5.866 97.65,5.866 C97.356,5.866 97.118,5.768 96.922,5.586 C96.726,5.39 96.628,5.138 96.628,4.858 C96.628,4.564 96.726,4.326 96.922,4.144 C97.118,3.948 97.356,3.864 97.65,3.864 Z M96.908,6.762 L98.392,6.762 L98.392,14 L96.908,14 L96.908,6.762 Z M103.726,6.566 C104.818,6.566 105.7,6.93 106.358,7.658 C107.002,8.372 107.338,9.282 107.338,10.388 C107.338,11.48 107.016,12.39 106.372,13.09 C105.7,13.818 104.818,14.196 103.726,14.196 C102.634,14.196 101.752,13.818 101.08,13.09 C100.436,12.39 100.114,11.48 100.114,10.388 C100.114,9.282 100.436,8.372 101.094,7.658 C101.752,6.93 102.634,6.566 103.726,6.566 Z M103.726,7.784 C103.04,7.784 102.508,8.05 102.13,8.596 C101.794,9.058 101.64,9.66 101.64,10.388 C101.64,11.116 101.794,11.704 102.13,12.166 C102.508,12.698 103.04,12.978 103.726,12.978 C104.412,12.978 104.944,12.698 105.336,12.166 C105.672,11.69 105.84,11.102 105.84,10.388 C105.84,9.66 105.672,9.058 105.336,8.596 C104.944,8.05 104.412,7.784 103.726,7.784 Z M112.42,6.566 C114.212,6.566 115.122,7.546 115.122,9.534 L115.122,14 L113.638,14 L113.638,9.66 C113.638,8.428 113.064,7.812 111.944,7.812 C111.524,7.812 111.146,7.952 110.838,8.26 C110.502,8.596 110.292,9.058 110.236,9.646 L110.236,14 L108.752,14 L108.752,6.762 L110.236,6.762 L110.236,7.658 C110.516,7.294 110.838,7.028 111.202,6.846 C111.566,6.65 111.972,6.566 112.42,6.566 Z" id="Advanced-Edition"></path>
                <path d="M3.248,22.004 L4.396,22.004 L4.396,32 L2.87,32 L2.87,23.838 C2.268,24.412 1.498,24.832 0.574,25.098 L0.574,23.586 C1.022,23.474 1.484,23.278 1.988,22.998 C2.492,22.69 2.912,22.368 3.248,22.004 Z M7.616,29.998 C7.896,29.998 8.148,30.096 8.358,30.292 C8.554,30.488 8.666,30.74 8.666,31.048 C8.666,31.328 8.554,31.58 8.358,31.79 C8.148,31.972 7.896,32.07 7.616,32.07 C7.308,32.07 7.07,31.972 6.888,31.79 C6.678,31.58 6.58,31.328 6.58,31.048 C6.58,30.74 6.678,30.488 6.888,30.292 C7.07,30.096 7.308,29.998 7.616,29.998 Z M13.72,21.808 C14.896,21.808 15.806,22.298 16.45,23.292 C17.038,24.216 17.332,25.448 17.332,27.002 C17.332,28.542 17.038,29.788 16.45,30.712 C15.806,31.692 14.896,32.196 13.72,32.196 C12.544,32.196 11.634,31.692 10.99,30.712 C10.402,29.788 10.108,28.556 10.108,27.002 C10.108,25.434 10.402,24.202 10.99,23.292 C11.634,22.298 12.544,21.808 13.72,21.808 Z M13.72,23.096 C12.894,23.096 12.32,23.544 11.984,24.454 C11.732,25.07 11.62,25.924 11.62,27.002 C11.62,28.066 11.732,28.92 11.984,29.55 C12.32,30.446 12.894,30.908 13.72,30.908 C14.532,30.908 15.12,30.446 15.456,29.55 C15.694,28.92 15.82,28.066 15.82,27.002 C15.82,25.924 15.694,25.07 15.456,24.454 C15.12,23.544 14.532,23.096 13.72,23.096 Z M19.824,29.998 C20.104,29.998 20.356,30.096 20.566,30.292 C20.762,30.488 20.874,30.74 20.874,31.048 C20.874,31.328 20.762,31.58 20.566,31.79 C20.356,31.972 20.104,32.07 19.824,32.07 C19.516,32.07 19.278,31.972 19.096,31.79 C18.886,31.58 18.788,31.328 18.788,31.048 C18.788,30.74 18.886,30.488 19.096,30.292 C19.278,30.096 19.516,29.998 19.824,29.998 Z M25.928,21.808 C27.104,21.808 28.014,22.298 28.658,23.292 C29.246,24.216 29.54,25.448 29.54,27.002 C29.54,28.542 29.246,29.788 28.658,30.712 C28.014,31.692 27.104,32.196 25.928,32.196 C24.752,32.196 23.842,31.692 23.198,30.712 C22.61,29.788 22.316,28.556 22.316,27.002 C22.316,25.434 22.61,24.202 23.198,23.292 C23.842,22.298 24.752,21.808 25.928,21.808 Z M25.928,23.096 C25.102,23.096 24.528,23.544 24.192,24.454 C23.94,25.07 23.828,25.924 23.828,27.002 C23.828,28.066 23.94,28.92 24.192,29.55 C24.528,30.446 25.102,30.908 25.928,30.908 C26.74,30.908 27.328,30.446 27.664,29.55 C27.902,28.92 28.028,28.066 28.028,27.002 C28.028,25.924 27.902,25.07 27.664,24.454 C27.328,23.544 26.74,23.096 25.928,23.096 Z" id="1.0.0"></path>
            </g>
            <path d="M13.888,24 L1.568,24 L1.568,22.684 C7.924,17.56 12.18,13.92 12.18,10.308 C12.18,7.62 9.968,6.5 7.924,6.5 C5.6,6.5 3.808,7.508 2.8,8.936 L1.708,7.928 C3.024,6.136 5.292,5.044 7.924,5.044 C10.668,5.044 13.804,6.612 13.804,10.308 C13.804,14.424 9.464,18.176 4.06,22.544 L13.888,22.544 L13.888,24 Z M24.836,24.336 C19.796,24.336 17.92,19.1 17.92,14.676 C17.92,10.224 19.796,5.044 24.836,5.044 C29.82,5.044 31.724,10.224 31.724,14.676 C31.724,19.1 29.82,24.336 24.836,24.336 Z M24.836,22.88 C28.728,22.88 30.016,18.512 30.016,14.676 C30.016,10.812 28.756,6.5 24.836,6.5 C20.888,6.5 19.6,10.812 19.6,14.676 C19.6,18.512 20.888,22.88 24.836,22.88 Z M39.62,24 L38.024,24 L38.024,7.508 L35.028,10.7 L34.048,9.664 L38.164,5.324 L39.62,5.324 L39.62,24 Z M49.952,24.336 C46.34,24.336 43.596,22.376 43.596,19.324 C43.596,16.72 45.864,15.012 48.244,14.368 C46.032,13.78 43.904,12.352 43.904,9.86 C43.904,6.556 47.012,5.044 49.952,5.044 C52.864,5.044 56,6.556 56,9.86 C56,12.352 53.872,13.78 51.66,14.368 C54.04,15.012 56.308,16.72 56.308,19.324 C56.308,22.348 53.536,24.336 49.952,24.336 Z M49.952,13.696 C51.1,13.472 54.376,12.632 54.376,10.028 C54.376,7.788 52.388,6.5 49.952,6.5 C47.516,6.5 45.528,7.788 45.528,10.028 C45.528,12.632 48.832,13.472 49.952,13.696 Z M49.952,22.88 C52.388,22.88 54.684,21.48 54.684,19.212 C54.684,16.356 51.072,15.236 49.952,15.096 C48.804,15.236 45.22,16.356 45.22,19.212 C45.22,21.48 47.46,22.88 49.952,22.88 Z M64.82,5.968 C63.672,7.984 62.216,9.664 60.424,11.036 L59.388,9.748 C62.272,7.564 64.204,4.652 65.212,0.956 L66.752,1.236 C66.416,2.412 66.024,3.476 65.576,4.484 L83.272,4.484 L83.272,5.968 L74.284,5.968 L74.284,10.98 L82.292,10.98 L82.292,12.408 L74.284,12.408 L74.284,18.932 L84.168,18.932 L84.168,20.444 L74.284,20.444 L74.284,26.828 L72.8,26.828 L72.8,20.444 L59.668,20.444 L59.668,18.932 L64.4,18.932 L64.4,10.98 L72.8,10.98 L72.8,5.968 L64.82,5.968 Z M65.94,18.932 L72.8,18.932 L72.8,12.408 L65.94,12.408 L65.94,18.932 Z M99.484,24 L97.888,24 L97.888,7.508 L94.892,10.7 L93.912,9.664 L98.028,5.324 L99.484,5.324 L99.484,24 Z M115.696,24 L103.376,24 L103.376,22.684 C109.732,17.56 113.988,13.92 113.988,10.308 C113.988,7.62 111.776,6.5 109.732,6.5 C107.408,6.5 105.616,7.508 104.608,8.936 L103.516,7.928 C104.832,6.136 107.1,5.044 109.732,5.044 C112.476,5.044 115.612,6.612 115.612,10.308 C115.612,14.424 111.272,18.176 105.868,22.544 L115.696,22.544 L115.696,24 Z M126.588,10.728 L126.588,16.244 L139.104,16.244 L139.104,10.728 L126.588,10.728 Z M139.104,9.3 L139.104,3.896 L126.588,3.896 L126.588,9.3 L139.104,9.3 Z M126.504,17.672 C126.224,21.34 125.16,24.364 123.312,26.744 L122.136,25.68 C124.068,23.16 125.048,19.94 125.104,16.02 L125.104,2.44 L140.616,2.44 L140.616,24.308 C140.616,25.736 139.916,26.464 138.516,26.464 L134.848,26.464 L134.456,25.008 C135.744,25.036 136.92,25.064 138.012,25.064 C138.74,25.064 139.104,24.616 139.104,23.748 L139.104,17.672 L126.504,17.672 Z" id="2018年-12月"></path>
        </g>
        <g id="Group-3-Copy-3" transform="translate(664.000000, 98.000000)" fill="#FFFFFF">
            <g id="Group-2" transform="translate(0.000000, 47.000000)">
                <path d="M3.85,4.004 L5.586,4.004 L9.436,14 L7.798,14 L6.86,11.424 L2.562,11.424 L1.624,14 L0,14 L3.85,4.004 Z M3.024,10.164 L6.398,10.164 L4.746,5.642 L4.69,5.642 L3.024,10.164 Z M15.484,3.808 L16.968,3.808 L16.968,14 L15.582,14 L15.582,13.132 C15.078,13.832 14.322,14.196 13.342,14.196 C12.278,14.196 11.438,13.818 10.836,13.062 C10.276,12.362 9.996,11.452 9.996,10.346 C9.996,9.282 10.262,8.4 10.822,7.7 C11.41,6.944 12.236,6.566 13.272,6.566 C14.154,6.566 14.896,6.986 15.484,7.84 L15.484,3.808 Z M13.608,7.77 C12.88,7.77 12.334,8.008 11.984,8.512 C11.676,8.932 11.522,9.548 11.522,10.346 C11.522,11.144 11.662,11.76 11.956,12.208 C12.292,12.726 12.838,12.992 13.566,12.992 C14.21,12.992 14.7,12.726 15.064,12.222 C15.372,11.76 15.526,11.172 15.526,10.444 L15.526,10.318 C15.526,9.534 15.33,8.904 14.966,8.428 C14.602,7.98 14.154,7.77 13.608,7.77 Z M17.878,6.762 L19.488,6.762 L21.308,12.152 L23.128,6.762 L24.738,6.762 L22.05,14 L20.566,14 L17.878,6.762 Z M28.91,6.566 C29.974,6.566 30.758,6.832 31.262,7.364 C31.696,7.826 31.92,8.498 31.92,9.38 L31.92,14 L30.548,14 L30.548,12.978 C30.268,13.342 29.918,13.636 29.498,13.846 C29.022,14.07 28.462,14.196 27.818,14.196 C27.062,14.196 26.474,14 26.054,13.622 C25.592,13.244 25.368,12.754 25.368,12.152 C25.368,11.34 25.69,10.71 26.334,10.276 C26.922,9.856 27.762,9.646 28.826,9.618 L30.45,9.576 L30.45,9.282 C30.45,8.274 29.904,7.77 28.812,7.77 C28.35,7.77 27.972,7.854 27.692,8.022 C27.356,8.218 27.146,8.512 27.062,8.918 L25.592,8.792 C25.746,8.008 26.138,7.42 26.754,7.056 C27.286,6.72 28.014,6.566 28.91,6.566 Z M30.45,10.654 L28.924,10.696 C27.566,10.724 26.894,11.2 26.894,12.096 C26.894,12.376 27.006,12.6 27.244,12.782 C27.468,12.964 27.776,13.062 28.154,13.062 C28.784,13.062 29.316,12.866 29.764,12.488 C30.212,12.11 30.45,11.634 30.45,11.074 L30.45,10.654 Z M37.282,6.566 C39.074,6.566 39.984,7.546 39.984,9.534 L39.984,14 L38.5,14 L38.5,9.66 C38.5,8.428 37.926,7.812 36.806,7.812 C36.386,7.812 36.008,7.952 35.7,8.26 C35.364,8.596 35.154,9.058 35.098,9.646 L35.098,14 L33.614,14 L33.614,6.762 L35.098,6.762 L35.098,7.658 C35.378,7.294 35.7,7.028 36.064,6.846 C36.428,6.65 36.834,6.566 37.282,6.566 Z M44.898,6.566 C45.822,6.566 46.564,6.776 47.124,7.196 C47.684,7.644 48.048,8.316 48.188,9.212 L46.718,9.212 C46.62,8.722 46.424,8.358 46.116,8.134 C45.808,7.896 45.402,7.784 44.898,7.784 C44.282,7.784 43.806,8.008 43.456,8.47 C43.092,8.918 42.924,9.562 42.924,10.374 C42.924,11.186 43.092,11.83 43.442,12.292 C43.764,12.74 44.24,12.978 44.884,12.978 C45.99,12.978 46.606,12.418 46.746,11.326 L48.216,11.326 C48.048,12.292 47.67,13.02 47.11,13.496 C46.55,13.958 45.794,14.196 44.87,14.196 C43.764,14.196 42.91,13.832 42.294,13.104 C41.692,12.404 41.398,11.508 41.398,10.388 C41.398,9.296 41.692,8.4 42.28,7.7 C42.91,6.944 43.778,6.566 44.898,6.566 Z M52.556,6.566 C53.732,6.566 54.642,6.958 55.258,7.77 C55.818,8.498 56.112,9.506 56.126,10.794 L50.638,10.794 C50.694,11.494 50.876,12.04 51.212,12.418 C51.548,12.782 52.01,12.978 52.598,12.978 C53.116,12.978 53.536,12.852 53.858,12.614 C54.11,12.418 54.32,12.096 54.516,11.676 L56,11.676 C55.832,12.348 55.51,12.922 55.006,13.37 C54.376,13.916 53.578,14.196 52.612,14.196 C51.548,14.196 50.694,13.86 50.078,13.202 C49.406,12.502 49.07,11.564 49.07,10.374 C49.07,9.296 49.378,8.4 50.022,7.672 C50.638,6.93 51.492,6.566 52.556,6.566 Z M52.598,7.784 C52.038,7.784 51.604,7.938 51.268,8.274 C50.96,8.596 50.75,9.058 50.666,9.674 L54.572,9.674 C54.432,8.414 53.774,7.784 52.598,7.784 Z M62.594,3.808 L64.078,3.808 L64.078,14 L62.692,14 L62.692,13.132 C62.188,13.832 61.432,14.196 60.452,14.196 C59.388,14.196 58.548,13.818 57.946,13.062 C57.386,12.362 57.106,11.452 57.106,10.346 C57.106,9.282 57.372,8.4 57.932,7.7 C58.52,6.944 59.346,6.566 60.382,6.566 C61.264,6.566 62.006,6.986 62.594,7.84 L62.594,3.808 Z M60.718,7.77 C59.99,7.77 59.444,8.008 59.094,8.512 C58.786,8.932 58.632,9.548 58.632,10.346 C58.632,11.144 58.772,11.76 59.066,12.208 C59.402,12.726 59.948,12.992 60.676,12.992 C61.32,12.992 61.81,12.726 62.174,12.222 C62.482,11.76 62.636,11.172 62.636,10.444 L62.636,10.318 C62.636,9.534 62.44,8.904 62.076,8.428 C61.712,7.98 61.264,7.77 60.718,7.77 Z M70.56,4.004 L77.742,4.004 L77.742,5.306 L72.086,5.306 L72.086,8.218 L77.406,8.218 L77.406,9.52 L72.086,9.52 L72.086,12.698 L77.98,12.698 L77.98,14 L70.56,14 L70.56,4.004 Z M84.602,3.808 L86.086,3.808 L86.086,14 L84.7,14 L84.7,13.132 C84.196,13.832 83.44,14.196 82.46,14.196 C81.396,14.196 80.556,13.818 79.954,13.062 C79.394,12.362 79.114,11.452 79.114,10.346 C79.114,9.282 79.38,8.4 79.94,7.7 C80.528,6.944 81.354,6.566 82.39,6.566 C83.272,6.566 84.014,6.986 84.602,7.84 L84.602,3.808 Z M82.726,7.77 C81.998,7.77 81.452,8.008 81.102,8.512 C80.794,8.932 80.64,9.548 80.64,10.346 C80.64,11.144 80.78,11.76 81.074,12.208 C81.41,12.726 81.956,12.992 82.684,12.992 C83.328,12.992 83.818,12.726 84.182,12.222 C84.49,11.76 84.644,11.172 84.644,10.444 L84.644,10.318 C84.644,9.534 84.448,8.904 84.084,8.428 C83.72,7.98 83.272,7.77 82.726,7.77 Z M88.816,3.864 C89.11,3.864 89.362,3.948 89.558,4.144 C89.754,4.326 89.852,4.564 89.852,4.858 C89.852,5.152 89.74,5.39 89.544,5.586 C89.348,5.768 89.096,5.866 88.816,5.866 C88.522,5.866 88.284,5.768 88.088,5.586 C87.892,5.39 87.794,5.138 87.794,4.858 C87.794,4.564 87.892,4.326 88.088,4.144 C88.284,3.948 88.522,3.864 88.816,3.864 Z M88.074,6.762 L89.558,6.762 L89.558,14 L88.074,14 L88.074,6.762 Z M93.758,4.424 L93.758,6.762 L95.41,6.762 L95.41,7.994 L93.758,7.994 L93.758,12.194 C93.758,12.39 93.8,12.53 93.884,12.628 C93.968,12.712 94.094,12.768 94.276,12.768 L95.228,12.768 L95.228,14 L94.038,14 C93.422,14 92.96,13.832 92.68,13.51 C92.4,13.202 92.274,12.768 92.274,12.194 L92.274,7.994 L90.93,7.994 L90.93,6.762 L92.274,6.762 L92.274,5.04 L93.758,4.424 Z M97.65,3.864 C97.944,3.864 98.196,3.948 98.392,4.144 C98.588,4.326 98.686,4.564 98.686,4.858 C98.686,5.152 98.574,5.39 98.378,5.586 C98.182,5.768 97.93,5.866 97.65,5.866 C97.356,5.866 97.118,5.768 96.922,5.586 C96.726,5.39 96.628,5.138 96.628,4.858 C96.628,4.564 96.726,4.326 96.922,4.144 C97.118,3.948 97.356,3.864 97.65,3.864 Z M96.908,6.762 L98.392,6.762 L98.392,14 L96.908,14 L96.908,6.762 Z M103.726,6.566 C104.818,6.566 105.7,6.93 106.358,7.658 C107.002,8.372 107.338,9.282 107.338,10.388 C107.338,11.48 107.016,12.39 106.372,13.09 C105.7,13.818 104.818,14.196 103.726,14.196 C102.634,14.196 101.752,13.818 101.08,13.09 C100.436,12.39 100.114,11.48 100.114,10.388 C100.114,9.282 100.436,8.372 101.094,7.658 C101.752,6.93 102.634,6.566 103.726,6.566 Z M103.726,7.784 C103.04,7.784 102.508,8.05 102.13,8.596 C101.794,9.058 101.64,9.66 101.64,10.388 C101.64,11.116 101.794,11.704 102.13,12.166 C102.508,12.698 103.04,12.978 103.726,12.978 C104.412,12.978 104.944,12.698 105.336,12.166 C105.672,11.69 105.84,11.102 105.84,10.388 C105.84,9.66 105.672,9.058 105.336,8.596 C104.944,8.05 104.412,7.784 103.726,7.784 Z M112.42,6.566 C114.212,6.566 115.122,7.546 115.122,9.534 L115.122,14 L113.638,14 L113.638,9.66 C113.638,8.428 113.064,7.812 111.944,7.812 C111.524,7.812 111.146,7.952 110.838,8.26 C110.502,8.596 110.292,9.058 110.236,9.646 L110.236,14 L108.752,14 L108.752,6.762 L110.236,6.762 L110.236,7.658 C110.516,7.294 110.838,7.028 111.202,6.846 C111.566,6.65 111.972,6.566 112.42,6.566 Z" id="Advanced-Edition"></path>
                <path d="M4.354,21.808 C5.306,21.808 6.104,22.074 6.72,22.634 C7.322,23.194 7.63,23.908 7.63,24.79 C7.63,25.658 7.294,26.442 6.65,27.156 C6.258,27.562 5.572,28.094 4.578,28.766 C3.5,29.48 2.856,30.11 2.646,30.656 L7.644,30.656 L7.644,32 L0.756,32 C0.756,31.006 1.078,30.138 1.75,29.382 C2.114,28.948 2.87,28.346 4.004,27.562 C4.676,27.086 5.152,26.708 5.432,26.414 C5.88,25.91 6.118,25.364 6.118,24.776 C6.118,24.216 5.964,23.796 5.656,23.516 C5.348,23.236 4.886,23.096 4.298,23.096 C3.668,23.096 3.192,23.306 2.87,23.74 C2.534,24.16 2.366,24.762 2.338,25.574 L0.812,25.574 C0.826,24.454 1.148,23.558 1.778,22.886 C2.422,22.158 3.29,21.808 4.354,21.808 Z M10.304,29.998 C10.584,29.998 10.836,30.096 11.046,30.292 C11.242,30.488 11.354,30.74 11.354,31.048 C11.354,31.328 11.242,31.58 11.046,31.79 C10.836,31.972 10.584,32.07 10.304,32.07 C9.996,32.07 9.758,31.972 9.576,31.79 C9.366,31.58 9.268,31.328 9.268,31.048 C9.268,30.74 9.366,30.488 9.576,30.292 C9.758,30.096 9.996,29.998 10.304,29.998 Z M16.408,21.808 C17.584,21.808 18.494,22.298 19.138,23.292 C19.726,24.216 20.02,25.448 20.02,27.002 C20.02,28.542 19.726,29.788 19.138,30.712 C18.494,31.692 17.584,32.196 16.408,32.196 C15.232,32.196 14.322,31.692 13.678,30.712 C13.09,29.788 12.796,28.556 12.796,27.002 C12.796,25.434 13.09,24.202 13.678,23.292 C14.322,22.298 15.232,21.808 16.408,21.808 Z M16.408,23.096 C15.582,23.096 15.008,23.544 14.672,24.454 C14.42,25.07 14.308,25.924 14.308,27.002 C14.308,28.066 14.42,28.92 14.672,29.55 C15.008,30.446 15.582,30.908 16.408,30.908 C17.22,30.908 17.808,30.446 18.144,29.55 C18.382,28.92 18.508,28.066 18.508,27.002 C18.508,25.924 18.382,25.07 18.144,24.454 C17.808,23.544 17.22,23.096 16.408,23.096 Z M22.512,29.998 C22.792,29.998 23.044,30.096 23.254,30.292 C23.45,30.488 23.562,30.74 23.562,31.048 C23.562,31.328 23.45,31.58 23.254,31.79 C23.044,31.972 22.792,32.07 22.512,32.07 C22.204,32.07 21.966,31.972 21.784,31.79 C21.574,31.58 21.476,31.328 21.476,31.048 C21.476,30.74 21.574,30.488 21.784,30.292 C21.966,30.096 22.204,29.998 22.512,29.998 Z M28.616,21.808 C29.792,21.808 30.702,22.298 31.346,23.292 C31.934,24.216 32.228,25.448 32.228,27.002 C32.228,28.542 31.934,29.788 31.346,30.712 C30.702,31.692 29.792,32.196 28.616,32.196 C27.44,32.196 26.53,31.692 25.886,30.712 C25.298,29.788 25.004,28.556 25.004,27.002 C25.004,25.434 25.298,24.202 25.886,23.292 C26.53,22.298 27.44,21.808 28.616,21.808 Z M28.616,23.096 C27.79,23.096 27.216,23.544 26.88,24.454 C26.628,25.07 26.516,25.924 26.516,27.002 C26.516,28.066 26.628,28.92 26.88,29.55 C27.216,30.446 27.79,30.908 28.616,30.908 C29.428,30.908 30.016,30.446 30.352,29.55 C30.59,28.92 30.716,28.066 30.716,27.002 C30.716,25.924 30.59,25.07 30.352,24.454 C30.016,23.544 29.428,23.096 28.616,23.096 Z" id="2.0.0"></path>
            </g>
            <path d="M13.888,28 L1.568,28 L1.568,26.684 C7.924,21.56 12.18,17.92 12.18,14.308 C12.18,11.62 9.968,10.5 7.924,10.5 C5.6,10.5 3.808,11.508 2.8,12.936 L1.708,11.928 C3.024,10.136 5.292,9.044 7.924,9.044 C10.668,9.044 13.804,10.612 13.804,14.308 C13.804,18.424 9.464,22.176 4.06,26.544 L13.888,26.544 L13.888,28 Z M24.836,28.336 C19.796,28.336 17.92,23.1 17.92,18.676 C17.92,14.224 19.796,9.044 24.836,9.044 C29.82,9.044 31.724,14.224 31.724,18.676 C31.724,23.1 29.82,28.336 24.836,28.336 Z M24.836,26.88 C28.728,26.88 30.016,22.512 30.016,18.676 C30.016,14.812 28.756,10.5 24.836,10.5 C20.888,10.5 19.6,14.812 19.6,18.676 C19.6,22.512 20.888,26.88 24.836,26.88 Z M39.62,28 L38.024,28 L38.024,11.508 L35.028,14.7 L34.048,13.664 L38.164,9.324 L39.62,9.324 L39.62,28 Z M49.532,28.308 C47.096,28.308 45.612,27.328 44.492,25.928 L45.444,24.78 C46.368,25.984 47.488,26.852 49.532,26.852 C53.648,26.852 55.048,22.568 55.048,18.648 L55.048,17.78 C54.264,19.068 52.108,20.888 49.56,20.888 C46.2,20.888 43.54,18.956 43.54,14.98 C43.54,11.928 45.836,9.016 49.812,9.016 C54.852,9.016 56.672,13.664 56.672,18.676 C56.672,23.464 54.684,28.308 49.532,28.308 Z M49.84,19.46 C51.884,19.46 53.872,18.144 54.936,16.268 C54.712,13.72 53.396,10.472 49.868,10.472 C46.676,10.472 45.164,12.936 45.164,14.952 C45.164,18.004 47.18,19.46 49.84,19.46 Z M65.184,9.968 C64.036,11.984 62.58,13.664 60.788,15.036 L59.752,13.748 C62.636,11.564 64.568,8.652 65.576,4.956 L67.116,5.236 C66.78,6.412 66.388,7.476 65.94,8.484 L83.636,8.484 L83.636,9.968 L74.648,9.968 L74.648,14.98 L82.656,14.98 L82.656,16.408 L74.648,16.408 L74.648,22.932 L84.532,22.932 L84.532,24.444 L74.648,24.444 L74.648,30.828 L73.164,30.828 L73.164,24.444 L60.032,24.444 L60.032,22.932 L64.764,22.932 L64.764,14.98 L73.164,14.98 L73.164,9.968 L65.184,9.968 Z M66.304,22.932 L73.164,22.932 L73.164,16.408 L66.304,16.408 L66.304,22.932 Z M107.436,28 L95.116,28 L95.116,26.684 C101.472,21.56 105.728,17.92 105.728,14.308 C105.728,11.62 103.516,10.5 101.472,10.5 C99.148,10.5 97.356,11.508 96.348,12.936 L95.256,11.928 C96.572,10.136 98.84,9.044 101.472,9.044 C104.216,9.044 107.352,10.612 107.352,14.308 C107.352,18.424 103.012,22.176 97.608,26.544 L107.436,26.544 L107.436,28 Z M118.328,14.728 L118.328,20.244 L130.844,20.244 L130.844,14.728 L118.328,14.728 Z M130.844,13.3 L130.844,7.896 L118.328,7.896 L118.328,13.3 L130.844,13.3 Z M118.244,21.672 C117.964,25.34 116.9,28.364 115.052,30.744 L113.876,29.68 C115.808,27.16 116.788,23.94 116.844,20.02 L116.844,6.44 L132.356,6.44 L132.356,28.308 C132.356,29.736 131.656,30.464 130.256,30.464 L126.588,30.464 L126.196,29.008 C127.484,29.036 128.66,29.064 129.752,29.064 C130.48,29.064 130.844,28.616 130.844,27.748 L130.844,21.672 L118.244,21.672 Z" id="2019年-3月"></path>
        </g>
        <circle id="Oval" stroke="#53A0FD" stroke-width="4" fill="#AAE0EE" cx="48" cy="207" r="8"></circle>
        <circle id="Oval-Copy" stroke="#53A0FD" stroke-width="4" fill="#AAE0EE" cx="256" cy="207" r="8"></circle>
        <circle id="Oval-Copy-3" stroke="#FFFFFF" stroke-width="4" fill="#AAE0EE" cx="672" cy="207" r="8"></circle>
        <circle id="Oval-Copy-4" stroke="#FFFFFF" stroke-width="4" fill="#AAE0EE" cx="880" cy="207" r="8"></circle>
        <circle id="Oval-Copy-2" stroke="#FFFFFF" stroke-width="6" fill="#4A90E2" cx="464" cy="207" r="14"></circle>
    </g>
</svg>