<?xml version="1.0" encoding="UTF-8"?>
<svg width="1440px" height="1054px" viewBox="0 0 1440 1054" version="1.1" xmlns="http://www.w3.org/2000/svg" xmlns:xlink="http://www.w3.org/1999/xlink">
    <!-- Generator: Sketch 52.4 (67378) - http://www.bohemiancoding.com/sketch -->
    <title>多租户管理@2x</title>
    <desc>Created with Sketch.</desc>
    <defs>
        <linearGradient x1="50%" y1="0%" x2="50%" y2="100%" id="linearGradient-1">
            <stop stop-color="#97CA3C" offset="0%"></stop>
            <stop stop-color="#2F7811" offset="100%"></stop>
        </linearGradient>
        <linearGradient x1="55.7419263%" y1="228.145341%" x2="-13.5690962%" y2="-57.7857154%" id="linearGradient-2">
            <stop stop-color="#3023AE" offset="0%"></stop>
            <stop stop-color="#C86DD7" offset="100%"></stop>
        </linearGradient>
        <linearGradient x1="50%" y1="0%" x2="50%" y2="100%" id="linearGradient-3">
            <stop stop-color="#667895" offset="0%"></stop>
            <stop stop-color="#36435C" offset="100%"></stop>
        </linearGradient>
        <rect id="path-4" x="0" y="0" width="190" height="34" rx="4"></rect>
        <mask id="mask-5" maskContentUnits="userSpaceOnUse" maskUnits="objectBoundingBox" x="0" y="0" width="190" height="34" fill="white">
            <use xlink:href="#path-4"></use>
        </mask>
        <rect id="path-6" x="0" y="0" width="190" height="34" rx="4"></rect>
        <mask id="mask-7" maskContentUnits="userSpaceOnUse" maskUnits="objectBoundingBox" x="0" y="0" width="190" height="34" fill="white">
            <use xlink:href="#path-6"></use>
        </mask>
        <rect id="path-8" x="0" y="0" width="190" height="34" rx="4"></rect>
        <mask id="mask-9" maskContentUnits="userSpaceOnUse" maskUnits="objectBoundingBox" x="0" y="0" width="190" height="34" fill="white">
            <use xlink:href="#path-8"></use>
        </mask>
        <rect id="path-10" x="0" y="0" width="192" height="34" rx="4"></rect>
        <mask id="mask-11" maskContentUnits="userSpaceOnUse" maskUnits="objectBoundingBox" x="0" y="0" width="192" height="34" fill="white">
            <use xlink:href="#path-10"></use>
        </mask>
        <rect id="path-12" x="0" y="0" width="192" height="34" rx="4"></rect>
        <mask id="mask-13" maskContentUnits="userSpaceOnUse" maskUnits="objectBoundingBox" x="0" y="0" width="192" height="34" fill="white">
            <use xlink:href="#path-12"></use>
        </mask>
        <rect id="path-14" x="0" y="0" width="192" height="34" rx="4"></rect>
        <mask id="mask-15" maskContentUnits="userSpaceOnUse" maskUnits="objectBoundingBox" x="0" y="0" width="192" height="34" fill="white">
            <use xlink:href="#path-14"></use>
        </mask>
        <rect id="path-16" x="0" y="0" width="192" height="34" rx="4"></rect>
        <mask id="mask-17" maskContentUnits="userSpaceOnUse" maskUnits="objectBoundingBox" x="0" y="0" width="192" height="34" fill="white">
            <use xlink:href="#path-16"></use>
        </mask>
    </defs>
    <g id="多租户管理" stroke="none" stroke-width="1" fill="none" fill-rule="evenodd">
        <rect fill="#FFFFFF" x="0" y="0" width="1440" height="1054"></rect>
        <rect id="Rectangle" fill="#242E42" x="0" y="0" width="1440" height="1054"></rect>
        <path id="Line-2" d="M133.5,844.5 L133.5,856 L133.5,856.5 L132.5,856.5 L132.5,856 L132.5,844.5 L128.5,844.5 L133,835.5 L137.5,844.5 L133.5,844.5 Z" fill="#979797" fill-rule="nonzero"></path>
        <path id="Line-2" d="M133.5,844.5 L133.5,856 L133.5,856.5 L132.5,856.5 L132.5,856 L132.5,844.5 L128.5,844.5 L133,835.5 L137.5,844.5 L133.5,844.5 Z" fill="#979797" fill-rule="nonzero"></path>
        <path id="Line-3" d="M724.5,844.5 L724.5,856 L724.5,856.5 L723.5,856.5 L723.5,856 L723.5,844.5 L719.5,844.5 L724,835.5 L728.5,844.5 L724.5,844.5 Z" fill="#979797" fill-rule="nonzero"></path>
        <g id="Group" transform="translate(40.000000, 32.000000)" fill="#FFFFFF">
            <text id="多租户管理" font-family="PingFangSC-Medium, PingFang SC" font-size="20" font-weight="400" line-spacing="28">
                <tspan x="40" y="21">多租户管理</tspan>
            </text>
            <g id="Glyph/002.Object/022.Enterprise/White">
                <polygon id="Combined-Shape" opacity="0.900000036" points="11.6666667 4.66666667 14 4.66666667 14 25.6666667 11.6666667 25.6666667 11.6666667 19.8333333 8.16666667 19.8333333 8.16666667 25.6666667 5.83333333 25.6666667 5.83333333 4.66666667 8.16666667 4.66666667 8.16666667 2.33333333 11.6666667 2.33333333"></polygon>
                <path d="M18.0833333,14 C20.3384961,14 22.1666667,15.8281706 22.1666667,18.0833333 L22.1666667,25.6666667 L14,25.6666667 L14,18.0833333 C14,15.8281706 15.8281706,14 18.0833333,14 Z M18.0833333,19.8333333 C19.0498316,19.8333333 19.8333333,19.0498316 19.8333333,18.0833333 C19.8333333,17.116835 19.0498316,16.3333333 18.0833333,16.3333333 C17.116835,16.3333333 16.3333333,17.116835 16.3333333,18.0833333 C16.3333333,19.0498316 17.116835,19.8333333 18.0833333,19.8333333 Z" id="Combined-Shape" opacity="0.400000006"></path>
                <polygon id="Rectangle-11" opacity="0.400000006" points="8.16666667 19.8333333 11.6666667 19.8333333 11.6666667 25.6666667 8.16666667 25.6666667"></polygon>
            </g>
        </g>
        <g id="Group-7" transform="translate(40.000000, 80.000000)">
            <path d="M0,0 L196,0 L196,756 L0,756 L0,0 Z" id="Rectangle" fill="#36435C"></path>
            <text id="用户管理" font-family="PingFangSC-Medium, PingFang SC" font-size="14" font-weight="400" line-spacing="18" fill="#FFFFFF">
                <tspan x="12" y="35">用户管理</tspan>
            </text>
            <g id="Group-3" transform="translate(12.000000, 58.000000)">
                <g id="Group-2">
                    <rect id="Rectangle" fill="url(#linearGradient-1)" x="0" y="0" width="80" height="80" rx="4"></rect>
                    <text id="用户A" font-family="PingFangSC-Medium, PingFang SC" font-size="14" font-weight="400" line-spacing="18" fill="#FFFFFF">
                        <tspan x="20.274" y="65">用户A</tspan>
                    </text>
                    <g id="Glyph/002.Object/008.Human/White" transform="translate(24.000000, 12.000000)" fill="#FFFFFF">
                        <path d="M6.66666667,27.7797445 L6.66666667,22.6776175 C6.66666667,20.6689423 7.95200711,18.8856277 9.85760376,18.2504288 L13.6666667,16.9807411 L18.3333333,16.9807411 L22.1423962,18.2504288 C24.0479929,18.8856277 25.3333333,20.6689423 25.3333333,22.6776175 L25.3333333,27.7797445 C22.5385592,28.3341931 19.364794,28.6474078 16,28.6474078 C12.635206,28.6474078 9.46144084,28.3341931 6.66666667,27.7797445 Z" id="Shape" opacity="0.400000006"></path>
                        <path d="M16.0001273,3.31975062 C18.5506186,3.31975062 20.6182003,5.38733235 20.6182003,7.93782368 C20.6182003,8.10727501 20.6088738,8.27659792 20.590263,8.44502414 L20.2922272,11.1422317 C20.0504545,13.3302611 18.2014739,14.9861868 16.0001273,14.9861868 C13.7987807,14.9861868 11.9498,13.3302611 11.7080273,11.1422317 L11.4099915,8.44502414 C11.1298724,5.90996215 12.9578648,3.62780698 15.4929268,3.3476879 C15.661353,3.32907715 15.8306759,3.31975062 16.0001273,3.31975062 Z" id="Path" opacity="0.900000036"></path>
                    </g>
                </g>
                <g id="Group-2-Copy-2" transform="translate(0.000000, 92.000000)">
                    <rect id="Rectangle" fill="url(#linearGradient-1)" x="0" y="0" width="80" height="80" rx="4"></rect>
                    <text id="用户C" font-family="PingFangSC-Medium, PingFang SC" font-size="14" font-weight="400" line-spacing="18" fill="#FFFFFF">
                        <tspan x="19.875" y="65">用户C</tspan>
                    </text>
                    <g id="Glyph/002.Object/008.Human/White" transform="translate(24.000000, 12.000000)" fill="#FFFFFF">
                        <path d="M6.66666667,27.7797445 L6.66666667,22.6776175 C6.66666667,20.6689423 7.95200711,18.8856277 9.85760376,18.2504288 L13.6666667,16.9807411 L18.3333333,16.9807411 L22.1423962,18.2504288 C24.0479929,18.8856277 25.3333333,20.6689423 25.3333333,22.6776175 L25.3333333,27.7797445 C22.5385592,28.3341931 19.364794,28.6474078 16,28.6474078 C12.635206,28.6474078 9.46144084,28.3341931 6.66666667,27.7797445 Z" id="Shape" opacity="0.400000006"></path>
                        <path d="M16.0001273,3.31975062 C18.5506186,3.31975062 20.6182003,5.38733235 20.6182003,7.93782368 C20.6182003,8.10727501 20.6088738,8.27659792 20.590263,8.44502414 L20.2922272,11.1422317 C20.0504545,13.3302611 18.2014739,14.9861868 16.0001273,14.9861868 C13.7987807,14.9861868 11.9498,13.3302611 11.7080273,11.1422317 L11.4099915,8.44502414 C11.1298724,5.90996215 12.9578648,3.62780698 15.4929268,3.3476879 C15.661353,3.32907715 15.8306759,3.31975062 16.0001273,3.31975062 Z" id="Path" opacity="0.900000036"></path>
                    </g>
                </g>
                <g id="Group-2-Copy-4" transform="translate(0.000000, 184.000000)">
                    <rect id="Rectangle" fill="url(#linearGradient-1)" x="0" y="0" width="80" height="80" rx="4"></rect>
                    <text id="用户E" font-family="PingFangSC-Medium, PingFang SC" font-size="14" font-weight="400" line-spacing="18" fill="#FFFFFF">
                        <tspan x="21.505" y="65">用户E</tspan>
                    </text>
                    <g id="Glyph/002.Object/008.Human/White" transform="translate(24.000000, 12.000000)" fill="#FFFFFF">
                        <path d="M6.66666667,27.7797445 L6.66666667,22.6776175 C6.66666667,20.6689423 7.95200711,18.8856277 9.85760376,18.2504288 L13.6666667,16.9807411 L18.3333333,16.9807411 L22.1423962,18.2504288 C24.0479929,18.8856277 25.3333333,20.6689423 25.3333333,22.6776175 L25.3333333,27.7797445 C22.5385592,28.3341931 19.364794,28.6474078 16,28.6474078 C12.635206,28.6474078 9.46144084,28.3341931 6.66666667,27.7797445 Z" id="Shape" opacity="0.400000006"></path>
                        <path d="M16.0001273,3.31975062 C18.5506186,3.31975062 20.6182003,5.38733235 20.6182003,7.93782368 C20.6182003,8.10727501 20.6088738,8.27659792 20.590263,8.44502414 L20.2922272,11.1422317 C20.0504545,13.3302611 18.2014739,14.9861868 16.0001273,14.9861868 C13.7987807,14.9861868 11.9498,13.3302611 11.7080273,11.1422317 L11.4099915,8.44502414 C11.1298724,5.90996215 12.9578648,3.62780698 15.4929268,3.3476879 C15.661353,3.32907715 15.8306759,3.31975062 16.0001273,3.31975062 Z" id="Path" opacity="0.900000036"></path>
                    </g>
                </g>
                <g id="Group-2-Copy-5" transform="translate(93.000000, 184.000000)">
                    <rect id="Rectangle" fill="url(#linearGradient-1)" x="0" y="0" width="80" height="80" rx="4"></rect>
                    <text id="…" font-family="PingFangSC-Medium, PingFang SC" font-size="14" font-weight="400" line-spacing="18" fill="#FFFFFF">
                        <tspan x="31.992" y="65">…</tspan>
                    </text>
                    <g id="Glyph/002.Object/008.Human/White" transform="translate(24.000000, 12.000000)" fill="#FFFFFF">
                        <path d="M6.66666667,27.7797445 L6.66666667,22.6776175 C6.66666667,20.6689423 7.95200711,18.8856277 9.85760376,18.2504288 L13.6666667,16.9807411 L18.3333333,16.9807411 L22.1423962,18.2504288 C24.0479929,18.8856277 25.3333333,20.6689423 25.3333333,22.6776175 L25.3333333,27.7797445 C22.5385592,28.3341931 19.364794,28.6474078 16,28.6474078 C12.635206,28.6474078 9.46144084,28.3341931 6.66666667,27.7797445 Z" id="Shape" opacity="0.400000006"></path>
                        <path d="M16.0001273,3.31975062 C18.5506186,3.31975062 20.6182003,5.38733235 20.6182003,7.93782368 C20.6182003,8.10727501 20.6088738,8.27659792 20.590263,8.44502414 L20.2922272,11.1422317 C20.0504545,13.3302611 18.2014739,14.9861868 16.0001273,14.9861868 C13.7987807,14.9861868 11.9498,13.3302611 11.7080273,11.1422317 L11.4099915,8.44502414 C11.1298724,5.90996215 12.9578648,3.62780698 15.4929268,3.3476879 C15.661353,3.32907715 15.8306759,3.31975062 16.0001273,3.31975062 Z" id="Path" opacity="0.900000036"></path>
                    </g>
                </g>
                <g id="Group-2-Copy-3" transform="translate(92.000000, 92.000000)">
                    <rect id="Rectangle" fill="url(#linearGradient-1)" x="0" y="0" width="80" height="80" rx="4"></rect>
                    <text id="用户D" font-family="PingFangSC-Medium, PingFang SC" font-size="14" font-weight="400" line-spacing="18" fill="#FFFFFF">
                        <tspan x="19.973" y="65">用户D</tspan>
                    </text>
                    <g id="Glyph/002.Object/008.Human/White" transform="translate(24.000000, 12.000000)" fill="#FFFFFF">
                        <path d="M6.66666667,27.7797445 L6.66666667,22.6776175 C6.66666667,20.6689423 7.95200711,18.8856277 9.85760376,18.2504288 L13.6666667,16.9807411 L18.3333333,16.9807411 L22.1423962,18.2504288 C24.0479929,18.8856277 25.3333333,20.6689423 25.3333333,22.6776175 L25.3333333,27.7797445 C22.5385592,28.3341931 19.364794,28.6474078 16,28.6474078 C12.635206,28.6474078 9.46144084,28.3341931 6.66666667,27.7797445 Z" id="Shape" opacity="0.400000006"></path>
                        <path d="M16.0001273,3.31975062 C18.5506186,3.31975062 20.6182003,5.38733235 20.6182003,7.93782368 C20.6182003,8.10727501 20.6088738,8.27659792 20.590263,8.44502414 L20.2922272,11.1422317 C20.0504545,13.3302611 18.2014739,14.9861868 16.0001273,14.9861868 C13.7987807,14.9861868 11.9498,13.3302611 11.7080273,11.1422317 L11.4099915,8.44502414 C11.1298724,5.90996215 12.9578648,3.62780698 15.4929268,3.3476879 C15.661353,3.32907715 15.8306759,3.31975062 16.0001273,3.31975062 Z" id="Path" opacity="0.900000036"></path>
                    </g>
                </g>
                <g id="Group-2-Copy" transform="translate(92.000000, 0.000000)">
                    <rect id="Rectangle" fill="url(#linearGradient-1)" x="0" y="0" width="80" height="80" rx="4"></rect>
                    <text id="用户B" font-family="PingFangSC-Medium, PingFang SC" font-size="14" font-weight="400" line-spacing="18" fill="#FFFFFF">
                        <tspan x="21.183" y="65">用户B</tspan>
                    </text>
                    <g id="Glyph/002.Object/008.Human/White" transform="translate(24.000000, 12.000000)" fill="#FFFFFF">
                        <path d="M6.66666667,27.7797445 L6.66666667,22.6776175 C6.66666667,20.6689423 7.95200711,18.8856277 9.85760376,18.2504288 L13.6666667,16.9807411 L18.3333333,16.9807411 L22.1423962,18.2504288 C24.0479929,18.8856277 25.3333333,20.6689423 25.3333333,22.6776175 L25.3333333,27.7797445 C22.5385592,28.3341931 19.364794,28.6474078 16,28.6474078 C12.635206,28.6474078 9.46144084,28.3341931 6.66666667,27.7797445 Z" id="Shape" opacity="0.400000006"></path>
                        <path d="M16.0001273,3.31975062 C18.5506186,3.31975062 20.6182003,5.38733235 20.6182003,7.93782368 C20.6182003,8.10727501 20.6088738,8.27659792 20.590263,8.44502414 L20.2922272,11.1422317 C20.0504545,13.3302611 18.2014739,14.9861868 16.0001273,14.9861868 C13.7987807,14.9861868 11.9498,13.3302611 11.7080273,11.1422317 L11.4099915,8.44502414 C11.1298724,5.90996215 12.9578648,3.62780698 15.4929268,3.3476879 C15.661353,3.32907715 15.8306759,3.31975062 16.0001273,3.31975062 Z" id="Path" opacity="0.900000036"></path>
                    </g>
                </g>
            </g>
        </g>
        <path d="M1204,80 L1400,80 L1400,836 L1204,836 L1204,80 Z" id="Rectangle" fill="#36435C"></path>
        <g id="Group-6" transform="translate(1216.000000, 138.000000)">
            <text id="…" font-family="PingFangSC-Medium, PingFang SC" font-size="14" font-weight="400" line-spacing="18" fill="#FFFFFF">
                <tspan x="79" y="287">…</tspan>
            </text>
            <g id="Group-2">
                <rect id="Rectangle" fill="url(#linearGradient-2)" x="0" y="0" width="172" height="56" rx="4"></rect>
                <text id="基础设施" font-family="PingFangSC-Medium, PingFang SC" font-size="14" font-weight="400" line-spacing="18" fill="#FFFFFF">
                    <tspan x="56" y="33">基础设施</tspan>
                </text>
                <g id="Glyph/002.Object/076.Cluster/White" transform="translate(12.000000, 12.000000)" fill="#FFFFFF">
                    <g id="Page-1" stroke-width="1" transform="translate(8.760000, 8.000000)">
                        <g id="Group-2">
                            <polygon id="Fill-1" opacity="0.5" points="7.2 -0.0004 0 4.00093333 0 5.17693333 7.21466667 9.16093333 7.21466667 9.1996 7.21733333 9.1996 7.228 15.9849333 14.4 11.9996 14.4 4.00093333"></polygon>
                            <polygon id="Fill-2" points="0 11.9996 5.24133333 14.9116 5.23466667 10.3329333 0 7.44493333"></polygon>
                        </g>
                    </g>
                    <path d="M16,2.66666667 L4,9.332 L4,22.6653333 L16,29.3333333 L28,22.6653333 L28,9.332 L16,2.66666667 Z M6.66666667,21.0973333 L6.66666667,10.9026667 L16,5.71733333 L25.3333333,10.9026667 L25.3333333,21.0973333 L16,26.2826667 L6.66666667,21.0973333 Z" id="Page-1"></path>
                </g>
            </g>
            <g id="Group-2-Copy-6" transform="translate(0.000000, 68.000000)">
                <rect id="Rectangle" fill="url(#linearGradient-2)" x="0" y="0" width="172" height="56" rx="4"></rect>
                <text id="服务组件" font-family="PingFangSC-Medium, PingFang SC" font-size="14" font-weight="400" line-spacing="18" fill="#FFFFFF">
                    <tspan x="56" y="33">服务组件</tspan>
                </text>
                <g id="Glyph/002.Object/078.Components/White" transform="translate(12.000000, 12.000000)" fill="#FFFFFF">
                    <g id="未标题-2" transform="translate(4.000000, 4.000000)">
                        <rect id="Rectangle-path" fill-rule="nonzero" opacity="0.400000006" x="13.3333333" y="13.3333333" width="10.6666667" height="10.6666667" rx="1"></rect>
                        <path d="M10.8,12 L10.8,22.7916 C10.8,23.4588 10.2648,24 9.6024,24 L1.1976,24 C0.5364,24 0,23.46 0,22.7916 L0,1.2084 C0,0.54 0.5352,7e-16 1.1976,7e-16 L9.6024,7e-16 C10.2636,7e-16 10.8,0.54 10.8,1.2084 L10.8,12 Z" id="Path" opacity="0.900000036"></path>
                        <path d="M13.2,1.1976 C13.2,0.5364 13.7352,0 14.3976,0 L22.8024,0 C23.4636,0 24,0.5352 24,1.1976 L24,9.6024 C24,10.2638162 23.4638162,10.8 22.8024,10.8 L14.3976,10.8 C14.0798791,10.8003188 13.7750796,10.6742459 13.5504168,10.4495832 C13.3257541,10.2249204 13.1996812,9.9201209 13.2,9.6024 L13.2,1.1976 Z" id="Path" opacity="0.900000036"></path>
                    </g>
                </g>
            </g>
            <g id="Group-2-Copy-12" transform="translate(0.000000, 136.000000)">
                <rect id="Rectangle" fill="url(#linearGradient-2)" x="0" y="0" width="172" height="56" rx="4"></rect>
                <text id="监控中心" font-family="PingFangSC-Medium, PingFang SC" font-size="14" font-weight="400" line-spacing="18" fill="#FFFFFF">
                    <tspan x="56" y="33">监控中心</tspan>
                </text>
                <g id="Glyph/002.Object/061.Monitor/White" transform="translate(12.000000, 12.000000)" fill="#FFFFFF">
                    <path d="M5.33333333,6.66666667 L26.6666667,6.66666667 C28.139426,6.66666667 29.3333333,7.860574 29.3333333,9.33333333 L29.3333333,22.6666667 C29.3333333,24.139426 28.139426,25.3333333 26.6666667,25.3333333 L5.33333333,25.3333333 C3.860574,25.3333333 2.66666667,24.139426 2.66666667,22.6666667 L2.66666667,9.33333333 C2.66666667,7.860574 3.860574,6.66666667 5.33333333,6.66666667 Z M25.3427059,18.0513299 C26.1074343,18.0513299 26.7273691,17.431395 26.7273691,16.6666667 C26.7273691,15.9019383 26.1074343,15.2820035 25.3427059,15.2820035 C24.5779776,15.2820035 23.9580427,15.9019383 23.9580427,16.6666667 C23.9580427,17.431395 24.5779776,18.0513299 25.3427059,18.0513299 Z" id="Combined-Shape" fill-rule="evenodd" opacity="0.400000006"></path>
                    <path d="M24.2297325,15.842758 C24.0590171,16.0729881 23.9580427,16.3580355 23.9580427,16.6666667 C23.9580427,17.0208543 24.0910265,17.343982 24.3097874,17.5888431 C23.3377172,17.5759207 22.489318,16.9264918 22.2231141,15.9914115 L21.5388535,13.5878457 L21.0712203,16.312572 C20.9428075,17.0607863 20.3648324,17.6514882 19.619592,17.7961647 C18.7874995,17.9577022 17.9777624,17.526546 17.6265576,16.797052 L17.1928552,21.144703 C17.1107958,21.9673075 16.4450417,22.6094375 15.6200103,22.661736 C14.6896395,22.720712 13.8876154,22.0143068 13.8286394,21.0839359 L13.1945244,11.0804983 L12.5910376,18.0000526 C12.5314745,18.6830004 12.036847,19.2489087 11.3680126,19.3993279 C10.5196645,19.5901192 9.67727558,19.0570641 9.48648423,18.2087161 L8.94603558,15.8056271 L8.45782623,16.5776741 C8.05461981,17.2152987 7.35281819,17.6018555 6.59840413,17.6018555 L5.33333333,17.6018555 L5.33333333,15.8685221 L6.59840413,15.8685221 C6.75843135,15.8685221 6.90729836,15.7865253 6.992827,15.6512715 L7.60005247,14.6910142 C8.08447579,13.9249544 9.09819268,13.6966429 9.86425251,14.1810662 C10.2322759,14.4137884 10.4927279,14.7832264 10.5882691,15.2080473 L10.9531345,16.8304107 L11.4681212,10.925595 C11.5512799,9.97210045 12.3916534,9.26655391 13.3451479,9.34971264 C14.1988138,9.42416485 14.8699022,10.1113424 14.9241124,10.9665323 L15.5233056,20.4190617 L15.9471002,16.1707317 C16.0367795,15.2717412 16.8382548,14.6156649 17.7372452,14.7053442 C18.4562495,14.7770689 19.0430256,15.3120276 19.1807307,16.0213576 C19.1904752,16.0715523 19.2390655,16.1043437 19.2892603,16.0945992 C19.3270474,16.0872634 19.3563534,16.0573121 19.3628645,16.0193741 L19.8573677,13.1380868 C20.0159208,12.214256 20.8933664,11.5938759 21.8171972,11.752429 C22.460637,11.8628599 22.9836994,12.3325697 23.1624531,12.9604685 L23.8902079,15.5168139 C23.9370086,15.6812084 24.0686416,15.8039802 24.2297325,15.842758 Z" id="Combined-Shape" fill-rule="nonzero" opacity="0.900000036"></path>
                </g>
            </g>
            <g id="Group-2-Copy-7" transform="translate(0.000000, 204.000000)">
                <rect id="Rectangle" fill="url(#linearGradient-2)" x="0" y="0" width="172" height="56" rx="4"></rect>
                <text id="应用仓库" font-family="PingFangSC-Medium, PingFang SC" font-size="14" font-weight="400" line-spacing="18" fill="#FFFFFF">
                    <tspan x="56" y="33">应用仓库</tspan>
                </text>
                <g id="Glyph/002.Object/082.Catalog/White-" transform="translate(12.000000, 12.000000)">
                    <g id="Group-3" transform="translate(4.000000, 4.000000)">
                        <path d="M1,0 L23,0 C23.5522847,-1.01453063e-16 24,0.44771525 24,1 L24,23 C24,23.5522847 23.5522847,24 23,24 L1,24 C0.44771525,24 6.76353751e-17,23.5522847 0,23 L0,1 C-6.76353751e-17,0.44771525 0.44771525,1.01453063e-16 1,0 Z M3.66666667,2.66666667 C3.11438192,2.66666667 2.66666667,3.11438192 2.66666667,3.66666667 L2.66666667,20.3333333 C2.66666667,20.8856181 3.11438192,21.3333333 3.66666667,21.3333333 L20.3333333,21.3333333 C20.8856181,21.3333333 21.3333333,20.8856181 21.3333333,20.3333333 L21.3333333,3.66666667 C21.3333333,3.11438192 20.8856181,2.66666667 20.3333333,2.66666667 L3.66666667,2.66666667 Z" id="Combined-Shape" fill="#FFFFFF" opacity="0.900000036"></path>
                        <g id="Group-2" transform="translate(2.666667, 2.666667)">
                            <path d="M1,0 L17.6666667,0 C18.2189514,-1.01453063e-16 18.6666667,0.44771525 18.6666667,1 L18.6666667,17.6666667 C18.6666667,18.2189514 18.2189514,18.6666667 17.6666667,18.6666667 L1,18.6666667 C0.44771525,18.6666667 6.76353751e-17,18.2189514 0,17.6666667 L0,1 C-6.76353751e-17,0.44771525 0.44771525,1.01453063e-16 1,0 Z M4.64640624,2.66666667 L10.3232031,8.39672225 L16,14.1267778 L16,2.66666667 L4.64640624,2.66666667 Z M14.0257167,16 L8.3461917,10.3114903 L2.66666667,4.62298063 L2.66666667,16 L14.0257167,16 Z" id="Combined-Shape" fill="#FFFFFF" opacity="0.400000006"></path>
                            <polygon id="Rectangle" opacity="0.400000006" points="4.64640624 2.66666667 16 2.66666667 16 14.1267778 10.3232031 8.39672225"></polygon>
                            <g id="Group" transform="translate(2.666667, 4.000000)"></g>
                        </g>
                        <polygon id="Rectangle" fill="#FFFFFF" opacity="0.900000036" transform="translate(11.012858, 12.978157) scale(-1, -1) translate(-11.012858, -12.978157) " points="5.33333333 7.2896473 16.6923834 7.2896473 16.6923834 18.6666667 11.0128584 12.978157"></polygon>
                    </g>
                </g>
            </g>
        </g>
        <text id="平台管理" font-family="PingFangSC-Medium, PingFang SC" font-size="14" font-weight="400" line-spacing="18" fill="#FFFFFF">
            <tspan x="1217" y="115">平台管理</tspan>
        </text>
        <path d="M256,80 L1184,80 L1184,836 L256,836 L256,80 Z" id="Rectangle" fill="#36435C"></path>
        <rect id="Rectangle" fill="#4A5974" x="268" y="566" width="904" height="250" rx="4"></rect>
        <text id="企业空间创建者默认绑定为该空间下Work" font-family="PingFangSC-Regular, PingFang SC" font-size="14" font-weight="normal" fill="#FFFFFF">
            <tspan x="564" y="749">企业空间创建者默认绑定为该空间下Workspace-admin角色，Workspace-admin可创建项目、</tspan>
            <tspan x="564" y="769">DevOps工程，从集群的用户池中邀请用户加入</tspan>
        </text>
        <g id="Group-8" transform="translate(564.000000, 624.000000)">
            <rect id="Rectangle" fill-opacity="0.6" fill="#242E42" x="0" y="0" width="190" height="80" rx="4"></rect>
            <text id="Workspace-admin" font-family="PingFangSC-Medium, PingFang SC" font-size="14" font-weight="400" line-spacing="18" fill="#FFFFFF">
                <tspan x="36.109" y="63">Workspace-admin</tspan>
            </text>
            <g id="Glyph/002.Object/062.Role/White" transform="translate(79.000000, 12.000000)" fill="#FFFFFF">
                <path d="M11.3281853,3.80658205 L14,5.33333333 L20.9412189,3.19757368 C21.6450351,2.98101484 22.3911465,3.376015 22.6077053,4.07983123 C22.6467932,4.20686669 22.6666667,4.33903269 22.6666667,4.47194569 L22.6666667,11.4666665 L9.33333333,11.4666665 L9.33333333,4.96423957 C9.33333333,4.2278599 9.930287,3.63090624 10.6666667,3.63090624 C10.8987026,3.63090624 11.1267217,3.69145999 11.3281853,3.80658205 Z" id="Rectangle-26" fill-rule="evenodd" opacity="0.400000006"></path>
                <polygon id="Rectangle-24" fill-rule="evenodd" opacity="0.400000006" points="2.6675896 13.3333333 29.3324104 13.3333333 29.3324104 16 2.6675896 16"></polygon>
                <path d="M17.3759688,22.0129251 C16.9915215,21.7742446 16.5426125,21.6570638 16,21.6570638 C15.458975,21.6570638 15.011106,21.77356 14.6274072,22.0108333 C14.6536628,22.2253335 14.6671804,22.4437704 14.6671804,22.6653646 C14.6671804,25.6101641 12.2799487,27.9973958 9.33514913,27.9973958 C6.39034958,27.9973958 4.00311788,25.6101641 4.00311788,22.6653646 C4.00311788,19.720565 6.39034958,17.3333333 9.33514913,17.3333333 C11.1011888,17.3333333 12.6666948,18.1919197 13.6370233,19.5144485 C14.3457435,19.1659054 15.1389851,18.9903971 16,18.9903971 C16.8620957,18.9903971 17.6562477,19.1663463 18.365645,19.5157618 C19.3359006,18.1924881 20.9018583,17.3333333 22.6684825,17.3333333 C25.613282,17.3333333 28.0005137,19.720565 28.0005137,22.6653646 C28.0005137,25.6101641 25.613282,27.9973958 22.6684825,27.9973958 C19.7236829,27.9973958 17.3364512,25.6101641 17.3364512,22.6653646 C17.3364512,22.4444907 17.3498811,22.2267535 17.3759688,22.0129251 Z M22.6684825,25.3307292 C24.1405227,25.3307292 25.333847,24.1374048 25.333847,22.6653646 C25.333847,21.1933244 24.1405227,20 22.6684825,20 C21.1964423,20 20.0031179,21.1933244 20.0031179,22.6653646 C20.0031179,24.1374048 21.1964423,25.3307292 22.6684825,25.3307292 Z M9.33514913,25.3307292 C10.8071893,25.3307292 12.0005137,24.1374048 12.0005137,22.6653646 C12.0005137,21.1933244 10.8071893,20 9.33514913,20 C7.86310892,20 6.66978455,21.1933244 6.66978455,22.6653646 C6.66978455,24.1374048 7.86310892,25.3307292 9.33514913,25.3307292 Z" id="Combined-Shape" fill-rule="nonzero" opacity="0.900000036"></path>
            </g>
        </g>
        <g id="Group-8-Copy" transform="translate(766.000000, 624.000000)">
            <rect id="Rectangle" fill-opacity="0.6" fill="#242E42" x="0" y="0" width="190" height="80" rx="4"></rect>
            <text id="Workspace-regular" font-family="PingFangSC-Medium, PingFang SC" font-size="14" font-weight="400" line-spacing="18" fill="#FFFFFF">
                <tspan x="30.225" y="63">Workspace-regular</tspan>
            </text>
            <g id="Glyph/002.Object/062.Role/White" transform="translate(79.000000, 12.000000)" fill="#FFFFFF">
                <path d="M11.3281853,3.80658205 L14,5.33333333 L20.9412189,3.19757368 C21.6450351,2.98101484 22.3911465,3.376015 22.6077053,4.07983123 C22.6467932,4.20686669 22.6666667,4.33903269 22.6666667,4.47194569 L22.6666667,11.4666665 L9.33333333,11.4666665 L9.33333333,4.96423957 C9.33333333,4.2278599 9.930287,3.63090624 10.6666667,3.63090624 C10.8987026,3.63090624 11.1267217,3.69145999 11.3281853,3.80658205 Z" id="Rectangle-26" fill-rule="evenodd" opacity="0.400000006"></path>
                <polygon id="Rectangle-24" fill-rule="evenodd" opacity="0.400000006" points="2.6675896 13.3333333 29.3324104 13.3333333 29.3324104 16 2.6675896 16"></polygon>
                <path d="M17.3759688,22.0129251 C16.9915215,21.7742446 16.5426125,21.6570638 16,21.6570638 C15.458975,21.6570638 15.011106,21.77356 14.6274072,22.0108333 C14.6536628,22.2253335 14.6671804,22.4437704 14.6671804,22.6653646 C14.6671804,25.6101641 12.2799487,27.9973958 9.33514913,27.9973958 C6.39034958,27.9973958 4.00311788,25.6101641 4.00311788,22.6653646 C4.00311788,19.720565 6.39034958,17.3333333 9.33514913,17.3333333 C11.1011888,17.3333333 12.6666948,18.1919197 13.6370233,19.5144485 C14.3457435,19.1659054 15.1389851,18.9903971 16,18.9903971 C16.8620957,18.9903971 17.6562477,19.1663463 18.365645,19.5157618 C19.3359006,18.1924881 20.9018583,17.3333333 22.6684825,17.3333333 C25.613282,17.3333333 28.0005137,19.720565 28.0005137,22.6653646 C28.0005137,25.6101641 25.613282,27.9973958 22.6684825,27.9973958 C19.7236829,27.9973958 17.3364512,25.6101641 17.3364512,22.6653646 C17.3364512,22.4444907 17.3498811,22.2267535 17.3759688,22.0129251 Z M22.6684825,25.3307292 C24.1405227,25.3307292 25.333847,24.1374048 25.333847,22.6653646 C25.333847,21.1933244 24.1405227,20 22.6684825,20 C21.1964423,20 20.0031179,21.1933244 20.0031179,22.6653646 C20.0031179,24.1374048 21.1964423,25.3307292 22.6684825,25.3307292 Z M9.33514913,25.3307292 C10.8071893,25.3307292 12.0005137,24.1374048 12.0005137,22.6653646 C12.0005137,21.1933244 10.8071893,20 9.33514913,20 C7.86310892,20 6.66978455,21.1933244 6.66978455,22.6653646 C6.66978455,24.1374048 7.86310892,25.3307292 9.33514913,25.3307292 Z" id="Combined-Shape" fill-rule="nonzero" opacity="0.900000036"></path>
            </g>
        </g>
        <g id="Group-8-Copy-2" transform="translate(968.000000, 624.000000)">
            <rect id="Rectangle" fill-opacity="0.6" fill="#242E42" x="0" y="0" width="190" height="80" rx="4"></rect>
            <text id="Workspace-viewer" font-family="PingFangSC-Medium, PingFang SC" font-size="14" font-weight="400" line-spacing="18" fill="#FFFFFF">
                <tspan x="32.045" y="63">Workspace-viewer</tspan>
            </text>
            <g id="Glyph/002.Object/062.Role/White" transform="translate(79.000000, 12.000000)" fill="#FFFFFF">
                <path d="M11.3281853,3.80658205 L14,5.33333333 L20.9412189,3.19757368 C21.6450351,2.98101484 22.3911465,3.376015 22.6077053,4.07983123 C22.6467932,4.20686669 22.6666667,4.33903269 22.6666667,4.47194569 L22.6666667,11.4666665 L9.33333333,11.4666665 L9.33333333,4.96423957 C9.33333333,4.2278599 9.930287,3.63090624 10.6666667,3.63090624 C10.8987026,3.63090624 11.1267217,3.69145999 11.3281853,3.80658205 Z" id="Rectangle-26" fill-rule="evenodd" opacity="0.400000006"></path>
                <polygon id="Rectangle-24" fill-rule="evenodd" opacity="0.400000006" points="2.6675896 13.3333333 29.3324104 13.3333333 29.3324104 16 2.6675896 16"></polygon>
                <path d="M17.3759688,22.0129251 C16.9915215,21.7742446 16.5426125,21.6570638 16,21.6570638 C15.458975,21.6570638 15.011106,21.77356 14.6274072,22.0108333 C14.6536628,22.2253335 14.6671804,22.4437704 14.6671804,22.6653646 C14.6671804,25.6101641 12.2799487,27.9973958 9.33514913,27.9973958 C6.39034958,27.9973958 4.00311788,25.6101641 4.00311788,22.6653646 C4.00311788,19.720565 6.39034958,17.3333333 9.33514913,17.3333333 C11.1011888,17.3333333 12.6666948,18.1919197 13.6370233,19.5144485 C14.3457435,19.1659054 15.1389851,18.9903971 16,18.9903971 C16.8620957,18.9903971 17.6562477,19.1663463 18.365645,19.5157618 C19.3359006,18.1924881 20.9018583,17.3333333 22.6684825,17.3333333 C25.613282,17.3333333 28.0005137,19.720565 28.0005137,22.6653646 C28.0005137,25.6101641 25.613282,27.9973958 22.6684825,27.9973958 C19.7236829,27.9973958 17.3364512,25.6101641 17.3364512,22.6653646 C17.3364512,22.4444907 17.3498811,22.2267535 17.3759688,22.0129251 Z M22.6684825,25.3307292 C24.1405227,25.3307292 25.333847,24.1374048 25.333847,22.6653646 C25.333847,21.1933244 24.1405227,20 22.6684825,20 C21.1964423,20 20.0031179,21.1933244 20.0031179,22.6653646 C20.0031179,24.1374048 21.1964423,25.3307292 22.6684825,25.3307292 Z M9.33514913,25.3307292 C10.8071893,25.3307292 12.0005137,24.1374048 12.0005137,22.6653646 C12.0005137,21.1933244 10.8071893,20 9.33514913,20 C7.86310892,20 6.66978455,21.1933244 6.66978455,22.6653646 C6.66978455,24.1374048 7.86310892,25.3307292 9.33514913,25.3307292 Z" id="Combined-Shape" fill-rule="nonzero" opacity="0.900000036"></path>
            </g>
        </g>
        <text id="内置角色" font-family="PingFangSC-Medium, PingFang SC" font-size="14" font-weight="400" line-spacing="18" fill="#FFFFFF">
            <tspan x="564" y="601">内置角色</tspan>
        </text>
        <text id="企业空间成员" font-family="PingFangSC-Medium, PingFang SC" font-size="14" font-weight="400" line-spacing="18" fill="#FFFFFF">
            <tspan x="280" y="601">企业空间成员</tspan>
        </text>
        <g id="Group-3" transform="translate(280.000000, 624.000000)">
            <g id="Group-2">
                <rect id="Rectangle" fill-opacity="0.6" fill="#242E42" x="0" y="0" width="80" height="80" rx="4"></rect>
                <text id="用户A" font-family="PingFangSC-Medium, PingFang SC" font-size="14" font-weight="400" line-spacing="18" fill="#FFFFFF">
                    <tspan x="20.274" y="65">用户A</tspan>
                </text>
                <g id="Glyph/002.Object/008.Human/White" transform="translate(24.000000, 12.000000)" fill="#FFFFFF">
                    <path d="M6.66666667,27.7797445 L6.66666667,22.6776175 C6.66666667,20.6689423 7.95200711,18.8856277 9.85760376,18.2504288 L13.6666667,16.9807411 L18.3333333,16.9807411 L22.1423962,18.2504288 C24.0479929,18.8856277 25.3333333,20.6689423 25.3333333,22.6776175 L25.3333333,27.7797445 C22.5385592,28.3341931 19.364794,28.6474078 16,28.6474078 C12.635206,28.6474078 9.46144084,28.3341931 6.66666667,27.7797445 Z" id="Shape" opacity="0.400000006"></path>
                    <path d="M16.0001273,3.31975062 C18.5506186,3.31975062 20.6182003,5.38733235 20.6182003,7.93782368 C20.6182003,8.10727501 20.6088738,8.27659792 20.590263,8.44502414 L20.2922272,11.1422317 C20.0504545,13.3302611 18.2014739,14.9861868 16.0001273,14.9861868 C13.7987807,14.9861868 11.9498,13.3302611 11.7080273,11.1422317 L11.4099915,8.44502414 C11.1298724,5.90996215 12.9578648,3.62780698 15.4929268,3.3476879 C15.661353,3.32907715 15.8306759,3.31975062 16.0001273,3.31975062 Z" id="Path" opacity="0.900000036"></path>
                </g>
            </g>
            <g id="Group-2-Copy-2" transform="translate(184.000000, 0.000000)">
                <rect id="Rectangle" fill-opacity="0.6" fill="#242E42" x="0" y="0" width="80" height="80" rx="4"></rect>
                <text id="用户C" font-family="PingFangSC-Medium, PingFang SC" font-size="14" font-weight="400" line-spacing="18" fill="#FFFFFF">
                    <tspan x="19.875" y="65">用户C</tspan>
                </text>
                <g id="Glyph/002.Object/008.Human/White" transform="translate(24.000000, 12.000000)" fill="#FFFFFF">
                    <path d="M6.66666667,27.7797445 L6.66666667,22.6776175 C6.66666667,20.6689423 7.95200711,18.8856277 9.85760376,18.2504288 L13.6666667,16.9807411 L18.3333333,16.9807411 L22.1423962,18.2504288 C24.0479929,18.8856277 25.3333333,20.6689423 25.3333333,22.6776175 L25.3333333,27.7797445 C22.5385592,28.3341931 19.364794,28.6474078 16,28.6474078 C12.635206,28.6474078 9.46144084,28.3341931 6.66666667,27.7797445 Z" id="Shape" opacity="0.400000006"></path>
                    <path d="M16.0001273,3.31975062 C18.5506186,3.31975062 20.6182003,5.38733235 20.6182003,7.93782368 C20.6182003,8.10727501 20.6088738,8.27659792 20.590263,8.44502414 L20.2922272,11.1422317 C20.0504545,13.3302611 18.2014739,14.9861868 16.0001273,14.9861868 C13.7987807,14.9861868 11.9498,13.3302611 11.7080273,11.1422317 L11.4099915,8.44502414 C11.1298724,5.90996215 12.9578648,3.62780698 15.4929268,3.3476879 C15.661353,3.32907715 15.8306759,3.31975062 16.0001273,3.31975062 Z" id="Path" opacity="0.900000036"></path>
                </g>
            </g>
            <g id="Group-2-Copy-8" transform="translate(0.000000, 92.000000)">
                <rect id="Rectangle" fill-opacity="0.6" fill="#242E42" x="0" y="0" width="80" height="80" rx="4"></rect>
                <text id="用户D" font-family="PingFangSC-Medium, PingFang SC" font-size="14" font-weight="400" line-spacing="18" fill="#FFFFFF">
                    <tspan x="19.973" y="65">用户D</tspan>
                </text>
                <g id="Glyph/002.Object/008.Human/White" transform="translate(24.000000, 12.000000)" fill="#FFFFFF">
                    <path d="M6.66666667,27.7797445 L6.66666667,22.6776175 C6.66666667,20.6689423 7.95200711,18.8856277 9.85760376,18.2504288 L13.6666667,16.9807411 L18.3333333,16.9807411 L22.1423962,18.2504288 C24.0479929,18.8856277 25.3333333,20.6689423 25.3333333,22.6776175 L25.3333333,27.7797445 C22.5385592,28.3341931 19.364794,28.6474078 16,28.6474078 C12.635206,28.6474078 9.46144084,28.3341931 6.66666667,27.7797445 Z" id="Shape" opacity="0.400000006"></path>
                    <path d="M16.0001273,3.31975062 C18.5506186,3.31975062 20.6182003,5.38733235 20.6182003,7.93782368 C20.6182003,8.10727501 20.6088738,8.27659792 20.590263,8.44502414 L20.2922272,11.1422317 C20.0504545,13.3302611 18.2014739,14.9861868 16.0001273,14.9861868 C13.7987807,14.9861868 11.9498,13.3302611 11.7080273,11.1422317 L11.4099915,8.44502414 C11.1298724,5.90996215 12.9578648,3.62780698 15.4929268,3.3476879 C15.661353,3.32907715 15.8306759,3.31975062 16.0001273,3.31975062 Z" id="Path" opacity="0.900000036"></path>
                </g>
            </g>
            <g id="Group-2-Copy-9" transform="translate(92.000000, 92.000000)">
                <rect id="Rectangle" fill-opacity="0.6" fill="#242E42" x="0" y="0" width="80" height="80" rx="4"></rect>
                <text id="用户E" font-family="PingFangSC-Medium, PingFang SC" font-size="14" font-weight="400" line-spacing="18" fill="#FFFFFF">
                    <tspan x="20.505" y="65">用户E</tspan>
                </text>
                <g id="Glyph/002.Object/008.Human/White" transform="translate(24.000000, 12.000000)" fill="#FFFFFF">
                    <path d="M6.66666667,27.7797445 L6.66666667,22.6776175 C6.66666667,20.6689423 7.95200711,18.8856277 9.85760376,18.2504288 L13.6666667,16.9807411 L18.3333333,16.9807411 L22.1423962,18.2504288 C24.0479929,18.8856277 25.3333333,20.6689423 25.3333333,22.6776175 L25.3333333,27.7797445 C22.5385592,28.3341931 19.364794,28.6474078 16,28.6474078 C12.635206,28.6474078 9.46144084,28.3341931 6.66666667,27.7797445 Z" id="Shape" opacity="0.400000006"></path>
                    <path d="M16.0001273,3.31975062 C18.5506186,3.31975062 20.6182003,5.38733235 20.6182003,7.93782368 C20.6182003,8.10727501 20.6088738,8.27659792 20.590263,8.44502414 L20.2922272,11.1422317 C20.0504545,13.3302611 18.2014739,14.9861868 16.0001273,14.9861868 C13.7987807,14.9861868 11.9498,13.3302611 11.7080273,11.1422317 L11.4099915,8.44502414 C11.1298724,5.90996215 12.9578648,3.62780698 15.4929268,3.3476879 C15.661353,3.32907715 15.8306759,3.31975062 16.0001273,3.31975062 Z" id="Path" opacity="0.900000036"></path>
                </g>
            </g>
            <g id="Group-2-Copy-5" transform="translate(184.000000, 92.000000)">
                <rect id="Rectangle" fill-opacity="0.6" fill="#242E42" x="0" y="0" width="80" height="80" rx="4"></rect>
                <text id="…" font-family="PingFangSC-Medium, PingFang SC" font-size="14" font-weight="400" line-spacing="18" fill="#FFFFFF">
                    <tspan x="31.992" y="65">…</tspan>
                </text>
                <g id="Glyph/002.Object/008.Human/White" transform="translate(24.000000, 12.000000)" fill="#FFFFFF">
                    <path d="M6.66666667,27.7797445 L6.66666667,22.6776175 C6.66666667,20.6689423 7.95200711,18.8856277 9.85760376,18.2504288 L13.6666667,16.9807411 L18.3333333,16.9807411 L22.1423962,18.2504288 C24.0479929,18.8856277 25.3333333,20.6689423 25.3333333,22.6776175 L25.3333333,27.7797445 C22.5385592,28.3341931 19.364794,28.6474078 16,28.6474078 C12.635206,28.6474078 9.46144084,28.3341931 6.66666667,27.7797445 Z" id="Shape" opacity="0.400000006"></path>
                    <path d="M16.0001273,3.31975062 C18.5506186,3.31975062 20.6182003,5.38733235 20.6182003,7.93782368 C20.6182003,8.10727501 20.6088738,8.27659792 20.590263,8.44502414 L20.2922272,11.1422317 C20.0504545,13.3302611 18.2014739,14.9861868 16.0001273,14.9861868 C13.7987807,14.9861868 11.9498,13.3302611 11.7080273,11.1422317 L11.4099915,8.44502414 C11.1298724,5.90996215 12.9578648,3.62780698 15.4929268,3.3476879 C15.661353,3.32907715 15.8306759,3.31975062 16.0001273,3.31975062 Z" id="Path" opacity="0.900000036"></path>
                </g>
            </g>
            <g id="Group-2-Copy" transform="translate(92.000000, 0.000000)">
                <rect id="Rectangle" fill-opacity="0.6" fill="#242E42" x="0" y="0" width="80" height="80" rx="4"></rect>
                <text id="用户B" font-family="PingFangSC-Medium, PingFang SC" font-size="14" font-weight="400" line-spacing="18" fill="#FFFFFF">
                    <tspan x="20.183" y="65">用户B</tspan>
                </text>
                <g id="Glyph/002.Object/008.Human/White" transform="translate(24.000000, 12.000000)" fill="#FFFFFF">
                    <path d="M6.66666667,27.7797445 L6.66666667,22.6776175 C6.66666667,20.6689423 7.95200711,18.8856277 9.85760376,18.2504288 L13.6666667,16.9807411 L18.3333333,16.9807411 L22.1423962,18.2504288 C24.0479929,18.8856277 25.3333333,20.6689423 25.3333333,22.6776175 L25.3333333,27.7797445 C22.5385592,28.3341931 19.364794,28.6474078 16,28.6474078 C12.635206,28.6474078 9.46144084,28.3341931 6.66666667,27.7797445 Z" id="Shape" opacity="0.400000006"></path>
                    <path d="M16.0001273,3.31975062 C18.5506186,3.31975062 20.6182003,5.38733235 20.6182003,7.93782368 C20.6182003,8.10727501 20.6088738,8.27659792 20.590263,8.44502414 L20.2922272,11.1422317 C20.0504545,13.3302611 18.2014739,14.9861868 16.0001273,14.9861868 C13.7987807,14.9861868 11.9498,13.3302611 11.7080273,11.1422317 L11.4099915,8.44502414 C11.1298724,5.90996215 12.9578648,3.62780698 15.4929268,3.3476879 C15.661353,3.32907715 15.8306759,3.31975062 16.0001273,3.31975062 Z" id="Path" opacity="0.900000036"></path>
                </g>
            </g>
        </g>
        <text id="企业空间" font-family="PingFangSC-Medium, PingFang SC" font-size="14" font-weight="400" line-spacing="18" fill="#FFFFFF">
            <tspan x="268" y="115">企业空间</tspan>
        </text>
        <g id="Group-4" transform="translate(268.000000, 138.000000)">
            <path d="M0,0 L196,0 L196,406 L0,406 L0,0 Z" id="Rectangle" fill="url(#linearGradient-3)"></path>
            <g id="Group-3" transform="translate(12.000000, 58.000000)">
                <g id="Group-2">
                    <rect id="Rectangle" fill-opacity="0.6" fill="#242E42" x="0" y="0" width="80" height="80" rx="4"></rect>
                    <text id="用户A" font-family="PingFangSC-Medium, PingFang SC" font-size="14" font-weight="400" line-spacing="18" fill="#FFFFFF">
                        <tspan x="20.274" y="65">用户A</tspan>
                    </text>
                    <g id="Glyph/002.Object/008.Human/White" transform="translate(24.000000, 12.000000)" fill="#FFFFFF">
                        <path d="M6.66666667,27.7797445 L6.66666667,22.6776175 C6.66666667,20.6689423 7.95200711,18.8856277 9.85760376,18.2504288 L13.6666667,16.9807411 L18.3333333,16.9807411 L22.1423962,18.2504288 C24.0479929,18.8856277 25.3333333,20.6689423 25.3333333,22.6776175 L25.3333333,27.7797445 C22.5385592,28.3341931 19.364794,28.6474078 16,28.6474078 C12.635206,28.6474078 9.46144084,28.3341931 6.66666667,27.7797445 Z" id="Shape" opacity="0.400000006"></path>
                        <path d="M16.0001273,3.31975062 C18.5506186,3.31975062 20.6182003,5.38733235 20.6182003,7.93782368 C20.6182003,8.10727501 20.6088738,8.27659792 20.590263,8.44502414 L20.2922272,11.1422317 C20.0504545,13.3302611 18.2014739,14.9861868 16.0001273,14.9861868 C13.7987807,14.9861868 11.9498,13.3302611 11.7080273,11.1422317 L11.4099915,8.44502414 C11.1298724,5.90996215 12.9578648,3.62780698 15.4929268,3.3476879 C15.661353,3.32907715 15.8306759,3.31975062 16.0001273,3.31975062 Z" id="Path" opacity="0.900000036"></path>
                    </g>
                </g>
                <g id="Group-2-Copy-2" transform="translate(0.000000, 92.000000)">
                    <rect id="Rectangle" fill-opacity="0.6" fill="#242E42" x="0" y="0" width="80" height="80" rx="4"></rect>
                    <text id="用户C" font-family="PingFangSC-Medium, PingFang SC" font-size="14" font-weight="400" line-spacing="18" fill="#FFFFFF">
                        <tspan x="19.875" y="65">用户C</tspan>
                    </text>
                    <g id="Glyph/002.Object/008.Human/White" transform="translate(24.000000, 12.000000)" fill="#FFFFFF">
                        <path d="M6.66666667,27.7797445 L6.66666667,22.6776175 C6.66666667,20.6689423 7.95200711,18.8856277 9.85760376,18.2504288 L13.6666667,16.9807411 L18.3333333,16.9807411 L22.1423962,18.2504288 C24.0479929,18.8856277 25.3333333,20.6689423 25.3333333,22.6776175 L25.3333333,27.7797445 C22.5385592,28.3341931 19.364794,28.6474078 16,28.6474078 C12.635206,28.6474078 9.46144084,28.3341931 6.66666667,27.7797445 Z" id="Shape" opacity="0.400000006"></path>
                        <path d="M16.0001273,3.31975062 C18.5506186,3.31975062 20.6182003,5.38733235 20.6182003,7.93782368 C20.6182003,8.10727501 20.6088738,8.27659792 20.590263,8.44502414 L20.2922272,11.1422317 C20.0504545,13.3302611 18.2014739,14.9861868 16.0001273,14.9861868 C13.7987807,14.9861868 11.9498,13.3302611 11.7080273,11.1422317 L11.4099915,8.44502414 C11.1298724,5.90996215 12.9578648,3.62780698 15.4929268,3.3476879 C15.661353,3.32907715 15.8306759,3.31975062 16.0001273,3.31975062 Z" id="Path" opacity="0.900000036"></path>
                    </g>
                </g>
                <g id="Group-2-Copy-5" transform="translate(92.000000, 92.000000)">
                    <rect id="Rectangle" fill-opacity="0.6" fill="#242E42" x="0" y="0" width="80" height="80" rx="4"></rect>
                    <text id="…" font-family="PingFangSC-Medium, PingFang SC" font-size="14" font-weight="400" line-spacing="18" fill="#FFFFFF">
                        <tspan x="31.992" y="65">…</tspan>
                    </text>
                    <g id="Glyph/002.Object/008.Human/White" transform="translate(24.000000, 12.000000)" fill="#FFFFFF">
                        <path d="M6.66666667,27.7797445 L6.66666667,22.6776175 C6.66666667,20.6689423 7.95200711,18.8856277 9.85760376,18.2504288 L13.6666667,16.9807411 L18.3333333,16.9807411 L22.1423962,18.2504288 C24.0479929,18.8856277 25.3333333,20.6689423 25.3333333,22.6776175 L25.3333333,27.7797445 C22.5385592,28.3341931 19.364794,28.6474078 16,28.6474078 C12.635206,28.6474078 9.46144084,28.3341931 6.66666667,27.7797445 Z" id="Shape" opacity="0.400000006"></path>
                        <path d="M16.0001273,3.31975062 C18.5506186,3.31975062 20.6182003,5.38733235 20.6182003,7.93782368 C20.6182003,8.10727501 20.6088738,8.27659792 20.590263,8.44502414 L20.2922272,11.1422317 C20.0504545,13.3302611 18.2014739,14.9861868 16.0001273,14.9861868 C13.7987807,14.9861868 11.9498,13.3302611 11.7080273,11.1422317 L11.4099915,8.44502414 C11.1298724,5.90996215 12.9578648,3.62780698 15.4929268,3.3476879 C15.661353,3.32907715 15.8306759,3.31975062 16.0001273,3.31975062 Z" id="Path" opacity="0.900000036"></path>
                    </g>
                </g>
                <g id="Group-2-Copy" transform="translate(92.000000, 0.000000)">
                    <rect id="Rectangle" fill-opacity="0.6" fill="#242E42" x="0" y="0" width="80" height="80" rx="4"></rect>
                    <text id="用户B" font-family="PingFangSC-Medium, PingFang SC" font-size="14" font-weight="400" line-spacing="18" fill="#FFFFFF">
                        <tspan x="20.183" y="65">用户B</tspan>
                    </text>
                    <g id="Glyph/002.Object/008.Human/White" transform="translate(24.000000, 12.000000)" fill="#FFFFFF">
                        <path d="M6.66666667,27.7797445 L6.66666667,22.6776175 C6.66666667,20.6689423 7.95200711,18.8856277 9.85760376,18.2504288 L13.6666667,16.9807411 L18.3333333,16.9807411 L22.1423962,18.2504288 C24.0479929,18.8856277 25.3333333,20.6689423 25.3333333,22.6776175 L25.3333333,27.7797445 C22.5385592,28.3341931 19.364794,28.6474078 16,28.6474078 C12.635206,28.6474078 9.46144084,28.3341931 6.66666667,27.7797445 Z" id="Shape" opacity="0.400000006"></path>
                        <path d="M16.0001273,3.31975062 C18.5506186,3.31975062 20.6182003,5.38733235 20.6182003,7.93782368 C20.6182003,8.10727501 20.6088738,8.27659792 20.590263,8.44502414 L20.2922272,11.1422317 C20.0504545,13.3302611 18.2014739,14.9861868 16.0001273,14.9861868 C13.7987807,14.9861868 11.9498,13.3302611 11.7080273,11.1422317 L11.4099915,8.44502414 C11.1298724,5.90996215 12.9578648,3.62780698 15.4929268,3.3476879 C15.661353,3.32907715 15.8306759,3.31975062 16.0001273,3.31975062 Z" id="Path" opacity="0.900000036"></path>
                    </g>
                </g>
            </g>
            <text id="企业成员" font-family="PingFangSC-Medium, PingFang SC" font-size="14" font-weight="400" line-spacing="18" fill="#FFFFFF">
                <tspan x="12" y="35">企业成员</tspan>
            </text>
        </g>
        <g id="Group-4-Copy" transform="translate(476.000000, 138.000000)">
            <path d="M0,0 L196,0 L196,406 L0,406 L0,0 Z" id="Rectangle" fill="url(#linearGradient-3)"></path>
            <g id="Group-3" transform="translate(12.000000, 58.000000)">
                <g id="Group-2">
                    <rect id="Rectangle" fill-opacity="0.6" fill="#242E42" x="0" y="0" width="80" height="80" rx="4"></rect>
                    <text id="开发组" font-family="PingFangSC-Medium, PingFang SC" font-size="14" font-weight="400" line-spacing="18" fill="#FFFFFF">
                        <tspan x="17.992" y="65">开发组</tspan>
                    </text>
                    <g id="Glyph/002.Object/013.Hammer/White" transform="translate(24.000000, 12.000000)" fill="#FFFFFF">
                        <path d="M14.1992929,7.05782218 C13.1474633,5.68018541 10.7326412,5.31994236 6.95482677,5.97709302 C9.40416243,3.95096473 12.205432,2.919524 15.3586354,2.88277083 C17.8432747,2.85381032 21.2847421,3.70870109 22.5072356,6.11104484 C23.0881242,6.44879419 24.7321695,7.38383648 27.4393716,8.91617171 C27.7597927,9.09755275 27.8724994,9.50431644 27.6911306,9.82471603 L25.7511204,13.2510435 C25.569827,13.5713098 25.1633108,13.6840918 24.8429254,13.5030089 L21.0677231,11.3697558 C21.0494252,11.3594137 21.0309653,11.3493607 21.0123505,11.3396006 C20.0340933,10.8266809 18.8252555,11.2039115 18.3123359,12.1821688 L17.1710073,14.3589481 L13.8292211,12.3927702 C15.0143251,10.0651964 15.1376824,8.28688041 14.1992929,7.05782218 Z" id="Combined-Shape" opacity="0.400000006"></path>
                        <path d="M9.27085676,12.23156 L13.1519319,12.263459 L13.7518928,28.8828073 C13.7618551,29.1587699 13.5462192,29.3905579 13.2702566,29.4005201 C13.2582183,29.4009547 13.2461683,29.4009541 13.2341301,29.4005183 L9.2292245,29.2555404 C8.95413988,29.2455823 8.73884262,29.015153 8.74756371,28.7400264 L9.27085676,12.23156 Z" id="Rectangle-5" opacity="0.900000036" transform="translate(11.249766, 20.816203) rotate(30.000000) translate(-11.249766, -20.816203) "></path>
                    </g>
                </g>
                <g id="Group-2-Copy-2" transform="translate(0.000000, 92.000000)">
                    <rect id="Rectangle" fill-opacity="0.6" fill="#242E42" x="0" y="0" width="80" height="80" rx="4"></rect>
                    <text id="运维组" font-family="PingFangSC-Medium, PingFang SC" font-size="14" font-weight="400" line-spacing="18" fill="#FFFFFF">
                        <tspan x="17.992" y="65">运维组</tspan>
                    </text>
                    <g id="Glyph/002.Object/050.Wrench/White" transform="translate(24.000000, 12.000000)" fill="#FFFFFF">
                        <path d="M18.9920356,15.2567052 L11.1286974,28.8764064 L6.5098953,26.2097398 L14.3732334,12.5900386 C14.8739383,13.3332553 15.5472781,13.9768787 16.3756263,14.4551258 C17.2039744,14.9333728 18.0980386,15.1946904 18.9920356,15.2567052 Z" id="Combined-Shape" opacity="0.400000006"></path>
                        <path d="M19.8432286,3.11572899 L17.4835702,7.20277729 L19.1263046,9.69081116 L22.1023723,9.86944395 L24.4620308,5.78239566 C25.7202725,7.65005518 25.8883472,10.1466332 24.6865408,12.2282229 C23.0064873,15.1381608 19.2855642,16.1351792 16.3756263,14.4551258 C13.4656884,12.7750723 12.46867,9.05414919 14.1487235,6.14421129 C15.3505299,4.06262153 17.5966672,2.95988944 19.8432286,3.11572899 Z" id="Combined-Shape" opacity="0.900000036"></path>
                    </g>
                </g>
                <g id="Group-2-Copy-5" transform="translate(92.000000, 92.000000)">
                    <rect id="Rectangle" fill-opacity="0.6" fill="#242E42" x="0" y="0" width="80" height="80" rx="4"></rect>
                    <text id="…" font-family="PingFangSC-Medium, PingFang SC" font-size="14" font-weight="400" line-spacing="18" fill="#FFFFFF">
                        <tspan x="31.992" y="65">…</tspan>
                    </text>
                    <g id="Glyph/002.Object/064.Group/White" transform="translate(24.000000, 12.000000)" fill="#FFFFFF">
                        <path d="M16,18.2940073 C16.2893408,18.0917667 16.6106987,17.9284383 16.9577891,17.8127415 L20.003799,16.7974048 L23.7356128,16.7974048 L26.7816227,17.8127415 C28.3054795,18.3206938 29.3333333,19.7467647 29.3333333,21.3530508 L29.3333333,25.433091 C27.0984241,25.8764693 24.5604454,26.1269391 21.8697059,26.1269391 C19.7999459,26.1269391 17.8205734,25.9787378 16,25.7085336 C16.5462173,25.6274657 17.0781404,25.5354156 17.5939216,25.433091 L17.5939216,21.3530508 C17.5939216,20.1126301 16.9809736,18.9796784 16,18.2940073 Z" id="Combined-Shape" opacity="0.400000006"></path>
                        <path d="M21.8698077,5.87306086 C23.9093702,5.87306086 25.5627623,7.52645298 25.5627623,9.56601552 C25.5627623,9.70152141 25.5553041,9.8369246 25.5404216,9.97161074 L25.30209,12.1284985 C25.1087505,13.8782095 23.6301681,15.2024109 21.8698077,15.2024109 C20.1094472,15.2024109 18.6308648,13.8782095 18.4375253,12.1284985 L18.1991937,9.97161074 C17.9751897,7.94438664 19.4369884,6.11940564 21.4642124,5.89540159 C21.5988986,5.88051905 21.7343018,5.87306086 21.8698077,5.87306086 Z" id="Path" opacity="0.400000006"></path>
                        <path d="M2.66666667,25.433091 L2.66666667,21.3530508 C2.66666667,19.7467647 3.69452047,18.3206938 5.21837727,17.8127415 L8.26438725,16.7974048 L11.996201,16.7974048 L15.0422109,17.8127415 C16.5660677,18.3206938 17.5939216,19.7467647 17.5939216,21.3530508 L17.5939216,25.433091 C15.3590123,25.8764693 12.8210336,26.1269391 10.1302941,26.1269391 C7.43955462,26.1269391 4.90157594,25.8764693 2.66666667,25.433091 Z" id="Combined-Shape" opacity="0.900000036"></path>
                        <path d="M10.1303959,5.87306086 C12.1699584,5.87306086 13.8233505,7.52645298 13.8233505,9.56601552 C13.8233505,9.70152141 13.8158924,9.8369246 13.8010098,9.97161074 L13.5626782,12.1284985 C13.3693388,13.8782095 11.8907563,15.2024109 10.1303959,15.2024109 C8.37003542,15.2024109 6.891453,13.8782095 6.69811356,12.1284985 L6.45978195,9.97161074 C6.2357779,7.94438664 7.69757657,6.11940564 9.72480067,5.89540159 C9.85948681,5.88051905 9.99488999,5.87306086 10.1303959,5.87306086 Z" id="Path" opacity="0.900000036"></path>
                    </g>
                </g>
                <g id="Group-2-Copy" transform="translate(92.000000, 0.000000)">
                    <rect id="Rectangle" fill-opacity="0.6" fill="#242E42" x="0" y="0" width="80" height="80" rx="4"></rect>
                    <text id="测试组" font-family="PingFangSC-Medium, PingFang SC" font-size="14" font-weight="400" line-spacing="18" fill="#FFFFFF">
                        <tspan x="17.992" y="65">测试组</tspan>
                    </text>
                    <g id="Glyph/002.Object/027.Increase/White" transform="translate(24.000000, 12.000000)" fill="#FFFFFF">
                        <polygon id="Rectangle-7" opacity="0.400000006" points="6.66666667 17.6497396 10.6666667 17.6497396 10.6666667 29.3333333 6.66666667 29.3333333"></polygon>
                        <polygon id="Rectangle-7-Copy" opacity="0.400000006" points="14.0363664 15.3190104 18.0363664 15.3190104 18.0363664 29.3333333 14.0363664 29.3333333"></polygon>
                        <polygon id="Rectangle-7-Copy-3" opacity="0.400000006" points="21.3333333 12.667806 25.3333333 12.667806 25.3333333 29.3333333 21.3333333 29.3333333"></polygon>
                        <polygon id="Combined-Shape" opacity="0.900000036" points="22.2895223 7.90590271 7.19916495 14.0028028 6.27291334 11.7102497 21.3632707 5.61334953 20.4303282 3.30423586 25.2842102 5.36458654 23.2238596 10.2184686"></polygon>
                    </g>
                </g>
            </g>
            <text id="用户组" font-family="PingFangSC-Medium, PingFang SC" font-size="14" font-weight="400" line-spacing="18" fill="#FFFFFF">
                <tspan x="12" y="35">用户组</tspan>
            </text>
        </g>
        <path id="Line" d="M474,344.5 L464,344.5 L463.5,344.5 L463.5,343.5 L464,343.5 L474,343.5 L474,339.5 L483,344 L474,348.5 L474,344.5 Z" fill="#979797" fill-rule="nonzero"></path>
        <g id="Group-4-Copy-2" transform="translate(684.000000, 138.000000)">
            <path d="M0,0 L238,0 L238,406 L0,406 L0,0 Z" id="Rectangle" fill="url(#linearGradient-3)"></path>
            <g id="Group-3" transform="translate(12.000000, 58.000000)">
                <g id="Group-2">
                    <rect id="Rectangle" fill="#4A90E2" x="0" y="0" width="214" height="56" rx="4"></rect>
                    <text id="项目资源" font-family="PingFangSC-Medium, PingFang SC" font-size="14" font-weight="400" line-spacing="18" fill="#FFFFFF">
                        <tspan x="56" y="33">项目资源</tspan>
                    </text>
                    <g id="Glyph/002.Object/054.AppCenter/White" transform="translate(12.000000, 12.000000)" fill="#FFFFFF">
                        <polygon id="Combined-Shape" opacity="0.400000006" points="13 16 16 17.7142857 19 16 28 21.1428571 16 28 4 21.1428571"></polygon>
                        <polygon id="Shape" opacity="0.900000036" points="4 10.8571429 16 4 28 10.8571429 16 17.7142857"></polygon>
                    </g>
                </g>
            </g>
            <g id="Group-3-Copy" transform="translate(12.000000, 126.000000)">
                <g id="Group-2">
                    <rect id="Rectangle" fill-opacity="0.6" fill="#242E42" x="0" y="0" width="214" height="56" rx="4"></rect>
                    <text id="项目成员" font-family="PingFangSC-Medium, PingFang SC" font-size="14" font-weight="400" line-spacing="18" fill="#FFFFFF">
                        <tspan x="56" y="33">项目成员</tspan>
                    </text>
                    <g id="Glyph/002.Object/008.Human/White" transform="translate(12.000000, 12.000000)" fill="#FFFFFF">
                        <path d="M6.66666667,27.7797445 L6.66666667,22.6776175 C6.66666667,20.6689423 7.95200711,18.8856277 9.85760376,18.2504288 L13.6666667,16.9807411 L18.3333333,16.9807411 L22.1423962,18.2504288 C24.0479929,18.8856277 25.3333333,20.6689423 25.3333333,22.6776175 L25.3333333,27.7797445 C22.5385592,28.3341931 19.364794,28.6474078 16,28.6474078 C12.635206,28.6474078 9.46144084,28.3341931 6.66666667,27.7797445 Z" id="Shape" opacity="0.400000006"></path>
                        <path d="M16.0001273,3.31975062 C18.5506186,3.31975062 20.6182003,5.38733235 20.6182003,7.93782368 C20.6182003,8.10727501 20.6088738,8.27659792 20.590263,8.44502414 L20.2922272,11.1422317 C20.0504545,13.3302611 18.2014739,14.9861868 16.0001273,14.9861868 C13.7987807,14.9861868 11.9498,13.3302611 11.7080273,11.1422317 L11.4099915,8.44502414 C11.1298724,5.90996215 12.9578648,3.62780698 15.4929268,3.3476879 C15.661353,3.32907715 15.8306759,3.31975062 16.0001273,3.31975062 Z" id="Path" opacity="0.900000036"></path>
                    </g>
                </g>
            </g>
            <g id="Group-3-Copy-2" transform="translate(12.000000, 194.000000)">
                <g id="Group-2">
                    <rect id="Rectangle" fill-opacity="0.6" fill="#242E42" x="0" y="0" width="214" height="212" rx="4"></rect>
                    <g id="Group-5" transform="translate(12.000000, 52.000000)">
                        <use id="Rectangle" stroke-opacity="0.6" stroke="#242E42" mask="url(#mask-5)" stroke-width="2" stroke-dasharray="4" xlink:href="#path-4"></use>
                        <text id="Admin" font-family="PingFangSC-Medium, PingFang SC" font-size="14" font-weight="400" line-spacing="18" fill="#FFFFFF">
                            <tspan x="44" y="23">Admin</tspan>
                        </text>
                    </g>
                    <g id="Group-5-Copy" transform="translate(12.000000, 90.000000)">
                        <use id="Rectangle" stroke-opacity="0.6" stroke="#242E42" mask="url(#mask-7)" stroke-width="2" stroke-dasharray="4" xlink:href="#path-6"></use>
                        <text id="Operator" font-family="PingFangSC-Medium, PingFang SC" font-size="14" font-weight="400" line-spacing="18" fill="#FFFFFF">
                            <tspan x="44" y="23">Operator</tspan>
                        </text>
                    </g>
                    <g id="Group-5-Copy-2" transform="translate(12.000000, 128.000000)">
                        <use id="Rectangle" stroke-opacity="0.6" stroke="#242E42" mask="url(#mask-9)" stroke-width="2" stroke-dasharray="4" xlink:href="#path-8"></use>
                        <text id="Viewer" font-family="PingFangSC-Medium, PingFang SC" font-size="14" font-weight="400" line-spacing="18" fill="#FFFFFF">
                            <tspan x="44" y="23">Viewer</tspan>
                        </text>
                    </g>
                    <text id="成员角色" font-family="PingFangSC-Medium, PingFang SC" font-size="14" font-weight="400" line-spacing="18" fill="#FFFFFF">
                        <tspan x="56" y="33">成员角色</tspan>
                    </text>
                    <g id="Glyph/002.Object/062.Role/White" transform="translate(12.000000, 12.000000)" fill="#FFFFFF">
                        <path d="M11.3281853,3.80658205 L14,5.33333333 L20.9412189,3.19757368 C21.6450351,2.98101484 22.3911465,3.376015 22.6077053,4.07983123 C22.6467932,4.20686669 22.6666667,4.33903269 22.6666667,4.47194569 L22.6666667,11.4666665 L9.33333333,11.4666665 L9.33333333,4.96423957 C9.33333333,4.2278599 9.930287,3.63090624 10.6666667,3.63090624 C10.8987026,3.63090624 11.1267217,3.69145999 11.3281853,3.80658205 Z" id="Rectangle-26" fill-rule="evenodd" opacity="0.400000006"></path>
                        <polygon id="Rectangle-24" fill-rule="evenodd" opacity="0.400000006" points="2.6675896 13.3333333 29.3324104 13.3333333 29.3324104 16 2.6675896 16"></polygon>
                        <path d="M17.3759688,22.0129251 C16.9915215,21.7742446 16.5426125,21.6570638 16,21.6570638 C15.458975,21.6570638 15.011106,21.77356 14.6274072,22.0108333 C14.6536628,22.2253335 14.6671804,22.4437704 14.6671804,22.6653646 C14.6671804,25.6101641 12.2799487,27.9973958 9.33514913,27.9973958 C6.39034958,27.9973958 4.00311788,25.6101641 4.00311788,22.6653646 C4.00311788,19.720565 6.39034958,17.3333333 9.33514913,17.3333333 C11.1011888,17.3333333 12.6666948,18.1919197 13.6370233,19.5144485 C14.3457435,19.1659054 15.1389851,18.9903971 16,18.9903971 C16.8620957,18.9903971 17.6562477,19.1663463 18.365645,19.5157618 C19.3359006,18.1924881 20.9018583,17.3333333 22.6684825,17.3333333 C25.613282,17.3333333 28.0005137,19.720565 28.0005137,22.6653646 C28.0005137,25.6101641 25.613282,27.9973958 22.6684825,27.9973958 C19.7236829,27.9973958 17.3364512,25.6101641 17.3364512,22.6653646 C17.3364512,22.4444907 17.3498811,22.2267535 17.3759688,22.0129251 Z M22.6684825,25.3307292 C24.1405227,25.3307292 25.333847,24.1374048 25.333847,22.6653646 C25.333847,21.1933244 24.1405227,20 22.6684825,20 C21.1964423,20 20.0031179,21.1933244 20.0031179,22.6653646 C20.0031179,24.1374048 21.1964423,25.3307292 22.6684825,25.3307292 Z M9.33514913,25.3307292 C10.8071893,25.3307292 12.0005137,24.1374048 12.0005137,22.6653646 C12.0005137,21.1933244 10.8071893,20 9.33514913,20 C7.86310892,20 6.66978455,21.1933244 6.66978455,22.6653646 C6.66978455,24.1374048 7.86310892,25.3307292 9.33514913,25.3307292 Z" id="Combined-Shape" fill-rule="nonzero" opacity="0.900000036"></path>
                    </g>
                </g>
            </g>
            <text id="项目" font-family="PingFangSC-Medium, PingFang SC" font-size="14" font-weight="400" line-spacing="18" fill="#FFFFFF">
                <tspan x="12" y="35">项目</tspan>
            </text>
        </g>
        <g id="Group-4-Copy-3" transform="translate(934.000000, 138.000000)">
            <path d="M0,0 L238,0 L238,406 L0,406 L0,0 Z" id="Rectangle" fill="url(#linearGradient-3)"></path>
            <g id="Group-3" transform="translate(12.000000, 58.000000)">
                <g id="Group-2">
                    <rect id="Rectangle" fill="#479E88" x="0" y="0" width="214" height="56" rx="4"></rect>
                    <text id="工程资源" font-family="PingFangSC-Medium, PingFang SC" font-size="14" font-weight="400" line-spacing="18" fill="#FFFFFF">
                        <tspan x="56" y="33">工程资源</tspan>
                    </text>
                    <g id="Glyph/002.Object/054.AppCenter/White" transform="translate(12.000000, 12.000000)" fill="#FFFFFF">
                        <polygon id="Combined-Shape" opacity="0.400000006" points="13 16 16 17.7142857 19 16 28 21.1428571 16 28 4 21.1428571"></polygon>
                        <polygon id="Shape" opacity="0.900000036" points="4 10.8571429 16 4 28 10.8571429 16 17.7142857"></polygon>
                    </g>
                </g>
            </g>
            <g id="Group-3-Copy" transform="translate(12.000000, 126.000000)">
                <g id="Group-2">
                    <rect id="Rectangle" fill-opacity="0.6" fill="#242E42" x="0" y="0" width="214" height="56" rx="4"></rect>
                    <text id="工程成员" font-family="PingFangSC-Medium, PingFang SC" font-size="14" font-weight="400" line-spacing="18" fill="#FFFFFF">
                        <tspan x="56" y="33">工程成员</tspan>
                    </text>
                    <g id="Glyph/002.Object/008.Human/White" transform="translate(12.000000, 12.000000)" fill="#FFFFFF">
                        <path d="M6.66666667,27.7797445 L6.66666667,22.6776175 C6.66666667,20.6689423 7.95200711,18.8856277 9.85760376,18.2504288 L13.6666667,16.9807411 L18.3333333,16.9807411 L22.1423962,18.2504288 C24.0479929,18.8856277 25.3333333,20.6689423 25.3333333,22.6776175 L25.3333333,27.7797445 C22.5385592,28.3341931 19.364794,28.6474078 16,28.6474078 C12.635206,28.6474078 9.46144084,28.3341931 6.66666667,27.7797445 Z" id="Shape" opacity="0.400000006"></path>
                        <path d="M16.0001273,3.31975062 C18.5506186,3.31975062 20.6182003,5.38733235 20.6182003,7.93782368 C20.6182003,8.10727501 20.6088738,8.27659792 20.590263,8.44502414 L20.2922272,11.1422317 C20.0504545,13.3302611 18.2014739,14.9861868 16.0001273,14.9861868 C13.7987807,14.9861868 11.9498,13.3302611 11.7080273,11.1422317 L11.4099915,8.44502414 C11.1298724,5.90996215 12.9578648,3.62780698 15.4929268,3.3476879 C15.661353,3.32907715 15.8306759,3.31975062 16.0001273,3.31975062 Z" id="Path" opacity="0.900000036"></path>
                    </g>
                </g>
            </g>
            <g id="Group-3-Copy-2" transform="translate(12.000000, 194.000000)">
                <g id="Group-2">
                    <rect id="Rectangle" fill-opacity="0.6" fill="#242E42" x="0" y="0" width="214" height="212" rx="4"></rect>
                    <g id="Group-5" transform="translate(10.000000, 52.000000)">
                        <use id="Rectangle" stroke-opacity="0.6" stroke="#242E42" mask="url(#mask-11)" stroke-width="2" stroke-dasharray="4" xlink:href="#path-10"></use>
                        <text id="Admin" font-family="PingFangSC-Medium, PingFang SC" font-size="14" font-weight="400" line-spacing="18" fill="#FFFFFF">
                            <tspan x="46" y="23">Admin</tspan>
                        </text>
                    </g>
                    <g id="Group-5-Copy-3" transform="translate(10.000000, 90.000000)">
                        <use id="Rectangle" stroke-opacity="0.6" stroke="#242E42" mask="url(#mask-13)" stroke-width="2" stroke-dasharray="4" xlink:href="#path-12"></use>
                        <text id="Maintainer" font-family="PingFangSC-Medium, PingFang SC" font-size="14" font-weight="400" line-spacing="18" fill="#FFFFFF">
                            <tspan x="46" y="23">Maintainer</tspan>
                        </text>
                    </g>
                    <g id="Group-5-Copy-4" transform="translate(10.000000, 128.000000)">
                        <use id="Rectangle" stroke-opacity="0.6" stroke="#242E42" mask="url(#mask-15)" stroke-width="2" stroke-dasharray="4" xlink:href="#path-14"></use>
                        <text id="Developer" font-family="PingFangSC-Medium, PingFang SC" font-size="14" font-weight="400" line-spacing="18" fill="#FFFFFF">
                            <tspan x="46" y="23">Developer</tspan>
                        </text>
                    </g>
                    <g id="Group-5-Copy-5" transform="translate(10.000000, 166.000000)">
                        <use id="Rectangle" stroke-opacity="0.6" stroke="#242E42" mask="url(#mask-17)" stroke-width="2" stroke-dasharray="4" xlink:href="#path-16"></use>
                        <text id="Reporter" font-family="PingFangSC-Medium, PingFang SC" font-size="14" font-weight="400" line-spacing="18" fill="#FFFFFF">
                            <tspan x="46" y="23">Reporter</tspan>
                        </text>
                    </g>
                    <text id="成员角色" font-family="PingFangSC-Medium, PingFang SC" font-size="14" font-weight="400" line-spacing="18" fill="#FFFFFF">
                        <tspan x="56" y="33">成员角色</tspan>
                    </text>
                    <g id="Glyph/002.Object/062.Role/White" transform="translate(12.000000, 12.000000)" fill="#FFFFFF">
                        <path d="M11.3281853,3.80658205 L14,5.33333333 L20.9412189,3.19757368 C21.6450351,2.98101484 22.3911465,3.376015 22.6077053,4.07983123 C22.6467932,4.20686669 22.6666667,4.33903269 22.6666667,4.47194569 L22.6666667,11.4666665 L9.33333333,11.4666665 L9.33333333,4.96423957 C9.33333333,4.2278599 9.930287,3.63090624 10.6666667,3.63090624 C10.8987026,3.63090624 11.1267217,3.69145999 11.3281853,3.80658205 Z" id="Rectangle-26" fill-rule="evenodd" opacity="0.400000006"></path>
                        <polygon id="Rectangle-24" fill-rule="evenodd" opacity="0.400000006" points="2.6675896 13.3333333 29.3324104 13.3333333 29.3324104 16 2.6675896 16"></polygon>
                        <path d="M17.3759688,22.0129251 C16.9915215,21.7742446 16.5426125,21.6570638 16,21.6570638 C15.458975,21.6570638 15.011106,21.77356 14.6274072,22.0108333 C14.6536628,22.2253335 14.6671804,22.4437704 14.6671804,22.6653646 C14.6671804,25.6101641 12.2799487,27.9973958 9.33514913,27.9973958 C6.39034958,27.9973958 4.00311788,25.6101641 4.00311788,22.6653646 C4.00311788,19.720565 6.39034958,17.3333333 9.33514913,17.3333333 C11.1011888,17.3333333 12.6666948,18.1919197 13.6370233,19.5144485 C14.3457435,19.1659054 15.1389851,18.9903971 16,18.9903971 C16.8620957,18.9903971 17.6562477,19.1663463 18.365645,19.5157618 C19.3359006,18.1924881 20.9018583,17.3333333 22.6684825,17.3333333 C25.613282,17.3333333 28.0005137,19.720565 28.0005137,22.6653646 C28.0005137,25.6101641 25.613282,27.9973958 22.6684825,27.9973958 C19.7236829,27.9973958 17.3364512,25.6101641 17.3364512,22.6653646 C17.3364512,22.4444907 17.3498811,22.2267535 17.3759688,22.0129251 Z M22.6684825,25.3307292 C24.1405227,25.3307292 25.333847,24.1374048 25.333847,22.6653646 C25.333847,21.1933244 24.1405227,20 22.6684825,20 C21.1964423,20 20.0031179,21.1933244 20.0031179,22.6653646 C20.0031179,24.1374048 21.1964423,25.3307292 22.6684825,25.3307292 Z M9.33514913,25.3307292 C10.8071893,25.3307292 12.0005137,24.1374048 12.0005137,22.6653646 C12.0005137,21.1933244 10.8071893,20 9.33514913,20 C7.86310892,20 6.66978455,21.1933244 6.66978455,22.6653646 C6.66978455,24.1374048 7.86310892,25.3307292 9.33514913,25.3307292 Z" id="Combined-Shape" fill-rule="nonzero" opacity="0.900000036"></path>
                    </g>
                </g>
            </g>
            <text id="DevOps工程" font-family="PingFangSC-Medium, PingFang SC" font-size="14" font-weight="400" line-spacing="18" fill="#FFFFFF">
                <tspan x="12" y="35">DevOps工程</tspan>
            </text>
        </g>
        <path d="M40,856 L1400,856 L1400,1014 L40,1014 L40,856 Z" id="Rectangle" fill="#36435C"></path>
        <path id="Line-4" d="M1302.5,844.5 L1302.5,856 L1302.5,856.5 L1301.5,856.5 L1301.5,856 L1301.5,844.5 L1297.5,844.5 L1302,835.5 L1306.5,844.5 L1302.5,844.5 Z" fill="#979797" fill-rule="nonzero"></path>
        <g id="Group[12h]" transform="translate(52.000000, 914.000000)">
            <g id="Group-8">
                <rect id="Rectangle" fill-opacity="0.6" fill="#242E42" x="0" y="0" width="437" height="80" rx="4"></rect>
                <g id="Group-9" transform="translate(128.000000, 12.000000)" fill="#FFFFFF">
                    <text id="Cluster-admin" font-family="PingFangSC-Medium, PingFang SC" font-size="14" font-weight="400" line-spacing="18">
                        <tspan x="40.902" y="53">Cluster-admin</tspan>
                    </text>
                    <g id="Glyph/002.Object/062.Role/White" transform="translate(75.000000, 0.000000)">
                        <path d="M11.3281853,3.80658205 L14,5.33333333 L20.9412189,3.19757368 C21.6450351,2.98101484 22.3911465,3.376015 22.6077053,4.07983123 C22.6467932,4.20686669 22.6666667,4.33903269 22.6666667,4.47194569 L22.6666667,11.4666665 L9.33333333,11.4666665 L9.33333333,4.96423957 C9.33333333,4.2278599 9.930287,3.63090624 10.6666667,3.63090624 C10.8987026,3.63090624 11.1267217,3.69145999 11.3281853,3.80658205 Z" id="Rectangle-26" fill-rule="evenodd" opacity="0.400000006"></path>
                        <polygon id="Rectangle-24" fill-rule="evenodd" opacity="0.400000006" points="2.6675896 13.3333333 29.3324104 13.3333333 29.3324104 16 2.6675896 16"></polygon>
                        <path d="M17.3759688,22.0129251 C16.9915215,21.7742446 16.5426125,21.6570638 16,21.6570638 C15.458975,21.6570638 15.011106,21.77356 14.6274072,22.0108333 C14.6536628,22.2253335 14.6671804,22.4437704 14.6671804,22.6653646 C14.6671804,25.6101641 12.2799487,27.9973958 9.33514913,27.9973958 C6.39034958,27.9973958 4.00311788,25.6101641 4.00311788,22.6653646 C4.00311788,19.720565 6.39034958,17.3333333 9.33514913,17.3333333 C11.1011888,17.3333333 12.6666948,18.1919197 13.6370233,19.5144485 C14.3457435,19.1659054 15.1389851,18.9903971 16,18.9903971 C16.8620957,18.9903971 17.6562477,19.1663463 18.365645,19.5157618 C19.3359006,18.1924881 20.9018583,17.3333333 22.6684825,17.3333333 C25.613282,17.3333333 28.0005137,19.720565 28.0005137,22.6653646 C28.0005137,25.6101641 25.613282,27.9973958 22.6684825,27.9973958 C19.7236829,27.9973958 17.3364512,25.6101641 17.3364512,22.6653646 C17.3364512,22.4444907 17.3498811,22.2267535 17.3759688,22.0129251 Z M22.6684825,25.3307292 C24.1405227,25.3307292 25.333847,24.1374048 25.333847,22.6653646 C25.333847,21.1933244 24.1405227,20 22.6684825,20 C21.1964423,20 20.0031179,21.1933244 20.0031179,22.6653646 C20.0031179,24.1374048 21.1964423,25.3307292 22.6684825,25.3307292 Z M9.33514913,25.3307292 C10.8071893,25.3307292 12.0005137,24.1374048 12.0005137,22.6653646 C12.0005137,21.1933244 10.8071893,20 9.33514913,20 C7.86310892,20 6.66978455,21.1933244 6.66978455,22.6653646 C6.66978455,24.1374048 7.86310892,25.3307292 9.33514913,25.3307292 Z" id="Combined-Shape" fill-rule="nonzero" opacity="0.900000036"></path>
                    </g>
                </g>
            </g>
            <g id="Group-8-Copy" transform="translate(449.000000, 0.000000)">
                <rect id="Rectangle" fill-opacity="0.6" fill="#242E42" x="0" y="0" width="437" height="80" rx="4"></rect>
                <g id="Group-10" transform="translate(128.000000, 12.000000)" fill="#FFFFFF">
                    <text id="Cluster-regular" font-family="PingFangSC-Medium, PingFang SC" font-size="14" font-weight="400" line-spacing="18">
                        <tspan x="38.018" y="53">Cluster-regular</tspan>
                    </text>
                    <g id="Glyph/002.Object/062.Role/White" transform="translate(75.000000, 0.000000)">
                        <path d="M11.3281853,3.80658205 L14,5.33333333 L20.9412189,3.19757368 C21.6450351,2.98101484 22.3911465,3.376015 22.6077053,4.07983123 C22.6467932,4.20686669 22.6666667,4.33903269 22.6666667,4.47194569 L22.6666667,11.4666665 L9.33333333,11.4666665 L9.33333333,4.96423957 C9.33333333,4.2278599 9.930287,3.63090624 10.6666667,3.63090624 C10.8987026,3.63090624 11.1267217,3.69145999 11.3281853,3.80658205 Z" id="Rectangle-26" fill-rule="evenodd" opacity="0.400000006"></path>
                        <polygon id="Rectangle-24" fill-rule="evenodd" opacity="0.400000006" points="2.6675896 13.3333333 29.3324104 13.3333333 29.3324104 16 2.6675896 16"></polygon>
                        <path d="M17.3759688,22.0129251 C16.9915215,21.7742446 16.5426125,21.6570638 16,21.6570638 C15.458975,21.6570638 15.011106,21.77356 14.6274072,22.0108333 C14.6536628,22.2253335 14.6671804,22.4437704 14.6671804,22.6653646 C14.6671804,25.6101641 12.2799487,27.9973958 9.33514913,27.9973958 C6.39034958,27.9973958 4.00311788,25.6101641 4.00311788,22.6653646 C4.00311788,19.720565 6.39034958,17.3333333 9.33514913,17.3333333 C11.1011888,17.3333333 12.6666948,18.1919197 13.6370233,19.5144485 C14.3457435,19.1659054 15.1389851,18.9903971 16,18.9903971 C16.8620957,18.9903971 17.6562477,19.1663463 18.365645,19.5157618 C19.3359006,18.1924881 20.9018583,17.3333333 22.6684825,17.3333333 C25.613282,17.3333333 28.0005137,19.720565 28.0005137,22.6653646 C28.0005137,25.6101641 25.613282,27.9973958 22.6684825,27.9973958 C19.7236829,27.9973958 17.3364512,25.6101641 17.3364512,22.6653646 C17.3364512,22.4444907 17.3498811,22.2267535 17.3759688,22.0129251 Z M22.6684825,25.3307292 C24.1405227,25.3307292 25.333847,24.1374048 25.333847,22.6653646 C25.333847,21.1933244 24.1405227,20 22.6684825,20 C21.1964423,20 20.0031179,21.1933244 20.0031179,22.6653646 C20.0031179,24.1374048 21.1964423,25.3307292 22.6684825,25.3307292 Z M9.33514913,25.3307292 C10.8071893,25.3307292 12.0005137,24.1374048 12.0005137,22.6653646 C12.0005137,21.1933244 10.8071893,20 9.33514913,20 C7.86310892,20 6.66978455,21.1933244 6.66978455,22.6653646 C6.66978455,24.1374048 7.86310892,25.3307292 9.33514913,25.3307292 Z" id="Combined-Shape" fill-rule="nonzero" opacity="0.900000036"></path>
                    </g>
                </g>
            </g>
            <g id="Group-8-Copy-2" transform="translate(898.000000, 0.000000)">
                <rect id="Rectangle" fill-opacity="0.6" fill="#242E42" x="0" y="0" width="437" height="80" rx="4"></rect>
                <g id="Group-11" transform="translate(129.000000, 12.000000)" fill="#FFFFFF">
                    <text id="Workspaces-manager" font-family="PingFangSC-Medium, PingFang SC" font-size="14" font-weight="400" line-spacing="18">
                        <tspan x="15.324" y="53">Workspaces-manager</tspan>
                    </text>
                    <g id="Glyph/002.Object/062.Role/White" transform="translate(74.000000, 0.000000)">
                        <path d="M11.3281853,3.80658205 L14,5.33333333 L20.9412189,3.19757368 C21.6450351,2.98101484 22.3911465,3.376015 22.6077053,4.07983123 C22.6467932,4.20686669 22.6666667,4.33903269 22.6666667,4.47194569 L22.6666667,11.4666665 L9.33333333,11.4666665 L9.33333333,4.96423957 C9.33333333,4.2278599 9.930287,3.63090624 10.6666667,3.63090624 C10.8987026,3.63090624 11.1267217,3.69145999 11.3281853,3.80658205 Z" id="Rectangle-26" fill-rule="evenodd" opacity="0.400000006"></path>
                        <polygon id="Rectangle-24" fill-rule="evenodd" opacity="0.400000006" points="2.6675896 13.3333333 29.3324104 13.3333333 29.3324104 16 2.6675896 16"></polygon>
                        <path d="M17.3759688,22.0129251 C16.9915215,21.7742446 16.5426125,21.6570638 16,21.6570638 C15.458975,21.6570638 15.011106,21.77356 14.6274072,22.0108333 C14.6536628,22.2253335 14.6671804,22.4437704 14.6671804,22.6653646 C14.6671804,25.6101641 12.2799487,27.9973958 9.33514913,27.9973958 C6.39034958,27.9973958 4.00311788,25.6101641 4.00311788,22.6653646 C4.00311788,19.720565 6.39034958,17.3333333 9.33514913,17.3333333 C11.1011888,17.3333333 12.6666948,18.1919197 13.6370233,19.5144485 C14.3457435,19.1659054 15.1389851,18.9903971 16,18.9903971 C16.8620957,18.9903971 17.6562477,19.1663463 18.365645,19.5157618 C19.3359006,18.1924881 20.9018583,17.3333333 22.6684825,17.3333333 C25.613282,17.3333333 28.0005137,19.720565 28.0005137,22.6653646 C28.0005137,25.6101641 25.613282,27.9973958 22.6684825,27.9973958 C19.7236829,27.9973958 17.3364512,25.6101641 17.3364512,22.6653646 C17.3364512,22.4444907 17.3498811,22.2267535 17.3759688,22.0129251 Z M22.6684825,25.3307292 C24.1405227,25.3307292 25.333847,24.1374048 25.333847,22.6653646 C25.333847,21.1933244 24.1405227,20 22.6684825,20 C21.1964423,20 20.0031179,21.1933244 20.0031179,22.6653646 C20.0031179,24.1374048 21.1964423,25.3307292 22.6684825,25.3307292 Z M9.33514913,25.3307292 C10.8071893,25.3307292 12.0005137,24.1374048 12.0005137,22.6653646 C12.0005137,21.1933244 10.8071893,20 9.33514913,20 C7.86310892,20 6.66978455,21.1933244 6.66978455,22.6653646 C6.66978455,24.1374048 7.86310892,25.3307292 9.33514913,25.3307292 Z" id="Combined-Shape" fill-rule="nonzero" opacity="0.900000036"></path>
                    </g>
                </g>
            </g>
        </g>
        <text id="平台内置角色" font-family="PingFangSC-Medium, PingFang SC" font-size="14" font-weight="400" line-spacing="18" fill="#FFFFFF">
            <tspan x="52" y="891">平台内置角色</tspan>
        </text>
        <path id="Line-7" d="M246.5,341.5 L236,341.5 L235.5,341.5 L235.5,340.5 L236,340.5 L246.5,340.5 L246.5,336.5 L255.5,341 L246.5,345.5 L246.5,341.5 Z" fill="#979797" fill-rule="nonzero"></path>
        <path id="Line-7" d="M246.5,341.5 L236,341.5 L235.5,341.5 L235.5,340.5 L236,340.5 L246.5,340.5 L246.5,336.5 L255.5,341 L246.5,345.5 L246.5,341.5 Z" fill="#979797" fill-rule="nonzero"></path>
        <path id="Line-7" d="M246.5,341.5 L236,341.5 L235.5,341.5 L235.5,340.5 L236,340.5 L246.5,340.5 L246.5,336.5 L255.5,341 L246.5,345.5 L246.5,341.5 Z" fill="#979797" fill-rule="nonzero"></path>
        <path id="Line-7" d="M246.5,341.5 L236,341.5 L235.5,341.5 L235.5,340.5 L236,340.5 L246.5,340.5 L246.5,336.5 L255.5,341 L246.5,345.5 L246.5,341.5 Z" fill="#979797" fill-rule="nonzero"></path>
    </g>
</svg>