<?xml version="1.0" encoding="UTF-8"?>
<svg width="97px" height="15px" viewBox="0 0 97 15" version="1.1" xmlns="http://www.w3.org/2000/svg" xmlns:xlink="http://www.w3.org/1999/xlink">
    <!-- Generator: Sketch 50.2 (55047) - http://www.bohemiancoding.com/sketch -->
    <title>Group 25</title>
    <desc>Created with Sketch.</desc>
    <defs></defs>
    <g id="Page-1" stroke="none" stroke-width="1" fill="none" fill-rule="evenodd">
        <g id="首页" transform="translate(-171.000000, -45.000000)" fill="#FFFFFF">
            <g id="Group-17" transform="translate(140.000000, 39.000000)">
                <g id="Group-25" transform="translate(31.102804, 6.088740)">
                    <path d="M66.2482542,0.22251 L65.0702355,0.22251 C64.8127402,0.22251 64.5983103,0.43761 64.5983103,0.69531 L64.5983103,6.19701 L60.8061607,6.19701 L60.8061607,0.69531 C60.8061607,0.43761 60.6132636,0.22251 60.3348336,0.22251 L59.1562168,0.22251 C58.8990206,0.22251 58.6845907,0.43761 58.6845907,0.69531 L58.6845907,13.89261 C58.6845907,14.15091 58.8990206,14.36571 59.1562168,14.36571 L60.3348336,14.36571 C60.6132636,14.36571 60.8061607,14.15091 60.8061607,13.89261 L60.8061607,8.32491 L64.5983103,8.32491 L64.5983103,13.89261 C64.5983103,14.15091 64.8127402,14.36571 65.0702355,14.36571 L66.2482542,14.36571 C66.5269832,14.36571 66.7195813,14.15091 66.7195813,13.89261 L66.7195813,0.69531 C66.7195813,0.43761 66.5269832,0.22251 66.2482542,0.22251" id="Fill-5"></path>
                    <path d="M37.8344075,12.71061 C37.8344075,12.45261 37.6199776,12.23751 37.3630804,12.23751 L32.0418093,12.23781 L32.0418093,8.35791 L37.3630804,8.35791 C37.6199776,8.35791 37.8341084,8.16471 37.8341084,7.88511 L37.8341084,6.70311 C37.8341084,6.44481 37.6196785,6.23001 37.3627813,6.23001 L32.0418093,6.23001 L32.0418093,2.35041 L37.3627813,2.35041 C37.6196785,2.35041 37.8341084,2.15691 37.8341084,1.87761 L37.8341084,0.69561 C37.8341084,0.43731 37.6196785,0.22251 37.3627813,0.22251 L31.5713794,0.22251 C31.5710804,0.22251 31.5707813,0.22251 31.5704822,0.22251 L30.3921645,0.22251 C30.1346692,0.22251 29.9205383,0.43731 29.9205383,0.69531 L29.9205383,13.89261 C29.9205383,14.15061 30.1346692,14.36571 30.3921645,14.36571 L30.9026692,14.36571 L30.9035664,14.36571 L37.3630804,14.36571 C37.6199776,14.36571 37.8344075,14.17221 37.8344075,13.89261 L37.8344075,12.71061 Z" id="Fill-7"></path>
                    <path d="M76.8154318,12.71061 C76.8154318,12.45261 76.6010019,12.23751 76.3441047,12.23751 L71.0228336,12.23781 L71.0228336,8.35791 L76.3438056,8.35791 C76.6007028,8.35791 76.8151327,8.16471 76.8151327,7.88511 L76.8151327,6.70311 C76.8151327,6.44481 76.6007028,6.23001 76.3438056,6.23001 L71.0228336,6.23001 L71.0228336,2.35041 L76.3438056,2.35041 C76.6007028,2.35041 76.8151327,2.15691 76.8151327,1.87761 L76.8151327,0.69561 C76.8151327,0.43731 76.6007028,0.22251 76.3438056,0.22251 L70.5524037,0.22251 C70.5521047,0.22251 70.5518056,0.22251 70.5515065,0.22251 L69.3731888,0.22251 C69.1156935,0.22251 68.9015626,0.43731 68.9015626,0.69531 L68.9015626,13.89261 C68.9015626,14.15061 69.1156935,14.36571 69.3731888,14.36571 L69.8836935,14.36571 L69.8845907,14.36571 L76.3441047,14.36571 C76.6010019,14.36571 76.8154318,14.17221 76.8154318,13.89261 L76.8154318,12.71061 Z" id="Fill-9"></path>
                    <path d="M96.8971963,12.71061 C96.8971963,12.45261 96.6827664,12.23751 96.4258692,12.23751 L91.1045981,12.23781 L91.1045981,8.35791 L96.4258692,8.35791 C96.6827664,8.35791 96.8968972,8.16471 96.8968972,7.88511 L96.8968972,6.70311 C96.8968972,6.44481 96.6824673,6.23001 96.4255701,6.23001 L91.1045981,6.23001 L91.1045981,2.35041 L96.4255701,2.35041 C96.6824673,2.35041 96.8968972,2.15691 96.8968972,1.87761 L96.8968972,0.69561 C96.8968972,0.43731 96.6824673,0.22251 96.4255701,0.22251 L90.6341682,0.22251 C90.6338692,0.22251 90.6335701,0.22251 90.633271,0.22251 L89.4549533,0.22251 C89.197757,0.22251 88.9833271,0.43731 88.9833271,0.69531 L88.9833271,13.89261 C88.9833271,14.15061 89.197757,14.36571 89.4549533,14.36571 L89.9654579,14.36571 L89.9663551,14.36571 L96.4258692,14.36571 C96.6827664,14.36571 96.8971963,14.17221 96.8971963,13.89261 L96.8971963,12.71061 Z" id="Fill-11"></path>
                    <path d="M41.6845757,3.78078 L41.6845757,4.58808 C41.6845757,5.20428 42.2776224,5.56518 42.9553047,5.84148 L45.7716037,7.03098 C46.8305944,7.49868 47.5719776,8.32668 47.5719776,9.60138 L47.5719776,11.10948 C47.5719776,12.36288 44.945585,14.46618 43.5477533,14.46618 C42.5952299,14.46618 41.1552299,13.78638 40.0331364,13.17018 C39.7786318,13.04298 39.6093607,12.74508 39.7576972,12.40548 L40.117772,11.68308 C40.2658093,11.38578 40.5834168,11.32188 40.8588561,11.47068 C41.7692112,11.93808 42.9762393,12.51168 43.5477533,12.51168 C44.1832673,12.51168 45.5176972,11.42838 45.5176972,10.81218 L45.5176972,9.87768 C45.5176972,9.15528 44.9671178,8.75178 44.2048,8.45448 L41.5787065,7.34958 C40.5621832,6.92478 39.6302953,6.05388 39.6302953,4.86438 L39.6302953,3.48348 C39.6302953,2.10258 42.4044262,0.10578 43.7388561,0.10578 C44.6282766,0.10578 46.0682766,0.76428 47.0213981,1.27428 C47.317772,1.42308 47.4024075,1.76298 47.2750056,2.01768 L46.9364636,2.74008 C46.8305944,2.99478 46.4917533,3.07998 46.1953794,2.95218 C45.4752299,2.61258 44.2682019,2.06028 43.7388561,2.06028 C43.1245757,2.06028 41.6845757,3.07998 41.6845757,3.78078" id="Fill-13"></path>
                    <path d="M83.0405981,2.07102 L80.9620935,2.07102 L80.9620935,6.79992 L83.0618318,6.79992 C83.940486,6.79992 84.968972,5.23092 84.968972,4.39242 C84.968972,3.57582 83.8974206,2.07102 83.0405981,2.07102 M82.9547664,8.64822 L80.9620935,8.64822 L80.9620935,13.89312 C80.9620935,14.17242 80.7691963,14.36562 80.4689346,14.36562 L79.3336822,14.36562 C79.076486,14.36562 78.8408224,14.17242 78.8408224,13.89312 L78.8408224,1.21122 C78.8408224,0.71712 79.419514,0.22242 79.8908411,0.22242 L83.3193271,0.22242 C84.8831402,0.22242 86.9580561,2.66922 86.9580561,4.28112 C86.9580561,5.35602 86.0189907,6.97152 85.0120374,7.59522 C85.8260935,8.02482 86.9401121,9.16422 86.9401121,10.21752 L86.9401121,13.89312 C86.9401121,14.15082 86.7262804,14.36562 86.468785,14.36562 L85.2904673,14.36562 C85.033271,14.36562 84.8191402,14.15082 84.8191402,13.89312 L84.8191402,10.53972 C84.8191402,9.78732 83.7694206,8.64822 82.9547664,8.64822" id="Fill-15"></path>
                    <path d="M53.4266916,2.07102 L51.348486,2.07102 L51.348486,6.79992 L53.4479252,6.79992 C54.3268785,6.79992 55.2324486,5.23092 55.2324486,4.39242 C55.2324486,3.57582 54.283514,2.07102 53.4266916,2.07102 M53.3411589,8.64822 L51.348486,8.64822 L51.348486,13.89312 C51.348486,14.17242 51.1552897,14.36562 50.8553271,14.36562 L49.7197757,14.36562 C49.4625794,14.36562 49.2269159,14.17242 49.2269159,13.89312 L49.2269159,1.21122 C49.2269159,0.71712 49.8056075,0.22242 50.2769346,0.22242 L53.7054206,0.22242 C55.2692336,0.22242 57.2493458,2.74542 57.2493458,4.35732 C57.2493458,5.43222 56.4556262,6.87792 55.5386916,7.71402 C55.088,8.12502 54.3720374,8.64822 53.3411589,8.64822" id="Fill-17"></path>
                    <path d="M13.8625794,14.49099 C12.4518879,14.49099 9.81203738,12.70059 9.81203738,11.15559 L9.81203738,0.78639 C9.81203738,0.52899 10.0462056,0.31599 10.3042991,0.31599 L11.4350654,0.31599 C11.7114019,0.31599 11.9249346,0.52899 11.9249346,0.78639 L11.9249346,10.87779 C11.9249346,11.62899 13.1998505,12.53949 13.8625794,12.53949 C14.5253084,12.53949 15.8088972,11.51379 15.8088972,10.76259 L15.8088972,0.67149 C15.8088972,0.41379 16.0008972,0.20109 16.2589907,0.20109 L17.4313271,0.20109 C17.6894206,0.20109 17.9235888,0.41379 17.9235888,0.67149 L17.9235888,11.04069 C17.9235888,12.53949 15.2717757,14.49099 13.8625794,14.49099" id="Fill-19"></path>
                    <path d="M24.0734505,12.51726 L22.0676187,12.51726 L22.0676187,7.78836 L24.0946841,7.78836 C24.9733383,7.78836 26.0021234,9.27486 26.0021234,10.11306 C26.0021234,10.92996 24.930572,12.51726 24.0734505,12.51726 Z M22.0676187,2.07096 L24.0734505,2.07096 C24.930572,2.07096 26.0021234,3.30216 26.0021234,4.11906 C26.0021234,4.95726 24.9733383,6.32616 24.0946841,6.32616 L22.0676187,6.32616 L22.0676187,2.07096 Z M26.1417869,7.05756 C27.1182355,6.41256 28.1018617,5.15946 28.1018617,4.11906 C28.1018617,2.50716 25.9162916,0.22266 24.3521794,0.22266 L20.9960673,0.22266 C20.5250393,0.22266 19.9463477,0.71706 19.9463477,1.21116 L19.9463477,6.39306 L19.9463477,13.37676 L19.9463477,13.89306 C19.9463477,14.17266 20.1820112,14.36556 20.4392075,14.36556 L20.9960673,14.36556 L21.5747589,14.36556 L24.4245533,14.36556 C25.9886654,14.36556 28.1018617,11.72526 28.1018617,10.11306 C28.1018617,9.07326 27.1182355,7.70976 26.1417869,7.05756 Z" id="Fill-21"></path>
                    <path d="M3.26050093,7.37226 L7.92562243,1.95276 C8.0936972,1.75746 8.08801495,1.46856 7.87717383,1.28586 L6.98506168,0.51336 C6.79037009,0.34446 6.48801495,0.36666 6.31994019,0.56196 L2.24068785,5.30106 L2.24068785,0.69546 C2.24068785,0.43746 2.04779065,0.22236 1.76936075,0.22236 L0.590743925,0.22236 C0.333547664,0.22236 0.119416822,0.43746 0.119416822,0.69546 L0.119416822,13.89306 C0.119416822,14.15076 0.333547664,14.36556 0.590743925,14.36556 L1.76936075,14.36556 C2.04779065,14.36556 2.24068785,14.15076 2.24068785,13.89306 L2.24068785,9.44346 L6.31994019,14.18286 C6.48801495,14.37786 6.79037009,14.40006 6.98506168,14.23146 L7.87717383,13.45896 C8.08801495,13.27596 8.0936972,12.98706 7.92562243,12.79206 L3.26050093,7.37226 Z" id="Fill-23"></path>
                </g>
            </g>
        </g>
    </g>
</svg>