<?xml version="1.0" encoding="UTF-8"?>
<svg width="428px" height="90px" viewBox="0 0 428 90" version="1.1" xmlns="http://www.w3.org/2000/svg" xmlns:xlink="http://www.w3.org/1999/xlink">
    <!-- Generator: Sketch 49.3 (51167) - http://www.bohemiancoding.com/sketch -->
    <title>Page 1</title>
    <desc>Created with Sketch.</desc>
    <defs></defs>
    <g id="Page-1" stroke="none" stroke-width="1" fill="none" fill-rule="evenodd">
        <g id="logo" transform="translate(-186.000000, -205.000000)">
            <g id="Page-1" transform="translate(186.000000, 205.000000)">
                <polygon id="Fill-1" fill="#00A971" points="68.0913 72.392 48.3553 60.997 48.3553 83.788"></polygon>
                <polygon id="Fill-2" fill="#00A971" points="68.0913 16.9033 48.3553 5.5083 48.3553 28.2983"></polygon>
                <polygon id="Fill-3" fill="#00A971" points="38.6163 -0.0004 0.0003 22.2956 0.0003 67.0006 38.6163 89.2946 38.6163 55.3756 20.0353 44.6476 38.6163 33.9196"></polygon>
                <polygon id="Fill-4" fill="#00A971" points="38.751 44.6479 77.309 66.9089 77.309 22.3869"></polygon>
                <g id="Group-25" transform="translate(104.000000, 20.295800)" fill="#443D4E">
                    <path d="M221.5176,0.7417 L217.5786,0.7417 C216.7176,0.7417 216.0006,1.4587 216.0006,2.3177 L216.0006,20.6567 L203.3206,20.6567 L203.3206,2.3177 C203.3206,1.4587 202.6756,0.7417 201.7446,0.7417 L197.8036,0.7417 C196.9436,0.7417 196.2266,1.4587 196.2266,2.3177 L196.2266,46.3087 C196.2266,47.1697 196.9436,47.8857 197.8036,47.8857 L201.7446,47.8857 C202.6756,47.8857 203.3206,47.1697 203.3206,46.3087 L203.3206,27.7497 L216.0006,27.7497 L216.0006,46.3087 C216.0006,47.1697 216.7176,47.8857 217.5786,47.8857 L221.5176,47.8857 C222.4496,47.8857 223.0936,47.1697 223.0936,46.3087 L223.0936,2.3177 C223.0936,1.4587 222.4496,0.7417 221.5176,0.7417" id="Fill-5"></path>
                    <path d="M126.5088,42.3687 C126.5088,41.5087 125.7918,40.7917 124.9328,40.7917 L107.1398,40.7927 L107.1398,27.8597 L124.9328,27.8597 C125.7918,27.8597 126.5078,27.2157 126.5078,26.2837 L126.5078,22.3437 C126.5078,21.4827 125.7908,20.7667 124.9318,20.7667 L107.1398,20.7667 L107.1398,7.8347 L124.9318,7.8347 C125.7908,7.8347 126.5078,7.1897 126.5078,6.2587 L126.5078,2.3187 C126.5078,1.4577 125.7908,0.7417 124.9318,0.7417 L105.5668,0.7417 C105.5658,0.7417 105.5648,0.7417 105.5638,0.7417 L101.6238,0.7417 C100.7628,0.7417 100.0468,1.4577 100.0468,2.3177 L100.0468,46.3087 C100.0468,47.1687 100.7628,47.8857 101.6238,47.8857 L103.3308,47.8857 L103.3338,47.8857 L124.9328,47.8857 C125.7918,47.8857 126.5088,47.2407 126.5088,46.3087 L126.5088,42.3687 Z" id="Fill-7"></path>
                    <path d="M256.8516,42.3687 C256.8516,41.5087 256.1346,40.7917 255.2756,40.7917 L237.4826,40.7927 L237.4826,27.8597 L255.2746,27.8597 C256.1336,27.8597 256.8506,27.2157 256.8506,26.2837 L256.8506,22.3437 C256.8506,21.4827 256.1336,20.7667 255.2746,20.7667 L237.4826,20.7667 L237.4826,7.8347 L255.2746,7.8347 C256.1336,7.8347 256.8506,7.1897 256.8506,6.2587 L256.8506,2.3187 C256.8506,1.4577 256.1336,0.7417 255.2746,0.7417 L235.9096,0.7417 C235.9086,0.7417 235.9076,0.7417 235.9066,0.7417 L231.9666,0.7417 C231.1056,0.7417 230.3896,1.4577 230.3896,2.3177 L230.3896,46.3087 C230.3896,47.1687 231.1056,47.8857 231.9666,47.8857 L233.6736,47.8857 L233.6766,47.8857 L255.2756,47.8857 C256.1346,47.8857 256.8516,47.2407 256.8516,46.3087 L256.8516,42.3687 Z" id="Fill-9"></path>
                    <path d="M324,42.3687 C324,41.5087 323.283,40.7917 322.424,40.7917 L304.631,40.7927 L304.631,27.8597 L322.424,27.8597 C323.283,27.8597 323.999,27.2157 323.999,26.2837 L323.999,22.3437 C323.999,21.4827 323.282,20.7667 322.423,20.7667 L304.631,20.7667 L304.631,7.8347 L322.423,7.8347 C323.282,7.8347 323.999,7.1897 323.999,6.2587 L323.999,2.3187 C323.999,1.4577 323.282,0.7417 322.423,0.7417 L303.058,0.7417 C303.057,0.7417 303.056,0.7417 303.055,0.7417 L299.115,0.7417 C298.255,0.7417 297.538,1.4577 297.538,2.3177 L297.538,46.3087 C297.538,47.1687 298.255,47.8857 299.115,47.8857 L300.822,47.8857 L300.825,47.8857 L322.424,47.8857 C323.283,47.8857 324,47.2407 324,46.3087 L324,42.3687 Z" id="Fill-11"></path>
                    <path d="M139.3828,12.6026 L139.3828,15.2936 C139.3828,17.3476 141.3658,18.5506 143.6318,19.4716 L153.0488,23.4366 C156.5898,24.9956 159.0688,27.7556 159.0688,32.0046 L159.0688,37.0316 C159.0688,41.2096 150.2868,48.2206 145.6128,48.2206 C142.4278,48.2206 137.6128,45.9546 133.8608,43.9006 C133.0098,43.4766 132.4438,42.4836 132.9398,41.3516 L134.1438,38.9436 C134.6388,37.9526 135.7008,37.7396 136.6218,38.2356 C139.6658,39.7936 143.7018,41.7056 145.6128,41.7056 C147.7378,41.7056 152.1998,38.0946 152.1998,36.0406 L152.1998,32.9256 C152.1998,30.5176 150.3588,29.1726 147.8098,28.1816 L139.0288,24.4986 C135.6298,23.0826 132.5138,20.1796 132.5138,16.2146 L132.5138,11.6116 C132.5138,7.0086 141.7898,0.3526 146.2518,0.3526 C149.2258,0.3526 154.0408,2.5476 157.2278,4.2476 C158.2188,4.7436 158.5018,5.8766 158.0758,6.7256 L156.9438,9.1336 C156.5898,9.9826 155.4568,10.2666 154.4658,9.8406 C152.0578,8.7086 148.0218,6.8676 146.2518,6.8676 C144.1978,6.8676 139.3828,10.2666 139.3828,12.6026" id="Fill-13"></path>
                    <path d="M277.667,6.9034 L270.717,6.9034 L270.717,22.6664 L277.738,22.6664 C280.676,22.6664 284.115,17.4364 284.115,14.6414 C284.115,11.9194 280.532,6.9034 277.667,6.9034 M277.38,28.8274 L270.717,28.8274 L270.717,46.3104 C270.717,47.2414 270.072,47.8854 269.068,47.8854 L265.272,47.8854 C264.412,47.8854 263.624,47.2414 263.624,46.3104 L263.624,4.0374 C263.624,2.3904 265.559,0.7414 267.135,0.7414 L278.599,0.7414 C283.828,0.7414 290.766,8.8974 290.766,14.2704 C290.766,17.8534 287.626,23.2384 284.259,25.3174 C286.981,26.7494 290.706,30.5474 290.706,34.0584 L290.706,46.3104 C290.706,47.1694 289.991,47.8854 289.13,47.8854 L285.19,47.8854 C284.33,47.8854 283.614,47.1694 283.614,46.3104 L283.614,35.1324 C283.614,32.6244 280.104,28.8274 277.38,28.8274" id="Fill-15"></path>
                    <path d="M178.6455,6.9034 L171.6965,6.9034 L171.6965,22.6664 L178.7165,22.6664 C181.6555,22.6664 184.6835,17.4364 184.6835,14.6414 C184.6835,11.9194 181.5105,6.9034 178.6455,6.9034 M178.3595,28.8274 L171.6965,28.8274 L171.6965,46.3104 C171.6965,47.2414 171.0505,47.8854 170.0475,47.8854 L166.2505,47.8854 C165.3905,47.8854 164.6025,47.2414 164.6025,46.3104 L164.6025,4.0374 C164.6025,2.3904 166.5375,0.7414 168.1135,0.7414 L179.5775,0.7414 C184.8065,0.7414 191.4275,9.1514 191.4275,14.5244 C191.4275,18.1074 188.7735,22.9264 185.7075,25.7134 C184.2005,27.0834 181.8065,28.8274 178.3595,28.8274" id="Fill-17"></path>
                    <path d="M46.353,48.3033 C41.636,48.3033 32.809,42.3353 32.809,37.1853 L32.809,2.6213 C32.809,1.7633 33.592,1.0533 34.455,1.0533 L38.236,1.0533 C39.16,1.0533 39.874,1.7633 39.874,2.6213 L39.874,36.2593 C39.874,38.7633 44.137,41.7983 46.353,41.7983 C48.569,41.7983 52.861,38.3793 52.861,35.8753 L52.861,2.2383 C52.861,1.3793 53.503,0.6703 54.366,0.6703 L58.286,0.6703 C59.149,0.6703 59.932,1.3793 59.932,2.2383 L59.932,36.8023 C59.932,41.7983 51.065,48.3033 46.353,48.3033" id="Fill-19"></path>
                    <path d="M80.4956,41.7242 L73.7886,41.7242 L73.7886,25.9612 L80.5666,25.9612 C83.5046,25.9612 86.9446,30.9162 86.9446,33.7102 C86.9446,36.4332 83.3616,41.7242 80.4956,41.7242 Z M73.7886,6.9032 L80.4956,6.9032 C83.3616,6.9032 86.9446,11.0072 86.9446,13.7302 C86.9446,16.5242 83.5046,21.0872 80.5666,21.0872 L73.7886,21.0872 L73.7886,6.9032 Z M87.4116,23.5252 C90.6766,21.3752 93.9656,17.1982 93.9656,13.7302 C93.9656,8.3572 86.6576,0.7422 81.4276,0.7422 L70.2056,0.7422 C68.6306,0.7422 66.6956,2.3902 66.6956,4.0372 L66.6956,21.3102 L66.6956,44.5892 L66.6956,46.3102 C66.6956,47.2422 67.4836,47.8852 68.3436,47.8852 L70.2056,47.8852 L72.1406,47.8852 L81.6696,47.8852 C86.8996,47.8852 93.9656,39.0842 93.9656,33.7102 C93.9656,30.2442 90.6766,25.6992 87.4116,23.5252 Z" id="Fill-21"></path>
                    <path d="M10.9023,24.5742 L26.5013,6.5092 C27.0633,5.8582 27.0443,4.8952 26.3393,4.2862 L23.3563,1.7112 C22.7053,1.1482 21.6943,1.2222 21.1323,1.8732 L7.4923,17.6702 L7.4923,2.3182 C7.4923,1.4582 6.8473,0.7412 5.9163,0.7412 L1.9753,0.7412 C1.1153,0.7412 0.3993,1.4582 0.3993,2.3182 L0.3993,46.3102 C0.3993,47.1692 1.1153,47.8852 1.9753,47.8852 L5.9163,47.8852 C6.8473,47.8852 7.4923,47.1692 7.4923,46.3102 L7.4923,31.4782 L21.1323,47.2762 C21.6943,47.9262 22.7053,48.0002 23.3563,47.4382 L26.3393,44.8632 C27.0443,44.2532 27.0633,43.2902 26.5013,42.6402 L10.9023,24.5742 Z" id="Fill-23"></path>
                </g>
            </g>
        </g>
    </g>
</svg>